<?xml version="1.0" encoding="utf-8"?>
<!-- Generator: Adobe Illustrator 23.1.1, SVG Export Plug-In . SVG Version: 6.00 Build 0)  -->
<svg version="1.1" id="Layer_1" xmlns="http://www.w3.org/2000/svg" xmlns:xlink="http://www.w3.org/1999/xlink" x="0px" y="0px"
	 viewBox="0 0 1376 1360" style="enable-background:new 0 0 1376 1360;" xml:space="preserve">
<style type="text/css">
	.st0{fill:#2E316D;}
	.st1{fill:#FF6E1D;}
	.st2{fill:none;stroke:#888DAA;stroke-miterlimit:10;}
	.st3{fill:#FFFFFF;}
	.st4{fill:#FF6700;}
	.st5{fill:none;stroke:#CACDE5;stroke-miterlimit:10;}
	.st6{opacity:0.4;fill:#FFFFFF;}
	.st7{fill:none;stroke:#888DAA;stroke-width:3;stroke-miterlimit:10;}
	.st8{opacity:0.35;}
	.st9{fill:none;stroke:#FF6E1D;stroke-miterlimit:10;}
</style>
<g>
	<path class="st1" d="M424.2,645.66H217.1V182.53h207.1c32.23,0,62.46,6.07,90.72,18.2c28.25,12.14,52.91,28.65,74,49.54
		c21.08,20.89,37.69,45.46,49.83,73.7c12.13,28.26,18.2,58.29,18.2,90.12c0,31.84-6.07,61.88-18.2,90.12
		c-12.14,28.25-28.75,52.82-49.83,73.7c-21.09,20.89-45.76,37.4-74,49.54C486.66,639.6,456.43,645.66,424.2,645.66z M409.88,295.33
		h-71.02v237.53h71.02c16.71,0,32.32-3.08,46.85-9.25c14.52-6.16,27.15-14.62,37.9-25.37c10.74-10.74,19.19-23.37,25.36-37.9
		c6.16-14.52,9.25-29.94,9.25-46.25c0-16.31-3.09-31.72-9.25-46.25c-6.17-14.52-14.62-27.16-25.36-37.9
		c-10.74-10.74-23.38-19.19-37.9-25.37C442.2,298.42,426.59,295.33,409.88,295.33z"/>
	<path class="st1" d="M970.89,659.99c-34.22,0-66.25-6.37-96.09-19.1c-29.84-12.73-55.91-30.14-78.18-52.22
		c-22.29-22.08-39.89-48.04-52.82-77.88c-12.93-29.84-19.4-61.67-19.4-95.49c0-33.81,6.46-65.65,19.4-95.49
		c12.92-29.84,30.53-55.8,52.82-77.88c22.28-22.08,48.34-39.59,78.18-52.52c29.84-12.92,61.86-19.4,96.09-19.4
		c33.81,0,65.74,6.47,95.79,19.4c30.04,12.94,56.19,30.44,78.48,52.52c22.28,22.08,39.88,48.04,52.82,77.88
		c12.93,29.84,19.4,61.68,19.4,95.49c0,33.82-6.47,65.65-19.4,95.49c-12.93,29.84-30.54,55.8-52.82,77.88
		c-22.29,22.08-48.44,39.49-78.48,52.22C1036.63,653.62,1004.7,659.99,970.89,659.99z M970.89,288.17
		c-17.51,0-33.72,3.49-48.64,10.44c-14.92,6.97-27.75,16.22-38.49,27.75c-10.74,11.55-19.2,24.97-25.36,40.28
		c-6.17,15.32-9.25,31.54-9.25,48.64c0,16.71,3.08,32.83,9.25,48.34c6.16,15.52,14.62,29.05,25.36,40.58
		c10.74,11.54,23.57,20.79,38.49,27.75c14.92,6.97,31.13,10.44,48.64,10.44c17.5,0,33.72-3.48,48.64-10.44
		c14.92-6.96,27.75-16.21,38.49-27.75c10.74-11.54,19.19-25.07,25.36-40.58c6.16-15.52,9.25-31.63,9.25-48.34
		c0-17.1-3.09-33.32-9.25-48.64c-6.17-15.31-14.62-28.74-25.36-40.28c-10.74-11.54-23.57-20.79-38.49-27.75
		C1004.61,291.66,988.39,288.17,970.89,288.17z"/>
	<path class="st1" d="M487.98,1188.88L335.2,953.75v235.14H217.63V748.71h117l153.35,237.41V748.71h118.14v440.17H487.98z"/>
	<path class="st1" d="M753.58,881.05l-68.72-0.57l-5.11-159.03l80.08,0.57L753.58,881.05z"/>
	<path class="st1" d="M1209.42,857.76h-120.97v331.69H968.61V857.76H847.63l-7.95-7.95v-101.1h377.69v101.1L1209.42,857.76z"/>
</g>
</svg>
