<svg id="Layer_1" data-name="Layer 1" xmlns="http://www.w3.org/2000/svg" viewBox="0 0 705 685"><defs><style>.cls-1{fill:#f7bd1e;}</style></defs><title>facebook</title><path class="cls-1" d="M686,348.75C686,164.42,536.57,15,352.25,15S18.5,164.42,18.5,348.75c0,162.49,116.13,297.83,269.91,327.63V444.09H201.05v-99h87.36V266.4c0-56.23,26.88-87.71,26.88-87.71,26.88-36,80.64-40.49,80.64-40.49,51.52-4.5,96.32,6.75,96.32,6.75v83.22H443c-49.28,2.25-49.28,51.73-49.28,51.73v65.22h94.08l-13.44,99H393.69V679.94C558.46,659.53,686,519,686,348.75Z"/></svg>