<svg id="Layer_1" data-name="Layer 1" xmlns="http://www.w3.org/2000/svg" viewBox="0 0 307 417"><defs><style>.cls-1{fill:none;}.cls-2{fill:#f7bd1e;}</style></defs><title>googlespeaker</title><path class="cls-1" d="M190.22,306.65a127.35,127.35,0,0,1-23.75,2.21c-40.41,0-84.63-18.4-131.87-54.92C15.27,368.26,66.86,387.47,70.16,388.56c100.84,14.11,161.2,1.26,166.28.11C284,363.27,273.34,280.84,269,256.2,259.53,269.14,233.94,298.36,190.22,306.65Z"/><path class="cls-1" d="M54.06,77.08c7.62,7.11,30.38,18.57,97.22,15.43,2.94-.3,91.78-9.58,101.28-43.62,0-.42.08-3.23-3.18-6.79-6.63-7.23-28.4-18.91-99.59-15.85a96.19,96.19,0,0,0-11,1.11C99.57,33.62,55.64,48.05,49.52,69.82,49.63,70.63,50.27,73.54,54.06,77.08Z"/><path class="cls-1" d="M267.31,246.05l-14-185.51c-22.15,30-98,37.61-101.53,37.95h-.15C85.07,101.64,59.3,90.68,49.41,80.93c-.26-.25-.5-.5-.74-.75l-13,166C52,249.75,148,268.66,267.31,246.05Z"/><path class="cls-1" d="M189,300.77C230.1,293,254.87,265,264,252.78c-102.84,18.69-187.89,7-219.24,1.29C97.44,293.18,146,308.9,189,300.77Z"/><path class="cls-2" d="M30.12,244.81l3.11.78c.09,0,.93.23,2.46.56l13-166c.24.25.48.5.74.75,9.89,9.75,35.66,20.71,102.23,17.57h.15c3.54-.34,79.38-8,101.53-37.95l14,185.51,2.62-.5,2.84-.55.65,2.82.05.23-15-198.48c.15-1.5.11-6-4.27-11-15.74-18.16-65.63-20-104.71-18.28a101.09,101.09,0,0,0-11.64,1.18c-25.75,4.1-86.48,16.93-94.3,47.31l2.57.66-2.65-.14-14,178.86,0-.17ZM138.83,27.36a96.19,96.19,0,0,1,11-1.11c71.19-3.06,93,8.62,99.59,15.85,3.26,3.56,3.2,6.37,3.18,6.79-9.5,34-98.34,43.32-101.28,43.62-66.84,3.14-89.6-8.32-97.22-15.43-3.79-3.54-4.43-6.45-4.54-7.26C55.64,48.05,99.57,33.62,138.83,27.36Z"/><path class="cls-2" d="M264,252.78c1.72-2.33,2.89-4.09,3.49-5l-.13-1.7C148,268.66,52,249.75,35.69,246.15l-.07,1c3,2.39,6.07,4.69,9.09,6.93C76.06,259.83,161.11,271.47,264,252.78Z"/><path class="cls-2" d="M273.47,248.05l.09,1.15-.47.81c-.23.4-1.6,2.7-4.13,6.19,4.38,24.64,15,107.07-32.52,132.47-5.08,1.15-65.44,14-166.28-.11-3.3-1.09-54.89-20.3-35.56-134.62q-2-1.51-4-3.09l-1.26-1,.13-1.59v-.14C19.88,301,23.34,341.65,39.81,368.81,52.4,389.58,68,394.2,68.68,394.39l.4.08a658.39,658.39,0,0,0,91.17,6.65c49.85,0,77.56-6.61,78-6.71l.35-.08.33-.17c25.14-13.21,39-42.85,40.22-85.7A265.66,265.66,0,0,0,273.47,248.05Z"/><path class="cls-2" d="M29.38,249.86l1.26,1q2,1.58,4,3.09c.1-.61.19-1.2.3-1.82,2.19.48,5.5,1.16,9.81,1.95-3-2.24-6.05-4.54-9.09-6.93l.07-1c-1.53-.33-2.37-.54-2.46-.56l-3.11-.78L29.55,248l0,.17v.14Z"/><path class="cls-2" d="M272.77,245l-2.84.55-2.62.5.13,1.7c-.6.94-1.77,2.7-3.49,5l4.22-.78c.22,1.11.49,2.52.79,4.2,2.53-3.49,3.9-5.79,4.13-6.19l.47-.81-.09-1.15-.05-.23Z"/><ellipse class="cls-2" cx="155" cy="50.5" rx="3.5" ry="2"/><ellipse class="cls-2" cx="180" cy="60.5" rx="3.5" ry="2"/><ellipse class="cls-2" cx="124" cy="61.5" rx="3.5" ry="2"/><ellipse class="cls-2" cx="146" cy="71.5" rx="3.5" ry="2"/></svg>