<svg id="Layer_1" data-name="Layer 1" xmlns="http://www.w3.org/2000/svg" xmlns:xlink="http://www.w3.org/1999/xlink" viewBox="0 0 307 417"><defs><style>.cls-1,.cls-2{fill:#fff;stroke:#f9e2ac;}.cls-1,.cls-2,.cls-3{stroke-miterlimit:10;}.cls-1{stroke-width:2px;}.cls-2,.cls-3{stroke-width:6px;}.cls-3{stroke:#f7bd1e;fill:url(#radial-gradient);}.cls-4{fill:#ffcb77;}.cls-5{fill:#ffd5e6;}.cls-6{fill:#bbff9e;}.cls-7{fill:#92c0ff;}</style><radialGradient id="radial-gradient" cx="151.73" cy="323.33" r="102.7" gradientTransform="translate(0 -323.33) scale(1 2)" gradientUnits="userSpaceOnUse"><stop offset="0.23" stop-color="#e3f7fc"/><stop offset="0.64" stop-color="#ffece1"/><stop offset="1" stop-color="#fcefc5"/></radialGradient></defs><title>google-speaker</title><image width="614" height="834" transform="scale(0.5)" xlink:href="../../Screen%20Shot%202019-09-26%20at%2012.00.03%20AM.png"/><ellipse class="cls-1" cx="150.96" cy="64.11" rx="105.98" ry="39.5" transform="translate(-7.1 20.35) rotate(-7.53)"/><path class="cls-2" d="M255.5,49.5l15,199s-75,129-238,0l14-179s-1,31,105,26c0,0,94-9,104-46,0,0,5.82-31-105.84-26.24a97.41,97.41,0,0,0-11.3,1.14c-20.28,3.23-84.3,15.7-91.86,45.1"/><path class="cls-3" d="M69.5,391.5s-60-17-37-143c0,0,104,26,238,0,0,0,26,112-33,143C237.5,391.5,176.5,406.5,69.5,391.5Z"/><ellipse class="cls-4" cx="155" cy="50.5" rx="3.5" ry="2"/><ellipse class="cls-5" cx="180" cy="60.5" rx="3.5" ry="2"/><ellipse class="cls-6" cx="124" cy="61.5" rx="3.5" ry="2"/><ellipse class="cls-7" cx="146" cy="71.5" rx="3.5" ry="2"/></svg>