<?xml version="1.0" encoding="utf-8"?>
<!-- Generator: Adobe Illustrator 23.0.6, SVG Export Plug-In . SVG Version: 6.00 Build 0)  -->
<svg version="1.1" id="Layer_1" xmlns="http://www.w3.org/2000/svg" xmlns:xlink="http://www.w3.org/1999/xlink" x="0px" y="0px"
	 viewBox="0 0 307 417" style="enable-background:new 0 0 307 417;" xml:space="preserve">
<style type="text/css">
	.st0{fill:none;stroke:#FBC43B;stroke-miterlimit:10;}
	.st1{fill:#F7BD1E;}
	.st2{fill:none;stroke:#F7BD1E;stroke-width:3;stroke-miterlimit:10;}
	.st3{fill:#FFFFFF;stroke:#FBC43B;stroke-width:3.5;stroke-miterlimit:10;}
	.st4{fill:#F9E2AC;stroke:#FBC43B;stroke-width:3.5;stroke-miterlimit:10;}
	.st5{fill:#FBC43B;}
	.st6{fill:#FFBFA9;}
	.st7{fill:none;}
	.st8{fill:none;stroke:#FF05C1;stroke-width:1.75;stroke-miterlimit:10;}
	.st9{fill:#FF05C1;}
	.st10{fill:#F9E2AC;stroke:#F7BD1E;stroke-width:2;stroke-miterlimit:10;}
	.st11{fill:#FF457A;}
	.st12{fill:none;stroke:#FBC43B;stroke-width:2;stroke-miterlimit:10;}
	.st13{fill:none;stroke:#FBC43B;stroke-width:1.9783;stroke-miterlimit:10;}
	.st14{fill:none;stroke:#FBC43B;stroke-width:1.9565;stroke-miterlimit:10;}
	.st15{fill:none;stroke:#FBC43B;stroke-width:1.9348;stroke-miterlimit:10;}
	.st16{fill:none;stroke:#FBC43B;stroke-width:1.913;stroke-miterlimit:10;}
	.st17{fill:none;stroke:#FBC43B;stroke-width:1.8913;stroke-miterlimit:10;}
	.st18{fill:none;stroke:#FBC43B;stroke-width:1.8696;stroke-miterlimit:10;}
	.st19{fill:none;stroke:#FBC43B;stroke-width:1.8478;stroke-miterlimit:10;}
	.st20{fill:none;stroke:#FBC43B;stroke-width:1.8261;stroke-miterlimit:10;}
	.st21{fill:none;stroke:#FBC43B;stroke-width:1.8043;stroke-miterlimit:10;}
	.st22{fill:none;stroke:#FBC43B;stroke-width:1.7826;stroke-miterlimit:10;}
	.st23{fill:none;stroke:#FBC43B;stroke-width:1.7609;stroke-miterlimit:10;}
	.st24{fill:none;stroke:#FBC43B;stroke-width:1.7391;stroke-miterlimit:10;}
	.st25{fill:none;stroke:#FBC43B;stroke-width:1.7174;stroke-miterlimit:10;}
	.st26{fill:none;stroke:#FBC43B;stroke-width:1.6957;stroke-miterlimit:10;}
	.st27{fill:none;stroke:#FBC43B;stroke-width:1.6739;stroke-miterlimit:10;}
	.st28{fill:none;stroke:#FBC43B;stroke-width:1.6522;stroke-miterlimit:10;}
	.st29{fill:none;stroke:#FBC43B;stroke-width:1.6304;stroke-miterlimit:10;}
	.st30{fill:none;stroke:#FBC43B;stroke-width:1.6087;stroke-miterlimit:10;}
	.st31{fill:none;stroke:#FBC43B;stroke-width:1.587;stroke-miterlimit:10;}
	.st32{fill:none;stroke:#FBC43B;stroke-width:1.5652;stroke-miterlimit:10;}
	.st33{fill:none;stroke:#FBC43B;stroke-width:1.5435;stroke-miterlimit:10;}
	.st34{fill:none;stroke:#FBC43B;stroke-width:1.5217;stroke-miterlimit:10;}
	.st35{fill:none;stroke:#FBC43B;stroke-width:1.5;stroke-miterlimit:10;}
	.st36{fill:none;stroke:#FBC43B;stroke-width:1.4783;stroke-miterlimit:10;}
	.st37{fill:none;stroke:#FBC43B;stroke-width:1.4565;stroke-miterlimit:10;}
	.st38{fill:none;stroke:#FBC43B;stroke-width:1.4348;stroke-miterlimit:10;}
	.st39{fill:none;stroke:#FBC43B;stroke-width:1.413;stroke-miterlimit:10;}
	.st40{fill:none;stroke:#FBC43B;stroke-width:1.3913;stroke-miterlimit:10;}
	.st41{fill:none;stroke:#FBC43B;stroke-width:1.3696;stroke-miterlimit:10;}
	.st42{fill:none;stroke:#FBC43B;stroke-width:1.3478;stroke-miterlimit:10;}
	.st43{fill:none;stroke:#FBC43B;stroke-width:1.3261;stroke-miterlimit:10;}
	.st44{fill:none;stroke:#FBC43B;stroke-width:1.3043;stroke-miterlimit:10;}
	.st45{fill:none;stroke:#FBC43B;stroke-width:1.2826;stroke-miterlimit:10;}
	.st46{fill:none;stroke:#FBC43B;stroke-width:1.2609;stroke-miterlimit:10;}
	.st47{fill:none;stroke:#FBC43B;stroke-width:1.2391;stroke-miterlimit:10;}
	.st48{fill:none;stroke:#FBC43B;stroke-width:1.2174;stroke-miterlimit:10;}
	.st49{fill:none;stroke:#FBC43B;stroke-width:1.1957;stroke-miterlimit:10;}
	.st50{fill:none;stroke:#FBC43B;stroke-width:1.1739;stroke-miterlimit:10;}
	.st51{fill:none;stroke:#FBC43B;stroke-width:1.1522;stroke-miterlimit:10;}
	.st52{fill:none;stroke:#FBC43B;stroke-width:1.1304;stroke-miterlimit:10;}
	.st53{fill:none;stroke:#FBC43B;stroke-width:1.1087;stroke-miterlimit:10;}
	.st54{fill:none;stroke:#FBC43B;stroke-width:1.087;stroke-miterlimit:10;}
	.st55{fill:none;stroke:#FBC43B;stroke-width:1.0652;stroke-miterlimit:10;}
	.st56{fill:none;stroke:#FBC43B;stroke-width:1.0435;stroke-miterlimit:10;}
	.st57{fill:none;stroke:#FBC43B;stroke-width:1.0217;stroke-miterlimit:10;}
	.st58{clip-path:url(#SVGID_2_);}
	.st59{fill:none;stroke:#FFD845;stroke-width:2;stroke-miterlimit:10;}
	.st60{fill:none;stroke:#FFD845;stroke-width:1.9783;stroke-miterlimit:10;}
	.st61{fill:none;stroke:#FFD845;stroke-width:1.9565;stroke-miterlimit:10;}
	.st62{fill:none;stroke:#FFD845;stroke-width:1.9348;stroke-miterlimit:10;}
	.st63{fill:none;stroke:#FFD845;stroke-width:1.913;stroke-miterlimit:10;}
	.st64{fill:none;stroke:#FFD845;stroke-width:1.8913;stroke-miterlimit:10;}
	.st65{fill:none;stroke:#FFD845;stroke-width:1.8696;stroke-miterlimit:10;}
	.st66{fill:none;stroke:#FFD845;stroke-width:1.8478;stroke-miterlimit:10;}
	.st67{fill:none;stroke:#FFD845;stroke-width:1.8261;stroke-miterlimit:10;}
	.st68{fill:none;stroke:#FFD845;stroke-width:1.8043;stroke-miterlimit:10;}
	.st69{fill:none;stroke:#FFD845;stroke-width:1.7826;stroke-miterlimit:10;}
	.st70{fill:none;stroke:#FFD845;stroke-width:1.7609;stroke-miterlimit:10;}
	.st71{fill:none;stroke:#FFD845;stroke-width:1.7391;stroke-miterlimit:10;}
	.st72{fill:none;stroke:#FFD845;stroke-width:1.7174;stroke-miterlimit:10;}
	.st73{fill:none;stroke:#FFD845;stroke-width:1.6957;stroke-miterlimit:10;}
	.st74{fill:none;stroke:#FFD845;stroke-width:1.6739;stroke-miterlimit:10;}
	.st75{fill:none;stroke:#FFD845;stroke-width:1.6522;stroke-miterlimit:10;}
	.st76{fill:none;stroke:#FFD845;stroke-width:1.6304;stroke-miterlimit:10;}
	.st77{fill:none;stroke:#FFD845;stroke-width:1.6087;stroke-miterlimit:10;}
	.st78{fill:none;stroke:#FFD845;stroke-width:1.587;stroke-miterlimit:10;}
	.st79{fill:none;stroke:#FFD845;stroke-width:1.5652;stroke-miterlimit:10;}
	.st80{fill:none;stroke:#FFD845;stroke-width:1.5435;stroke-miterlimit:10;}
	.st81{fill:none;stroke:#FFD845;stroke-width:1.5217;stroke-miterlimit:10;}
	.st82{fill:none;stroke:#FFD845;stroke-width:1.5;stroke-miterlimit:10;}
	.st83{fill:none;stroke:#FFD845;stroke-width:1.4783;stroke-miterlimit:10;}
	.st84{fill:none;stroke:#FFD845;stroke-width:1.4565;stroke-miterlimit:10;}
	.st85{fill:none;stroke:#FFD845;stroke-width:1.4348;stroke-miterlimit:10;}
	.st86{fill:none;stroke:#FFD845;stroke-width:1.413;stroke-miterlimit:10;}
	.st87{fill:none;stroke:#FFD845;stroke-width:1.3913;stroke-miterlimit:10;}
	.st88{fill:none;stroke:#FFD845;stroke-width:1.3696;stroke-miterlimit:10;}
	.st89{fill:none;stroke:#FFD845;stroke-width:1.3478;stroke-miterlimit:10;}
	.st90{fill:none;stroke:#FFD845;stroke-width:1.3261;stroke-miterlimit:10;}
	.st91{fill:none;stroke:#FFD845;stroke-width:1.3043;stroke-miterlimit:10;}
	.st92{fill:none;stroke:#FFD845;stroke-width:1.2826;stroke-miterlimit:10;}
	.st93{fill:none;stroke:#FFD845;stroke-width:1.2609;stroke-miterlimit:10;}
	.st94{fill:none;stroke:#FFD845;stroke-width:1.2391;stroke-miterlimit:10;}
	.st95{fill:none;stroke:#FFD845;stroke-width:1.2174;stroke-miterlimit:10;}
	.st96{fill:none;stroke:#FFD845;stroke-width:1.1957;stroke-miterlimit:10;}
	.st97{fill:none;stroke:#FFD845;stroke-width:1.1739;stroke-miterlimit:10;}
	.st98{fill:none;stroke:#FFD845;stroke-width:1.1522;stroke-miterlimit:10;}
	.st99{fill:none;stroke:#FFD845;stroke-width:1.1304;stroke-miterlimit:10;}
	.st100{fill:none;stroke:#FFD845;stroke-width:1.1087;stroke-miterlimit:10;}
	.st101{fill:none;stroke:#FFD845;stroke-width:1.087;stroke-miterlimit:10;}
	.st102{fill:none;stroke:#FFD845;stroke-width:1.0652;stroke-miterlimit:10;}
	.st103{fill:none;stroke:#FFD845;stroke-width:1.0435;stroke-miterlimit:10;}
	.st104{fill:none;stroke:#FFD845;stroke-width:1.0217;stroke-miterlimit:10;}
	.st105{fill:none;stroke:#FFD845;stroke-miterlimit:10;}
	.st106{fill:none;stroke:#F7BD1E;stroke-width:1.5;stroke-miterlimit:10;}
	.st107{fill:none;stroke:#F7BD1E;stroke-width:4;stroke-miterlimit:10;}
	.st108{fill:none;stroke:#F7BD1E;stroke-miterlimit:10;}
	.st109{fill:none;stroke:#F7BD1E;stroke-width:10;stroke-miterlimit:10;}
</style>
<g>
	<path class="st7" d="M190.22,306.65c-7.76,1.47-15.68,2.21-23.76,2.21c-40.4,0-84.63-18.4-131.87-54.91
		C15.27,368.26,66.86,387.47,70.16,388.56c100.84,14.1,161.2,1.26,166.28,0.1c47.55-25.4,36.9-107.82,32.52-132.47
		C259.53,269.14,233.94,298.36,190.22,306.65z"/>
	<path class="st7" d="M54.06,77.08c7.62,7.11,30.38,18.57,97.22,15.42c2.94-0.29,91.78-9.58,101.27-43.61
		c0.03-0.42,0.09-3.23-3.18-6.79c-6.63-7.23-28.4-18.91-99.59-15.85c-3.65,0.16-7.34,0.53-10.96,1.11
		c-39.27,6.26-83.2,20.69-89.31,42.46C49.63,70.63,50.27,73.54,54.06,77.08z"/>
	<path class="st7" d="M267.31,246.05L253.32,60.54c-22.16,29.99-97.99,37.61-101.54,37.95l-0.14,0.01
		c-66.57,3.14-92.34-7.82-102.23-17.57c-0.25-0.25-0.5-0.5-0.73-0.75L35.69,246.15C52.03,249.75,147.98,268.66,267.31,246.05z"/>
	<path class="st7" d="M189.01,300.77c41.09-7.75,65.85-35.76,74.93-47.99c-102.84,18.69-187.89,7.05-219.23,1.29
		C97.44,293.18,145.95,308.9,189.01,300.77z"/>
	<path class="st1" d="M30.12,244.81l3.1,0.78c0.09,0.02,0.94,0.23,2.47,0.56L48.67,80.18c0.23,0.25,0.48,0.5,0.73,0.75
		c9.89,9.75,35.66,20.71,102.23,17.57l0.14-0.01c3.55-0.34,79.38-7.96,101.54-37.95l13.98,185.51c0.87-0.17,1.74-0.32,2.62-0.49
		l2.84-0.55l0.65,2.82c0.01,0.04,0.03,0.12,0.05,0.23L258.51,49.57c0.14-1.5,0.11-5.97-4.28-11.03
		c-15.74-18.15-65.62-19.96-104.7-18.28c-3.88,0.17-7.8,0.56-11.65,1.18c-25.75,4.11-86.48,16.94-94.29,47.32l2.56,0.66l-2.65-0.15
		L29.52,248.13c0.01-0.06,0.02-0.11,0.03-0.17L30.12,244.81z M138.83,27.36c3.62-0.58,7.3-0.95,10.96-1.11
		c71.19-3.06,92.95,8.62,99.59,15.85c3.26,3.56,3.2,6.37,3.18,6.79c-9.5,34.03-98.34,43.32-101.27,43.61
		c-66.84,3.14-89.6-8.31-97.22-15.42c-3.79-3.54-4.43-6.45-4.54-7.26C55.64,48.05,99.57,33.62,138.83,27.36z"/>
	<path class="st1" d="M263.95,252.78c1.73-2.33,2.89-4.09,3.49-5.03l-0.13-1.7c-119.33,22.61-215.28,3.7-231.61,0.1l-0.08,0.98
		c3.05,2.39,6.08,4.7,9.1,6.94C76.06,259.83,161.11,271.47,263.95,252.78z"/>
	<path class="st1" d="M273.47,248.05l0.09,1.15l-0.47,0.8c-0.23,0.4-1.6,2.71-4.14,6.19c4.38,24.65,15.03,107.07-32.52,132.47
		c-5.08,1.15-65.44,14-166.28-0.1c-3.3-1.09-54.89-20.3-35.56-134.62c-1.32-1.02-2.64-2.04-3.96-3.09l-1.25-0.99l0.12-1.59
		l0.01-0.14c-9.64,52.92-6.18,93.52,10.29,120.68c12.59,20.77,28.21,25.39,28.87,25.58l0.4,0.08c35.54,4.98,66.14,6.64,91.16,6.64
		c49.86,0,77.56-6.6,77.97-6.7l0.35-0.09l0.32-0.17c25.14-13.21,39.05-42.84,40.23-85.7C279.97,277.7,274.13,250.96,273.47,248.05z"
		/>
	<path class="st1" d="M29.38,249.86l1.25,0.99c1.32,1.05,2.64,2.07,3.96,3.09c0.1-0.61,0.2-1.21,0.3-1.82
		c2.19,0.47,5.5,1.16,9.81,1.95c-3.02-2.24-6.05-4.54-9.1-6.94l0.08-0.98c-1.53-0.34-2.38-0.54-2.47-0.56l-3.1-0.78l-0.57,3.15
		c-0.01,0.06-0.02,0.11-0.03,0.17l-0.01,0.14L29.38,249.86z"/>
	<path class="st1" d="M272.77,245l-2.84,0.55c-0.88,0.17-1.75,0.33-2.62,0.49l0.13,1.7c-0.6,0.94-1.76,2.7-3.49,5.03
		c1.4-0.26,2.81-0.51,4.22-0.78c0.22,1.11,0.49,2.52,0.79,4.2c2.54-3.48,3.91-5.79,4.14-6.19l0.47-0.8l-0.09-1.15
		c-0.02-0.11-0.04-0.19-0.05-0.23L272.77,245z"/>
	<path class="st1" d="M30,251c0,0-15,119,40,138s142,7,166,0s56-44,34-140C270,249,139,272,30,251z"/>
</g>
<ellipse class="st1" cx="155" cy="50.5" rx="3.5" ry="2"/>
<ellipse class="st1" cx="180" cy="60.5" rx="3.5" ry="2"/>
<ellipse class="st1" cx="124" cy="61.5" rx="3.5" ry="2"/>
<ellipse class="st1" cx="146" cy="71.5" rx="3.5" ry="2"/>
</svg>
