<svg id="Layer_1" data-name="Layer 1" xmlns="http://www.w3.org/2000/svg" viewBox="0 0 705 685"><defs><style>.cls-1,.cls-2{fill:none;}.cls-1{stroke:#f7bd1e;stroke-miterlimit:10;stroke-width:10px;}</style></defs><title>instagram2</title><circle class="cls-1" cx="358.57" cy="364.16" r="91.18"/><ellipse class="cls-2" cx="358.75" cy="362.87" rx="148.43" ry="150.76"/><path class="cls-1" d="M582.51,58.85c-23.92-13.16-51-19.53-78.29-19.53H211.56C36.85,42.05,47.77,203.1,47.77,203.1V495.58c0,27.42,6.58,54.59,20.15,78.43,40.6,71.31,113.61,71.31,113.61,71.31H509.1c71.08-1.42,108.11-36.91,127.27-70.59,13.56-23.84,20.13-51,20.13-78.46v-315C652.24,113,616.13,77.36,582.51,58.85Zm19.22,413.23c0,22.45-5.29,44.69-16.22,64.2C570.08,563.83,540.25,592.86,483,594H219.12s-58.81,0-91.51-58.35c-10.93-19.5-16.23-41.73-16.23-64.17V232.21s-8.8-131.77,131.93-134H479.06a129.08,129.08,0,0,1,63.07,16c27.08,15.14,56.17,44.32,59.6,100.16Z"/><circle class="cls-1" cx="357.62" cy="363.21" r="128.23"/><path class="cls-1" d="M516,151.7a112.78,112.78,0,0,0-54.48-13.6H257.89c-121.58,1.9-114,114-114,114V455.63a110.19,110.19,0,0,0,14,54.57C186.18,559.83,237,559.83,237,559.83H465c49.48-1,75.24-25.68,88.58-49.12a110.29,110.29,0,0,0,14-54.6V236.89C564.57,189.39,539.44,164.58,516,151.7ZM357.62,491.44A128.23,128.23,0,1,1,485.85,363.21,128.23,128.23,0,0,1,357.62,491.44ZM486.8,248.28a29.45,29.45,0,1,1,29.45-29.44A29.44,29.44,0,0,1,486.8,248.28Z"/></svg>