<svg id="Layer_1" data-name="Layer 1" xmlns="http://www.w3.org/2000/svg" viewBox="0 0 705 685"><defs><style>.cls-1{fill:#f7bd1e;}.cls-2{fill:none;}</style></defs><title>instagram</title><circle class="cls-1" cx="356.26" cy="362.85" r="91.18"/><ellipse class="cls-2" cx="356.44" cy="361.55" rx="148.43" ry="150.76"/><path class="cls-1" d="M580.19,57.53C556.28,44.37,529.21,38,501.91,38H209.24C34.54,40.73,45.46,201.78,45.46,201.78V494.26c0,27.42,6.58,54.6,20.15,78.43C106.21,644,179.22,644,179.22,644H506.78c71.09-1.42,108.11-36.91,127.27-70.59,13.57-23.84,20.14-51,20.14-78.45V180C649.92,111.7,613.82,76,580.19,57.53Zm19.23,413.23c0,22.45-5.3,44.69-16.22,64.2-15.44,27.55-45.26,56.59-102.52,57.75H216.81s-58.81,0-91.52-58.35c-10.93-19.5-16.23-41.73-16.23-64.17V230.9S100.27,99.12,241,96.89H476.75a129,129,0,0,1,63.06,16C566.9,128,596,157.19,599.42,213Z"/><circle class="cls-2" cx="355.31" cy="361.9" r="128.23"/><path class="cls-1" d="M513.73,150.38a112.92,112.92,0,0,0-54.48-13.6H255.57c-121.58,1.9-114,114-114,114V454.31a110.25,110.25,0,0,0,14,54.58c28.26,49.62,79.07,49.62,79.07,49.62h228c49.47-1,75.24-25.68,88.57-49.12a110.29,110.29,0,0,0,14-54.6V235.57C562.25,188.08,537.13,163.26,513.73,150.38ZM355.31,490.13A128.23,128.23,0,1,1,483.54,361.9,128.23,128.23,0,0,1,355.31,490.13ZM484.49,247a29.45,29.45,0,1,1,29.44-29.45A29.45,29.45,0,0,1,484.49,247Z"/></svg>