<svg id="Layer_1" data-name="Layer 1" xmlns="http://www.w3.org/2000/svg" viewBox="0 0 166 329"><defs><style>.cls-1{fill:#fff;}.cls-1,.cls-2{stroke:#fbc43b;stroke-miterlimit:10;stroke-width:3.5px;}.cls-2{fill:#f9e2ac;}.cls-3{fill:#fbc43b;}</style></defs><title>iphone2</title><path class="cls-1" d="M9,300c0,7.76,2,28,33,25.39l96.19.17s21.38,0,21.42-25.92l.49-273.31S158.64,6.48,140.32,4.92l-107-.19A25.42,25.42,0,0,0,21.12,7.66c-5,2.67-10.4,7.76-11.86,17.36A28.83,28.83,0,0,0,9,29.37L9,300Z"/><path class="cls-2" d="M18.11,40.49l-.44,243a1.45,1.45,0,0,0,1.45,1.44l129.93.23a1.44,1.44,0,0,0,1.46-1.43s-.21-244.4-1-244.4L19.56,39.06A1.44,1.44,0,0,0,18.11,40.49Z"/><rect class="cls-3" x="125.53" y="-6.63" width="3.82" height="19.09" rx="1.25" transform="translate(130.35 -124.53) rotate(90)"/><rect class="cls-3" x="82.78" y="13.22" width="3.05" height="24.43" rx="1" transform="translate(109.73 -58.87) rotate(90)"/><rect class="cls-3" x="5.67" y="78.11" width="3.05" height="14.51" rx="0.98"/><rect class="cls-3" x="5.67" y="104.07" width="3.05" height="14.51" rx="0.98"/><rect class="cls-3" x="5.67" y="47.57" width="3.05" height="16.8" rx="0.98"/><path class="cls-3" d="M8.72,49.06V62.88a1.49,1.49,0,0,1-1.49,1.49"/><circle class="cls-3" cx="85.07" cy="304.09" r="9.92"/><circle class="cls-3" cx="84.3" cy="19.32" r="1.53"/></svg>