<?xml version="1.0" encoding="utf-8"?>
<!-- Generator: Adobe Illustrator 23.0.6, SVG Export Plug-In . SVG Version: 6.00 Build 0)  -->
<svg version="1.1" id="Layer_1" xmlns="http://www.w3.org/2000/svg" xmlns:xlink="http://www.w3.org/1999/xlink" x="0px" y="0px"
	 viewBox="0 0 1149 595" style="enable-background:new 0 0 1149 595;" xml:space="preserve">
<style type="text/css">
	.st0{fill:none;stroke:#F7BD1E;stroke-width:10;stroke-miterlimit:10;}
	.st1{fill:none;}
	.st2{fill:#F7BD1E;}
</style>
<g>
	<path class="st0" d="M917,491c0,0-25-24-36-26c0,0-30-4-55-58c0,0-10-18-23-65c0,0-3-16-25-54c0,0-20.62-29.35-24.43-56.26
		c-1.09-7.72,0.45-15.65,4.8-22.12C762.5,203.5,769.5,197.5,781,198c0,0,17,0,31,26c0,0,16,24,38,64c0,0,11,21,21,23l1-180l40,23
		c0,0,11,7,17,25l58,193c0,0,4,21,15,32l15.16,17.84"/>
	<path class="st0" d="M232,488c0,0,25-24,36-26c0,0,30-4,55-58c0,0,10-18,23-65c0,0,3-16,25-54c0,0,26-37,25-66c0,0,1-25-28-24
		c0,0-16,0-30.39,22.91c-1.25,1.99-2.32,4.09-3.64,6.04c-5.35,7.96-20.49,31.26-34.98,61.04c0,0-11,21-21,23l-1-180l-40,23
		c0,0-11,7-17,25l-58,193c0,0-4,21-15,32l-15.16,17.84"/>
	<path class="st0" d="M32,535l94-129c0,0,21,41,122,92l-30,42L32,535z"/>
	<path class="st0" d="M921,540l-25-41c0,0,66-20,129-85l93,126H921z"/>
	<path class="st0" d="M277,128V70c0,0,1-15,19-14h556c0,0,19-2,20,15v60"/>
	<path class="st0" d="M871,461.31c0,0,4,22.69-25,22.69H297.6c-0.32,0-0.64,0.01-0.96,0.02c-2.9,0.12-22.71,0.09-23.48-23.85"/>
	<g>
		<polyline class="st0" points="299,285 299,84 848,84 848,283.29 		"/>
	</g>
	<polyline class="st0" points="848,442.3 848,460 299,460 299,441.56 	"/>
	<path class="st0" d="M442,276c0,0,126-149,266,0C708,276,590,421,442,276z"/>
	<circle class="st0" cx="574.5" cy="273.5" r="63.5"/>
</g>
</svg>
