<?xml version="1.0" encoding="utf-8"?>
<!-- Generator: Adobe Illustrator 23.0.6, SVG Export Plug-In . SVG Version: 6.00 Build 0)  -->
<svg version="1.1" id="Layer_1" xmlns="http://www.w3.org/2000/svg" xmlns:xlink="http://www.w3.org/1999/xlink" x="0px" y="0px"
	 viewBox="0 0 870 836" style="enable-background:new 0 0 870 836;" xml:space="preserve">
<style type="text/css">
	.st0{fill:none;stroke:#F7BD1E;stroke-width:10;stroke-miterlimit:10;}
	.st1{fill:none;}
	.st2{fill:#F7BD1E;}
</style>
<g>
	<path class="st1" d="M476.91,440.14c0.84,1.52,8.12,15.33,4.83,31.48c-0.63,7.21-3.06,14.41-8.83,20.05
		c-1.54,1.5-3.37,2.85-5.59,4.13l-0.41,0.24c-5.21,4.5-11.68,8.42-19.4,11.74l-151.48,87.17c5.18,4.71,14.61,12.26,28.34,19.16
		c20.22,10.17,54.17,21,101.08,14.82c3.59-0.47,7.19-0.71,10.77-0.71c10.91,0,21.66,2.18,31.56,6.46l62.67,27.06
		c0.39,0.17,0.77,0.36,1.13,0.58c0.79-1.23,1.58-2.38,2.38-3.56c2.37-3.48,4.81-7.07,8.09-13.51
		c22.64-44.5,33.66-163.45,37.17-209.49l-15.79-6.43c-8.02-3.27-14.4-9.75-17.52-17.79c-2.05-5.28-3.83-11.65-5.29-18.95
		c-10.69-44.36-26.93-111.4-27.88-114.56c-0.14-0.41-0.26-0.83-0.35-1.2c-0.69-2.75-1.62-5.07-2.84-7.08
		c-5.86-9.63-17.82-27.41-32.07-38.26l-0.38-0.29l-0.32-0.36c-0.69-0.77-69.46-78.05-127.71-145.84
		c-4.82-5.61-11.62-8.97-18.65-9.21c-5.15-0.19-9.19,1.23-12.37,4.3c-5.58,5.39-8.53,16.26-8.53,31.42v1.03
		c0.45,2.75,4.04,15.96,32.34,65.49l0.11,0.2l11.26,22.01l21.83,40.73L476.91,440.14z"/>
	<path class="st1" d="M210.32,304.54c-13.91-4.24-26.08-14.04-32.87-28.15c-5.88-12.24-6.7-25.62-3.3-37.77
		c-19.84,21.72-29.63,47.02-32.97,57.1C166.34,303.73,189.45,306.66,210.32,304.54z"/>
	<path class="st1" d="M244.97,292.57c10.55-5.07,18.5-13.95,22.38-25c3.88-11.05,3.22-22.95-1.86-33.5
		c-5.07-10.55-13.95-18.5-25-22.38c-4.75-1.67-9.65-2.49-14.54-2.49c-6.49,0-12.94,1.46-18.96,4.35
		c-21.79,10.47-30.99,36.72-20.52,58.5S223.19,303.04,244.97,292.57z"/>
	<path class="st1" d="M89.96,345.28l-0.68,0.16c-0.98,0.22-11.25,2.98-10.89,23.28c0.24,13.33,9.24,24.85,21.88,28.02
		c0.42,0.1,0.85,0.21,1.29,0.3c1.8,0.39,3.9,0.87,6.01,1.48c7.11,2.06,31.37,8.07,46.8-0.48l-29.35-54.75
		C115.87,342.13,102.32,341.52,89.96,345.28z"/>
	<path class="st1" d="M209.01,501.07c-1.24,0.08-2.53,0.21-3.83,0.38l-0.51,0.04c-0.91,0.04-20.12,0.99-22.61,18.08
		c-0.93,6.41,0.9,13.22,5.03,18.68c6.82,9.01,15.44,12.46,25.62,10.26c6.99-1.51,12.87-5.18,16.76-10.39l-19.87-37.07
		C209.4,501.06,209.2,501.06,209.01,501.07z"/>
	<path class="st1" d="M215.41,440.61c-0.4-1.86-1.17-3.46-2.29-4.78c-3.23-3.8-12.07-10.86-32.71-10.39l23.43,43.7
		C211.8,462.67,218.16,453.32,215.41,440.61z"/>
	<path class="st1" d="M219.58,23.78c-0.79,0.37-1.61,0.81-2.47,1.28c-1.04,0.57-2.12,1.16-3.3,1.69l-11.66,5.3
		C163.25,49.74,59.93,96.71,38.5,106.08c-10.05,4.4-14.38,12.21-13.24,23.88c0.49,4.96,2.02,9.88,4.56,14.61l101.63,189.56
		c2.57,0.44,4.62,0.88,5.96,1.2c0.88,0.21,1.78,0.36,2.54,0.48c15.02,2.38,25.76,8.45,31.93,18.04c8.59,13.36,4.82,28.54,4.46,29.91
		c-1.72,6.84-4.79,12.53-9.17,17l8,14.92c27.3-1.94,40.04,7.18,45.56,13.67c2.17,2.55,3.71,5.71,4.45,9.14
		c3.28,15.14-2.58,28.95-16.55,39.59l7.16,13.35c7.05,1.1,13.65,4.39,18.79,9.5c6.64,6.6,10.16,15.69,9.64,24.92
		c-0.25,4.38-1.34,8.58-3.26,12.53l15.91,29.67c12.21,20.99,23.54,21.86,27.86,21.26l176.28-101.44c4.79-4.31,8.13-9.17,9.94-14.55
		c0.32-0.96,0.59-1.92,0.81-2.86c0.91-11.83-4.32-24.72-4.79-25.85L344.33,204.83L266.09,58.86
		C242.3,13.18,225.2,21.16,219.58,23.78z M324.19,211.46l0.02,0.01c-0.59,2.45-14.96,60.37-66.39,88.75
		c-18.12,10-38.47,15.01-60.88,15.01c-19.65,0-40.89-3.85-63.58-11.55l0.01-0.02c-2.46-0.83-3.9-3.42-3.24-5.97
		c0.69-2.64,17.41-65.05,71.4-92.76c33.55-17.22,73.8-16.98,119.63,0.71C323.51,206.55,324.77,209.07,324.19,211.46z"/>
	<path class="st1" d="M156.03,428.72c-1.54,0.35-3.04,0.62-4.5,0.88c-6.08,1.09-14.12,3.88-17.92,11c-4,7.49-2.83,18.56,3.46,32.89
		l0.18,0.45c0.5,1.11,7.57,15.11,43.89,6.34c5.2-1.26,10.01-3.12,14.34-5.53l-25.97-48.44
		C165.39,426.83,160.91,427.62,156.03,428.72z"/>
	<path class="st1" d="M227.53,508.03c-1.46-1.45-3.09-2.69-4.83-3.71l11.5,21.44c0.01-0.16,0.03-0.31,0.04-0.47
		C234.59,518.82,232.21,512.69,227.53,508.03z"/>
	<path class="st1" d="M166.68,381.16c0.03-0.1,3.15-12.1-3.26-21.98c-4.57-7.04-12.99-11.58-25.03-13.49
		c-0.25-0.04-0.53-0.09-0.82-0.14l24.53,45.76c2.06-2.79,3.57-6.11,4.54-10.03L166.68,381.16z"/>
	<path class="st1" d="M590.07,424.42c-0.95,14.07-3.54,48.79-8.23,87.31c-8.2,67.43-18.59,113.88-30.88,138.04
		c-3.57,7.01-6.31,11.04-8.73,14.6c-2,2.94-3.75,5.51-5.77,9.42c-0.17,0.68-0.41,1.35-0.72,2c-2.67,5.6-8.08,15.92-16.35,26.82
		l186.19,85.06l99.57-287.11L590.07,424.42z"/>
	<path class="st1" d="M48.41,225.5l-0.07,0c-0.01,0-0.05,0-0.1,0c-1.1,0-10.46,0.19-16.95,6.52c-4.51,4.4-6.79,10.95-6.79,19.48
		l-0.03,0.51c-0.09,0.98-1.85,24.93,31.3,33.65c22.01,5.79,34.28,5.57,40.25,4.67L61.3,225.5L48.41,225.5z"/>
	<path class="st1" d="M274.5,229.73c6.23,12.96,7.04,27.57,2.28,41.14c-0.55,1.58-1.18,3.12-1.87,4.62
		c24.18-22.51,34.99-51.43,38.35-62.13c-24.7-8.99-47.52-12.54-68.27-10.66C258.01,207.62,268.46,217.16,274.5,229.73z"/>
	<path class="st2" d="M461.01,487.89l1.33-0.76c1.49-0.86,2.66-1.71,3.59-2.62c3.81-3.71,5.43-8.77,5.83-14.03
		c-0.22,0.95-0.49,1.9-0.81,2.86C469.13,478.72,465.8,483.58,461.01,487.89z"/>
	<path class="st2" d="M476.13,440.6c0.99,2.29,6.87,16.68,5.62,31.02c3.28-16.15-3.99-29.96-4.83-31.48L375.04,240.96l-21.83-40.73
		l122.71,239.93C475.99,440.29,476.05,440.43,476.13,440.6z"/>
	<path class="st2" d="M466.91,496.03l-171.27,98.55c0.12,0.11,0.26,0.24,0.39,0.35l151.48-87.17
		C455.23,504.46,461.7,500.53,466.91,496.03z"/>
	<path class="st2" d="M279.8,592.16l4.93-2.84c-4.32,0.6-15.65-0.27-27.86-21.26l-15.91-29.67c-0.6,1.24-1.28,2.46-2.04,3.66
		c-1.28,1.99-2.75,3.84-4.38,5.52l13.56,25.3l0.08,0.15c12.96,22.33,26.51,26.41,34.7,26.41c1.16,0,2.21-0.08,3.13-0.21
		c-1.43-1.44-2.2-2.34-2.32-2.48L279.8,592.16z"/>
	<path class="st2" d="M167.17,400.76c-2.17,2.22-4.65,4.14-7.45,5.75c-0.21,0.12-0.42,0.23-0.63,0.34l5.4,10.07
		c3.78-0.59,7.35-1,10.68-1.24L167.17,400.76z"/>
	<path class="st2" d="M215.79,491.44l-7.16-13.35c-2.31,1.76-4.84,3.44-7.59,5.01c-0.27,0.16-0.55,0.3-0.83,0.45l4.24,7.91
		c1.33-0.17,2.65-0.3,3.93-0.38C210.88,490.93,213.36,491.06,215.79,491.44z"/>
	<path class="st2" d="M29.82,144.57c-2.54-4.73-4.07-9.65-4.56-14.61c-1.14-11.67,3.19-19.48,13.24-23.88
		c21.43-9.38,124.75-56.34,163.65-74.02l11.66-5.3c1.18-0.54,2.26-1.13,3.3-1.69c0.86-0.47,1.67-0.91,2.47-1.28
		c5.62-2.62,22.71-10.6,46.51,35.08l78.23,145.97l-11.23-21.95c-31.25-54.7-34.15-67.81-33.6-71.97c0.02-3.52,0.19-6.83,0.5-9.95
		l-25.06-46.76c-18.71-35.91-38.75-49.2-59.58-39.47c-1.08,0.5-2.07,1.04-3.02,1.56c-0.92,0.5-1.8,0.98-2.65,1.37l-11.67,5.3
		C162.85,38.94,55.86,87.57,34.5,96.92c-13.93,6.09-20.74,18.17-19.18,34.02c0.62,6.28,2.53,12.46,5.69,18.36l35.49,66.2l10.79,0
		l42.59,79.54l-3.81,2.51c-0.59,0.39-2.01,1.18-4.57,1.89l17.81,33.23c4.7,0.33,8.85,0.9,12.13,1.47L29.82,144.57z"/>
	<path class="st2" d="M286.35,588.97l156.68-90.15l0.27-0.12c7.22-3.08,13.13-6.69,17.7-10.8L284.73,589.33
		C285.51,589.22,286.07,589.06,286.35,588.97z"/>
	<path class="st2" d="M471.76,470.47c3.12-13.44-3.53-25.37-3.61-25.5l-0.11-0.2L366.18,245.6l-21.85-40.77l122.64,239.79
		C467.44,445.75,472.67,458.65,471.76,470.47z M467.03,444.75c-0.01-0.02-0.02-0.04-0.03-0.05
		C467.02,444.71,467.02,444.73,467.03,444.75z M466.94,444.54C466.94,444.55,466.94,444.55,466.94,444.54
		C466.94,444.55,466.94,444.55,466.94,444.54z"/>
	<path class="st2" d="M580.89,410.57l-0.38,6.65c-0.01,0.22-0.18,3.09-0.53,8.05l-12.78-5.21c-5.48-2.23-9.84-6.66-11.97-12.14
		c-1.85-4.77-3.47-10.62-4.83-17.39l-0.04-0.19c-4.52-18.74-27.1-112.36-28.12-115.41c-0.06-0.2-0.12-0.37-0.16-0.52
		c-0.94-3.74-2.24-6.97-4-9.85c-6.18-10.15-18.79-28.85-34.17-40.72c-5.13-5.77-71.11-79.98-127.28-145.35
		c-6.63-7.72-16.07-12.35-25.89-12.69c-7.77-0.27-14.57,2.19-19.66,7.1c-6.11,5.9-9.82,15.32-11.09,28.07l53.21,99.28l-11.26-22.01
		l-0.11-0.2c-28.3-49.53-31.89-62.74-32.34-65.49v-1.03c0-15.17,2.95-26.03,8.53-31.42c3.18-3.07,7.22-4.49,12.37-4.3
		c7.03,0.25,13.83,3.6,18.65,9.21c58.26,67.79,127.03,145.07,127.71,145.84l0.32,0.36l0.38,0.29
		c14.25,10.86,26.21,28.63,32.07,38.26c1.22,2.01,2.15,4.33,2.84,7.08c0.09,0.37,0.21,0.79,0.35,1.2
		c0.95,3.16,17.19,70.2,27.88,114.56c1.46,7.29,3.24,13.67,5.29,18.95c3.12,8.04,9.5,14.52,17.52,17.79l15.79,6.43
		c-3.51,46.04-14.53,164.99-37.17,209.49c-3.28,6.44-5.72,10.04-8.09,13.51c-0.8,1.18-1.59,2.33-2.38,3.56
		c-0.36-0.21-0.74-0.41-1.13-0.58l-62.67-27.06c-9.91-4.28-20.65-6.46-31.56-6.46c-3.58,0-7.18,0.24-10.77,0.71
		c-46.91,6.18-80.85-4.65-101.08-14.82c-13.73-6.9-23.16-14.45-28.34-19.16l-5.26,3.02l-0.24,0.11c-0.24,0.1-1.87,0.8-4.52,1.15
		c4.49,4.53,15.5,14.49,33.36,23.56c17.22,8.74,43.75,17.95,79.08,17.95c8.88,0,18.31-0.58,28.29-1.9
		c12.75-1.68,25.56,0.06,37.06,5.02l62.67,27.06c0.12,0.05,0.2,0.14,0.25,0.26c0.06,0.17,0.01,0.29-0.01,0.33
		c-2.88,6.05-9.18,17.96-19.05,29.8l-4.19,5.03l207.95,95l106.43-306.89L580.89,410.57z M705.58,787.67l-186.19-85.06
		c8.27-10.9,13.68-21.21,16.35-26.82c0.31-0.65,0.55-1.32,0.72-2c2.02-3.91,3.77-6.48,5.77-9.42c2.42-3.56,5.17-7.6,8.73-14.6
		c12.29-24.16,22.68-70.6,30.88-138.04c4.68-38.52,7.27-73.24,8.23-87.31l215.08,76.14L705.58,787.67z"/>
	<path class="st2" d="M472.91,491.67c5.78-5.63,8.2-12.83,8.83-20.05c-0.33,1.62-0.76,3.26-1.32,4.91
		c-2.48,7.37-7.01,13.88-13.52,19.5l0.41-0.24C469.54,494.52,471.37,493.17,472.91,491.67z"/>
	<path class="st2" d="M290.77,597.96l5.26-3.02c-0.13-0.12-0.27-0.24-0.39-0.35l171.27-98.55c6.5-5.62,11.03-12.13,13.52-19.5
		c0.56-1.65,0.99-3.3,1.32-4.91c1.25-14.34-4.63-28.73-5.62-31.02c-0.07-0.17-0.14-0.32-0.21-0.44L353.21,200.23L300,100.95
		c-0.31,3.12-0.48,6.43-0.5,9.95c-0.55,4.16,2.35,17.27,33.6,71.97l11.23,21.95l21.85,40.77l101.87,199.18l0.11,0.2
		c0.07,0.13,6.73,12.06,3.61,25.5c-0.41,5.27-2.03,10.32-5.83,14.03c-0.93,0.91-2.11,1.76-3.59,2.62l-1.33,0.76
		c-4.57,4.11-10.48,7.72-17.7,10.8l-0.27,0.12l-156.68,90.15c-0.29,0.09-0.84,0.25-1.63,0.36l-4.93,2.84l3.89,4.58
		c0.12,0.14,0.89,1.04,2.32,2.48c2.64-0.35,4.28-1.04,4.52-1.15L290.77,597.96z"/>
	<path class="st2" d="M48.56,215.5c-1.45-0.02-14.53-0.03-24.15,9.26c-6.54,6.32-9.87,15.25-9.91,26.54
		c-0.12,1.65-0.38,9.35,3.73,18.08c4.1,8.72,13.51,20.3,35,25.96c16.04,4.22,27.55,5.54,35.67,5.54c5.81,0,9.86-0.67,12.6-1.43
		l-45-83.94L48.56,215.5z M55.77,285.66c-33.14-8.72-31.39-32.67-31.3-33.65l0.03-0.51c0-8.53,2.29-15.08,6.79-19.48
		c6.49-6.33,15.85-6.52,16.95-6.52c0.05,0,0.09,0,0.1,0l0.07,0l12.89,0l34.72,64.83C90.05,291.24,77.79,291.46,55.77,285.66z"/>
	<path class="st2" d="M109.88,295.04L67.29,215.5l-10.79,0l45,83.94c2.56-0.71,3.98-1.5,4.57-1.89L109.88,295.04z"/>
	<path class="st2" d="M171.88,353.85c-6.16-9.59-16.9-15.66-31.93-18.04c-0.76-0.12-1.66-0.27-2.54-0.48
		c-1.34-0.31-3.39-0.75-5.96-1.2l6.12,11.42c0.29,0.05,0.57,0.1,0.82,0.14c12.04,1.91,20.46,6.45,25.03,13.49
		c6.41,9.89,3.29,21.88,3.26,21.98l-0.03,0.13c-0.98,3.91-2.49,7.23-4.54,10.03l5.07,9.45c4.37-4.47,7.45-10.16,9.17-17
		C176.7,382.39,180.47,367.21,171.88,353.85z"/>
	<path class="st2" d="M107.57,398.53c-2.11-0.61-4.21-1.09-6.01-1.48c-0.44-0.1-0.86-0.2-1.29-0.3
		c-12.65-3.17-21.65-14.69-21.88-28.02c-0.36-20.3,9.91-23.07,10.89-23.28l0.68-0.16c12.36-3.76,25.91-3.15,35.06-1.99l-5.7-10.63
		c-9.4-0.66-20.97-0.34-32.04,2.98c-3.1,0.67-19.38,5.51-18.89,33.26c0.32,17.84,12.43,33.27,29.45,37.54
		c0.51,0.13,1.04,0.25,1.57,0.37c1.64,0.36,3.55,0.79,5.37,1.32c5.95,1.73,17.07,4.39,28.92,4.39c8.65,0,17.68-1.43,25.39-5.67
		l-4.73-8.81C138.94,406.6,114.68,400.59,107.57,398.53z"/>
	<path class="st2" d="M135.13,345.07c0.86,0.2,1.7,0.36,2.44,0.48l-6.12-11.42c-3.29-0.57-7.44-1.14-12.13-1.47l5.7,10.63
		C129.98,343.93,133.66,344.72,135.13,345.07z"/>
	<path class="st2" d="M167.17,400.76l-5.07-9.45c-1.95,2.65-4.39,4.82-7.37,6.53c-0.12,0.07-0.25,0.13-0.37,0.2l4.73,8.81
		c0.21-0.11,0.42-0.22,0.63-0.34C162.52,404.9,165,402.98,167.17,400.76z"/>
	<path class="st2" d="M181.15,480.27c-36.32,8.78-43.4-5.23-43.89-6.34l-0.18-0.45c-6.29-14.33-7.46-25.4-3.46-32.89
		c3.8-7.12,11.84-9.91,17.92-11c1.46-0.26,2.96-0.53,4.5-0.88c4.88-1.1,9.36-1.89,13.48-2.42l-5.03-9.38
		c-3.37,0.53-6.92,1.2-10.66,2.05h0c-1.32,0.3-2.71,0.55-4.06,0.79c-8.26,1.48-19.29,5.48-24.98,16.13
		c-5.5,10.31-4.46,24.27,3.07,41.49c0.96,2.49,7.23,15.75,32.1,15.75c6.5,0,14.26-0.91,23.53-3.14c6.02-1.46,11.64-3.62,16.72-6.44
		l-4.72-8.81C191.16,477.15,186.34,479.02,181.15,480.27z"/>
	<path class="st2" d="M225.18,438.5c-0.74-3.43-2.28-6.6-4.45-9.14c-5.53-6.49-18.27-15.61-45.56-13.67l5.24,9.76
		c20.64-0.47,29.48,6.59,32.71,10.39c1.12,1.31,1.89,2.92,2.29,4.78c2.75,12.71-3.61,22.05-11.58,28.53l4.8,8.95
		C222.6,467.45,228.46,453.64,225.18,438.5z"/>
	<path class="st2" d="M180.41,425.45l-5.24-9.76c-3.34,0.24-6.9,0.65-10.68,1.24l5.03,9.38
		C173.47,425.79,177.09,425.52,180.41,425.45z"/>
	<path class="st2" d="M208.63,478.09l-4.8-8.95c-2.51,2.04-5.17,3.8-7.77,5.29c-0.19,0.11-0.39,0.21-0.58,0.32l4.72,8.81
		c0.27-0.15,0.55-0.3,0.83-0.45C203.79,481.53,206.32,479.85,208.63,478.09z"/>
	<path class="st2" d="M212.71,548.51c-10.19,2.21-18.8-1.25-25.62-10.26c-4.13-5.46-5.96-12.26-5.03-18.68
		c2.49-17.09,21.7-18.04,22.61-18.08l0.51-0.04c1.3-0.18,2.59-0.31,3.83-0.38c0.2-0.01,0.39-0.01,0.58-0.02l-5.14-9.58
		c-0.13,0.02-0.25,0.03-0.38,0.04c-9.92,0.4-28.98,6.42-31.92,26.62c-1.32,9.04,1.22,18.58,6.95,26.15
		c7.37,9.74,17.08,14.86,27.9,14.86c2.55,0,5.16-0.28,7.82-0.86c7.77-1.68,14.57-5.41,19.71-10.72l-5.07-9.45
		C225.57,543.33,219.69,547,212.71,548.51z"/>
	<path class="st2" d="M234.58,500.94c-5.14-5.11-11.74-8.4-18.79-9.5l6.91,12.88c1.75,1.02,3.38,2.26,4.83,3.71
		c4.69,4.66,7.07,10.79,6.7,17.27c-0.01,0.16-0.03,0.31-0.04,0.47l6.77,12.63c1.91-3.95,3.01-8.15,3.26-12.53
		C244.73,516.62,241.22,507.54,234.58,500.94z"/>
	<path class="st2" d="M240.96,538.39l-6.77-12.63c-0.29,3.85-1.53,7.51-3.69,10.89c-0.32,0.5-0.67,0.99-1.03,1.47l5.07,9.45
		c1.63-1.69,3.11-3.53,4.38-5.52C239.68,540.85,240.36,539.63,240.96,538.39z"/>
	<path class="st2" d="M222.69,504.32l-6.91-12.88c-2.43-0.38-4.91-0.5-7.4-0.35c-1.28,0.08-2.6,0.21-3.93,0.38l5.14,9.58
		C214.22,500.87,218.76,502.03,222.69,504.32z"/>
	<path class="st2" d="M317.55,214.97c-1.43-0.55-2.86-1.09-4.28-1.6c-3.36,10.7-14.18,39.61-38.35,62.13
		c-5.21,11.42-14.16,20.58-25.61,26.09c-7.5,3.6-15.43,5.31-23.24,5.31c-5.36,0-10.67-0.81-15.74-2.36
		c-20.87,2.12-43.98-0.81-69.14-8.82c-0.91,2.76-1.35,4.38-1.38,4.48c-0.58,2.25-2.61,3.75-4.84,3.75c-0.42,0-0.84-0.05-1.26-0.16
		c-0.12-0.03-0.23-0.09-0.34-0.13l-0.01,0.02c22.7,7.7,43.93,11.55,63.58,11.55c22.41,0,42.76-5,60.88-15.01
		c51.43-28.39,65.8-86.3,66.39-88.75l-0.02-0.01c-0.05,0.21-0.09,0.43-0.18,0.64C323.02,214.68,320.12,215.96,317.55,214.97z"/>
	<path class="st2" d="M201.52,204.93c-53.99,27.71-70.71,90.12-71.4,92.76c-0.66,2.55,0.78,5.13,3.24,5.97l3.21-9.45
		c1.54,0.52,3.08,1.03,4.61,1.51c3.34-10.08,13.13-35.38,32.97-57.1c4.03-14.42,13.98-27.1,28.5-34.08
		c12.96-6.23,27.57-7.04,41.14-2.28c0.41,0.14,0.8,0.3,1.21,0.46c20.75-1.88,43.57,1.67,68.27,10.66c0.82-2.6,1.2-4.13,1.22-4.22
		l9.7,2.32c0.58-2.4-0.68-4.91-3.04-5.82C275.32,187.95,235.07,187.71,201.52,204.93z"/>
	<path class="st2" d="M313.27,213.37c1.42,0.52,2.85,1.05,4.28,1.6c2.57,0.99,5.47-0.29,6.47-2.86c0.08-0.21,0.12-0.43,0.18-0.64
		l-9.7-2.32C314.46,209.23,314.08,210.76,313.27,213.37z"/>
	<path class="st2" d="M134.97,303.95c2.22,0,4.25-1.49,4.84-3.75c0.03-0.1,0.46-1.72,1.38-4.48c-1.53-0.49-3.06-0.99-4.61-1.51
		l-3.21,9.45c0.12,0.04,0.22,0.1,0.34,0.13C134.13,303.9,134.55,303.95,134.97,303.95z"/>
	<path class="st2" d="M177.45,276.39c6.78,14.11,18.96,23.92,32.87,28.15c15.48-1.58,29.73-5.93,42.67-13.07
		c8.3-4.58,15.58-10.06,21.93-15.97c0.69-1.5,1.31-3.04,1.87-4.62c4.76-13.57,3.95-28.18-2.28-41.14
		c-6.04-12.57-16.49-22.12-29.5-27.02c-13.92,1.26-26.92,4.96-38.91,11.12c-12.75,6.55-23.3,15.33-31.94,24.79
		C170.76,250.77,171.57,264.15,177.45,276.39z M206.98,213.55c6.02-2.89,12.47-4.35,18.96-4.35c4.89,0,9.79,0.83,14.54,2.49
		c11.05,3.88,19.93,11.82,25,22.38c5.07,10.55,5.73,22.45,1.86,33.5c-3.88,11.05-11.82,19.93-22.38,25
		c-21.79,10.47-48.03,1.27-58.5-20.52S185.2,224.02,206.98,213.55z"/>
	<path class="st2" d="M210.32,304.54c5.07,1.55,10.38,2.36,15.74,2.36c7.81,0,15.74-1.71,23.24-5.31
		c11.45-5.51,20.4-14.67,25.61-26.09c-6.35,5.92-13.62,11.39-21.93,15.97C240.05,298.61,225.8,302.96,210.32,304.54z"/>
	<path class="st2" d="M206.09,213.83c11.99-6.16,24.99-9.86,38.91-11.12c-0.4-0.15-0.8-0.31-1.21-0.46
		c-13.57-4.76-28.18-3.95-41.14,2.28c-14.52,6.98-24.47,19.67-28.5,34.08C182.79,229.16,193.34,220.38,206.09,213.83z"/>
</g>
</svg>
