<?xml version="1.0" encoding="utf-8"?>
<!-- Generator: Adobe Illustrator 23.0.6, SVG Export Plug-In . SVG Version: 6.00 Build 0)  -->
<svg version="1.1" id="Layer_1" xmlns="http://www.w3.org/2000/svg" xmlns:xlink="http://www.w3.org/1999/xlink" x="0px" y="0px"
	 viewBox="0 0 530 1080" style="enable-background:new 0 0 530 1080;" xml:space="preserve">
<style type="text/css">
	.st0{stroke:#000000;stroke-width:6;stroke-miterlimit:10;}
	.st1{fill:#FBE5C1;stroke:#2E3192;stroke-width:6;stroke-miterlimit:10;}
	.st2{fill:#CACACA;}
	.st3{fill:#96ADE2;stroke:#2E3192;stroke-width:6;stroke-miterlimit:10;}
	.st4{fill:#FB6B3B;stroke:#2E3192;stroke-width:6;stroke-miterlimit:10;}
	.st5{fill:#CACACA;stroke:#2E3192;stroke-width:6;stroke-miterlimit:10;}
	.st6{fill:#FBE5C1;}
	.st7{fill:#2E3192;}
	.st8{fill:#96ADE2;}
	.st9{fill:#FB6B3B;}
</style>
<g>
	<g>
		<path class="st6" d="M166.97,543.15L89.65,756.65c-1.66,4.59,1.74,9.45,6.63,9.45h359.45c6.02,0,10.28-5.89,8.4-11.61
			l-69.59-211.33H166.97z"/>
		<path class="st7" d="M455.72,773.44H96.27c-4.69,0-9.09-2.29-11.78-6.13c-2.69-3.84-3.34-8.76-1.74-13.16l79.08-218.33h238.03
			l71.25,216.38c1.62,4.92,0.77,10.36-2.26,14.55C465.8,770.93,460.9,773.44,455.72,773.44z M96.69,758.75h359.03
			c0.63,0,1.01-0.34,1.22-0.62s0.41-0.75,0.21-1.35l-67.92-206.29h-217.1L96.69,758.75z"/>
	</g>
	<g>
		<path class="st8" d="M280.75,766.1c-62.84,0-113.78-50.94-113.78-113.78V359.9c0,0,2.38-66.72,44.77-171.94
			c1.06-2.64,2.04-5.32,2.91-8.03c7.27-22.67,46.64-137.59,82.01-86.74c0,0,32.15,45.93,49.73,95.52c1.03,2.9,2.11,5.76,3.35,8.58
			c7.13,16.18,34.67,82.38,44.03,158.49c0.54,4.37,0.76,8.78,0.76,13.19v283.35C394.54,715.15,343.6,766.1,280.75,766.1
			L280.75,766.1z"/>
		<path class="st7" d="M280.76,773.44c-66.79,0-121.12-54.34-121.12-121.12l0-292.67c0.1-2.78,2.92-69.21,45.3-174.42
			c1.01-2.52,1.93-5.06,2.73-7.53c9.57-29.84,35.21-99.75,66.41-104.42c7.31-1.1,18.19,0.75,28.61,15.74
			c1.32,1.89,32.91,47.31,50.62,97.26c1.14,3.19,2.14,5.76,3.15,8.07c8.09,18.37,35.22,84.26,44.6,160.55
			c0.55,4.46,0.81,9.07,0.81,14.08v283.35C401.88,719.1,347.54,773.44,280.76,773.44z M174.31,360.06v292.25
			c0,58.69,47.75,106.44,106.44,106.44S387.2,711,387.2,652.31V368.97c0-4.41-0.23-8.43-0.7-12.29
			c-9.14-74.3-35.58-138.52-43.47-156.43c-1.17-2.65-2.29-5.54-3.55-9.08c-17.05-48.09-48.51-93.31-48.83-93.76
			c-7.41-10.66-12.67-9.87-14.39-9.62c-12.72,1.91-34.54,31.83-54.61,94.39c-0.9,2.81-1.94,5.68-3.09,8.53
			C178.03,291.29,174.46,356.95,174.31,360.06z"/>
	</g>
	<g>
		<path class="st6" d="M149.84,751.52v-63.84c0-8.05,6.52-14.57,14.57-14.57H392.2c8.05,0,14.57,6.52,14.57,14.57v63.84
			c0,8.05-6.52,14.57-14.57,14.57H164.41C156.37,766.1,149.84,759.57,149.84,751.52z"/>
		<path class="st7" d="M392.2,773.44H164.41c-12.08,0-21.91-9.83-21.91-21.91v-63.84c0-12.08,9.83-21.91,21.91-21.91H392.2
			c12.08,0,21.91,9.83,21.91,21.91v63.84C414.11,763.61,404.28,773.44,392.2,773.44z M164.41,680.45c-3.99,0-7.23,3.24-7.23,7.23
			v63.84c0,3.99,3.24,7.23,7.23,7.23H392.2c3.99,0,7.23-3.24,7.23-7.23v-63.84c0-3.99-3.24-7.23-7.23-7.23H164.41z"/>
	</g>
	<g>
		<path class="st6" d="M253.59,762.39h42.15V570.77c0-9.3-4.09-18.33-11.62-23.78c-5.94-4.3-14.37-6.01-21.98,1.07
			c-6.11,5.68-9.51,13.69-9.47,22.03L253.59,762.39z"/>
		<path class="st7" d="M303.07,769.73h-56.79l-0.96-199.61c-0.05-10.42,4.25-20.42,11.81-27.44c9.06-8.42,21.05-9.05,31.28-1.64
			c9.18,6.65,14.66,17.76,14.66,29.73V769.73z M260.89,755.05h27.5V570.77c0-7.28-3.21-13.95-8.59-17.84
			c-4.53-3.28-8.8-3.11-12.68,0.5c-4.56,4.24-7.16,10.29-7.13,16.61L260.89,755.05z"/>
	</g>
	<g>
		<path class="st8" d="M202.74,769.38l-23.02,40.94c-2.42,4.3,0.69,9.61,5.62,9.61h181.15c4.91,0,8.02-5.26,5.65-9.56l-22.57-40.94
			c-1.13-2.06-3.3-3.34-5.65-3.34H208.36C206.03,766.1,203.89,767.35,202.74,769.38z"/>
		<path class="st7" d="M366.49,827.27H185.34c-4.95,0-9.4-2.55-11.9-6.83c-2.5-4.27-2.54-9.41-0.11-13.72l23.02-40.94
			c2.44-4.34,7.04-7.03,12.02-7.03h135.56c5.03,0,9.65,2.73,12.08,7.14l22.57,40.93c2.38,4.32,2.3,9.42-0.2,13.67
			C375.86,824.73,371.42,827.27,366.49,827.27z M186.87,812.59h178.11l-21.59-39.15H208.89L186.87,812.59z"/>
	</g>
	<g>
		<path class="st9" d="M233.99,920.57c-10.98-20.4-7.48-46.04,9.57-61.72c8.21-7.55,19.53-12.86,35.06-12c0,0,25.11,1.4,38.92,23.4
			c9.26,14.76,9.6,33.46,1.97,49.13l-38.18,78.49c-1.13,2.33-4.42,2.4-5.65,0.12L233.99,920.57z"/>
		<path class="st7" d="M278.46,1007c-3.88,0-7.41-2.11-9.25-5.53l-41.68-77.42c-12.81-23.79-8.26-52.82,11.06-70.6
			c10.99-10.12,24.62-14.8,40.43-13.92c1.18,0.06,29.09,1.89,44.74,26.83c10.32,16.45,11.23,38,2.36,56.25l-38.19,78.49
			c-1.73,3.57-5.28,5.83-9.25,5.91C278.61,1007,278.54,1007,278.46,1007z M240.45,917.09l37.83,70.26l34.63-71.17
			c6.67-13.72,6.06-29.82-1.59-42.02c-11.53-18.38-32.27-19.92-33.15-19.98c-11.72-0.62-21.68,2.74-29.65,10.07
			C234.14,877.48,230.82,899.21,240.45,917.09L240.45,917.09z"/>
	</g>
	<g>
		<circle class="st6" cx="278.31" cy="392.94" r="52.61"/>
		<path class="st7" d="M278.31,452.89c-33.06,0-59.95-26.89-59.95-59.95s26.89-59.95,59.95-59.95s59.95,26.89,59.95,59.95
			S311.37,452.89,278.31,452.89z M278.31,347.67c-24.96,0-45.27,20.31-45.27,45.27c0,24.96,20.31,45.27,45.27,45.27
			c24.96,0,45.27-20.31,45.27-45.27C323.58,367.98,303.27,347.67,278.31,347.67z"/>
	</g>
	<g>
		<rect x="198.78" y="215.53" class="st7" width="161.99" height="14.68"/>
	</g>
	<g>
		<path class="st8" d="M218.71,171.84l7.48-16.86c0.64-1.45,2.27-2.42,4.11-2.46l31.11-0.61c2.97-0.06,5.18,2.27,4.46,4.69
			l-5.07,17.05c-0.49,1.66-2.26,2.83-4.29,2.86l-33.52,0.42C219.82,176.97,217.6,174.33,218.71,171.84z"/>
		<path class="st7" d="M222.92,184.27c-4.14,0-7.89-1.95-10.06-5.25c-2.01-3.04-2.33-6.84-0.86-10.16v0l7.48-16.86
			c1.8-4.05,5.99-6.73,10.67-6.82l31.11-0.61c3.93-0.12,7.61,1.65,9.87,4.63c2.1,2.75,2.74,6.21,1.77,9.49l-5.08,17.05
			c-1.41,4.78-5.93,8.04-11.23,8.11l-33.52,0.42C223.02,184.27,222.97,184.27,222.92,184.27z M253.76,171.56
			C253.76,171.56,253.76,171.57,253.76,171.56L253.76,171.56z M232.07,159.83l-4.3,9.7l26.7-0.33l2.93-9.86L232.07,159.83z"/>
	</g>
</g>
</svg>
