<?xml version="1.0" encoding="utf-8"?>
<!-- Generator: Adobe Illustrator 23.0.6, SVG Export Plug-In . SVG Version: 6.00 Build 0)  -->
<svg version="1.1" id="Layer_1" xmlns="http://www.w3.org/2000/svg" xmlns:xlink="http://www.w3.org/1999/xlink" x="0px" y="0px"
	 viewBox="0 0 1543 1527" style="enable-background:new 0 0 1543 1527;" xml:space="preserve">
<style type="text/css">
	.st0{fill:none;stroke:#FBC43B;stroke-miterlimit:10;}
	.st1{fill:#F7BD1E;}
	.st2{fill:none;stroke:#F7BD1E;stroke-width:3;stroke-miterlimit:10;}
	.st3{fill:#FFFFFF;stroke:#FBC43B;stroke-width:3.5;stroke-miterlimit:10;}
	.st4{fill:#F9E2AC;stroke:#FBC43B;stroke-width:3.5;stroke-miterlimit:10;}
	.st5{fill:#FBC43B;}
	.st6{fill:#FFBFA9;}
	.st7{fill:none;}
	.st8{fill:none;stroke:#FF05C1;stroke-width:1.75;stroke-miterlimit:10;}
	.st9{fill:#FF05C1;}
	.st10{fill:#F9E2AC;stroke:#F7BD1E;stroke-width:2;stroke-miterlimit:10;}
	.st11{fill:#FF457A;}
	.st12{fill:none;stroke:#FBC43B;stroke-width:2;stroke-miterlimit:10;}
	.st13{fill:none;stroke:#FBC43B;stroke-width:1.9783;stroke-miterlimit:10;}
	.st14{fill:none;stroke:#FBC43B;stroke-width:1.9565;stroke-miterlimit:10;}
	.st15{fill:none;stroke:#FBC43B;stroke-width:1.9348;stroke-miterlimit:10;}
	.st16{fill:none;stroke:#FBC43B;stroke-width:1.913;stroke-miterlimit:10;}
	.st17{fill:none;stroke:#FBC43B;stroke-width:1.8913;stroke-miterlimit:10;}
	.st18{fill:none;stroke:#FBC43B;stroke-width:1.8696;stroke-miterlimit:10;}
	.st19{fill:none;stroke:#FBC43B;stroke-width:1.8478;stroke-miterlimit:10;}
	.st20{fill:none;stroke:#FBC43B;stroke-width:1.8261;stroke-miterlimit:10;}
	.st21{fill:none;stroke:#FBC43B;stroke-width:1.8043;stroke-miterlimit:10;}
	.st22{fill:none;stroke:#FBC43B;stroke-width:1.7826;stroke-miterlimit:10;}
	.st23{fill:none;stroke:#FBC43B;stroke-width:1.7609;stroke-miterlimit:10;}
	.st24{fill:none;stroke:#FBC43B;stroke-width:1.7391;stroke-miterlimit:10;}
	.st25{fill:none;stroke:#FBC43B;stroke-width:1.7174;stroke-miterlimit:10;}
	.st26{fill:none;stroke:#FBC43B;stroke-width:1.6957;stroke-miterlimit:10;}
	.st27{fill:none;stroke:#FBC43B;stroke-width:1.6739;stroke-miterlimit:10;}
	.st28{fill:none;stroke:#FBC43B;stroke-width:1.6522;stroke-miterlimit:10;}
	.st29{fill:none;stroke:#FBC43B;stroke-width:1.6304;stroke-miterlimit:10;}
	.st30{fill:none;stroke:#FBC43B;stroke-width:1.6087;stroke-miterlimit:10;}
	.st31{fill:none;stroke:#FBC43B;stroke-width:1.587;stroke-miterlimit:10;}
	.st32{fill:none;stroke:#FBC43B;stroke-width:1.5652;stroke-miterlimit:10;}
	.st33{fill:none;stroke:#FBC43B;stroke-width:1.5435;stroke-miterlimit:10;}
	.st34{fill:none;stroke:#FBC43B;stroke-width:1.5217;stroke-miterlimit:10;}
	.st35{fill:none;stroke:#FBC43B;stroke-width:1.5;stroke-miterlimit:10;}
	.st36{fill:none;stroke:#FBC43B;stroke-width:1.4783;stroke-miterlimit:10;}
	.st37{fill:none;stroke:#FBC43B;stroke-width:1.4565;stroke-miterlimit:10;}
	.st38{fill:none;stroke:#FBC43B;stroke-width:1.4348;stroke-miterlimit:10;}
	.st39{fill:none;stroke:#FBC43B;stroke-width:1.413;stroke-miterlimit:10;}
	.st40{fill:none;stroke:#FBC43B;stroke-width:1.3913;stroke-miterlimit:10;}
	.st41{fill:none;stroke:#FBC43B;stroke-width:1.3696;stroke-miterlimit:10;}
	.st42{fill:none;stroke:#FBC43B;stroke-width:1.3478;stroke-miterlimit:10;}
	.st43{fill:none;stroke:#FBC43B;stroke-width:1.3261;stroke-miterlimit:10;}
	.st44{fill:none;stroke:#FBC43B;stroke-width:1.3043;stroke-miterlimit:10;}
	.st45{fill:none;stroke:#FBC43B;stroke-width:1.2826;stroke-miterlimit:10;}
	.st46{fill:none;stroke:#FBC43B;stroke-width:1.2609;stroke-miterlimit:10;}
	.st47{fill:none;stroke:#FBC43B;stroke-width:1.2391;stroke-miterlimit:10;}
	.st48{fill:none;stroke:#FBC43B;stroke-width:1.2174;stroke-miterlimit:10;}
	.st49{fill:none;stroke:#FBC43B;stroke-width:1.1957;stroke-miterlimit:10;}
	.st50{fill:none;stroke:#FBC43B;stroke-width:1.1739;stroke-miterlimit:10;}
	.st51{fill:none;stroke:#FBC43B;stroke-width:1.1522;stroke-miterlimit:10;}
	.st52{fill:none;stroke:#FBC43B;stroke-width:1.1304;stroke-miterlimit:10;}
	.st53{fill:none;stroke:#FBC43B;stroke-width:1.1087;stroke-miterlimit:10;}
	.st54{fill:none;stroke:#FBC43B;stroke-width:1.087;stroke-miterlimit:10;}
	.st55{fill:none;stroke:#FBC43B;stroke-width:1.0652;stroke-miterlimit:10;}
	.st56{fill:none;stroke:#FBC43B;stroke-width:1.0435;stroke-miterlimit:10;}
	.st57{fill:none;stroke:#FBC43B;stroke-width:1.0217;stroke-miterlimit:10;}
	.st58{clip-path:url(#SVGID_2_);}
	.st59{fill:none;stroke:#FFD845;stroke-width:2;stroke-miterlimit:10;}
	.st60{fill:none;stroke:#FFD845;stroke-width:1.9783;stroke-miterlimit:10;}
	.st61{fill:none;stroke:#FFD845;stroke-width:1.9565;stroke-miterlimit:10;}
	.st62{fill:none;stroke:#FFD845;stroke-width:1.9348;stroke-miterlimit:10;}
	.st63{fill:none;stroke:#FFD845;stroke-width:1.913;stroke-miterlimit:10;}
	.st64{fill:none;stroke:#FFD845;stroke-width:1.8913;stroke-miterlimit:10;}
	.st65{fill:none;stroke:#FFD845;stroke-width:1.8696;stroke-miterlimit:10;}
	.st66{fill:none;stroke:#FFD845;stroke-width:1.8478;stroke-miterlimit:10;}
	.st67{fill:none;stroke:#FFD845;stroke-width:1.8261;stroke-miterlimit:10;}
	.st68{fill:none;stroke:#FFD845;stroke-width:1.8043;stroke-miterlimit:10;}
	.st69{fill:none;stroke:#FFD845;stroke-width:1.7826;stroke-miterlimit:10;}
	.st70{fill:none;stroke:#FFD845;stroke-width:1.7609;stroke-miterlimit:10;}
	.st71{fill:none;stroke:#FFD845;stroke-width:1.7391;stroke-miterlimit:10;}
	.st72{fill:none;stroke:#FFD845;stroke-width:1.7174;stroke-miterlimit:10;}
	.st73{fill:none;stroke:#FFD845;stroke-width:1.6957;stroke-miterlimit:10;}
	.st74{fill:none;stroke:#FFD845;stroke-width:1.6739;stroke-miterlimit:10;}
	.st75{fill:none;stroke:#FFD845;stroke-width:1.6522;stroke-miterlimit:10;}
	.st76{fill:none;stroke:#FFD845;stroke-width:1.6304;stroke-miterlimit:10;}
	.st77{fill:none;stroke:#FFD845;stroke-width:1.6087;stroke-miterlimit:10;}
	.st78{fill:none;stroke:#FFD845;stroke-width:1.587;stroke-miterlimit:10;}
	.st79{fill:none;stroke:#FFD845;stroke-width:1.5652;stroke-miterlimit:10;}
	.st80{fill:none;stroke:#FFD845;stroke-width:1.5435;stroke-miterlimit:10;}
	.st81{fill:none;stroke:#FFD845;stroke-width:1.5217;stroke-miterlimit:10;}
	.st82{fill:none;stroke:#FFD845;stroke-width:1.5;stroke-miterlimit:10;}
	.st83{fill:none;stroke:#FFD845;stroke-width:1.4783;stroke-miterlimit:10;}
	.st84{fill:none;stroke:#FFD845;stroke-width:1.4565;stroke-miterlimit:10;}
	.st85{fill:none;stroke:#FFD845;stroke-width:1.4348;stroke-miterlimit:10;}
	.st86{fill:none;stroke:#FFD845;stroke-width:1.413;stroke-miterlimit:10;}
	.st87{fill:none;stroke:#FFD845;stroke-width:1.3913;stroke-miterlimit:10;}
	.st88{fill:none;stroke:#FFD845;stroke-width:1.3696;stroke-miterlimit:10;}
	.st89{fill:none;stroke:#FFD845;stroke-width:1.3478;stroke-miterlimit:10;}
	.st90{fill:none;stroke:#FFD845;stroke-width:1.3261;stroke-miterlimit:10;}
	.st91{fill:none;stroke:#FFD845;stroke-width:1.3043;stroke-miterlimit:10;}
	.st92{fill:none;stroke:#FFD845;stroke-width:1.2826;stroke-miterlimit:10;}
	.st93{fill:none;stroke:#FFD845;stroke-width:1.2609;stroke-miterlimit:10;}
	.st94{fill:none;stroke:#FFD845;stroke-width:1.2391;stroke-miterlimit:10;}
	.st95{fill:none;stroke:#FFD845;stroke-width:1.2174;stroke-miterlimit:10;}
	.st96{fill:none;stroke:#FFD845;stroke-width:1.1957;stroke-miterlimit:10;}
	.st97{fill:none;stroke:#FFD845;stroke-width:1.1739;stroke-miterlimit:10;}
	.st98{fill:none;stroke:#FFD845;stroke-width:1.1522;stroke-miterlimit:10;}
	.st99{fill:none;stroke:#FFD845;stroke-width:1.1304;stroke-miterlimit:10;}
	.st100{fill:none;stroke:#FFD845;stroke-width:1.1087;stroke-miterlimit:10;}
	.st101{fill:none;stroke:#FFD845;stroke-width:1.087;stroke-miterlimit:10;}
	.st102{fill:none;stroke:#FFD845;stroke-width:1.0652;stroke-miterlimit:10;}
	.st103{fill:none;stroke:#FFD845;stroke-width:1.0435;stroke-miterlimit:10;}
	.st104{fill:none;stroke:#FFD845;stroke-width:1.0217;stroke-miterlimit:10;}
	.st105{fill:none;stroke:#FFD845;stroke-miterlimit:10;}
	.st106{fill:none;stroke:#F7BD1E;stroke-width:1.5;stroke-miterlimit:10;}
	.st107{fill:none;stroke:#F7BD1E;stroke-width:4;stroke-miterlimit:10;}
	.st108{fill:none;stroke:#F7BD1E;stroke-miterlimit:10;}
	.st109{fill:none;stroke:#F7BD1E;stroke-width:10;stroke-miterlimit:10;}
</style>
<g>
	<path class="st1" d="M1524,437.75C1524,253.42,1374.57,104,1190.25,104S856.5,253.42,856.5,437.75
		c0,162.49,116.13,297.83,269.91,327.63V533.09h-87.36v-98.96h87.36V355.4c0-56.23,26.88-87.72,26.88-87.72
		c26.88-35.99,80.64-40.49,80.64-40.49c51.52-4.5,96.32,6.75,96.32,6.75v83.22h-49.28c-49.28,2.25-49.28,51.73-49.28,51.73v65.23
		h94.08l-13.44,98.96h-80.64v235.85C1396.46,748.53,1524,608.04,1524,437.75z"/>
</g>
<g>
	<path class="st1" d="M1531.63,1080.12c-0.36-5.93-0.55-11.87-0.68-17.81c-2.8-126.42-107.98-118.32-107.98-118.32
		c-172.15-16.88-437.11,0-437.11,0c-95.99,0-108.01,59.07-111.23,87.32c-0.86,7.52-0.75,4.77-1.84,12.25
		c-15.09,103.81-1.69,254.84-1.69,254.84c8.44,102.95,91.14,101.26,91.14,101.26c308.85,20.25,467.49,0,467.49,0
		c79.34-9.92,92.07-62.65,94.12-79.32c0.41-3.32,0.79-6.64,1.39-9.93C1532.67,1269.71,1534.36,1124.57,1531.63,1080.12z
		 M1131,1271.4v-199.15l177.21,99.57L1131,1271.4z"/>
</g>
<path class="st1" d="M729,975.43c-32.46,16.23-69.21,17.61-69.21,17.61c38.16-23.59,52.98-68.8,52.98-68.8
	c-47.44,29.96-79.22,29.2-79.22,29.2l-0.03,0.02C609.56,928.53,575.9,913,538.6,913c-72.75,0-131.72,58.97-131.72,131.72
	c0,9.18,0.94,18.14,2.73,26.78c-185.31-9.15-267.42-134.78-267.42-134.78c-53.69,104.87,42.45,176.04,42.45,176.04
	c-48.69-1.25-59.93-18.73-59.93-18.73c3.75,116.11,103.63,128.6,103.63,128.6c-36.21,11.24-57.43,2.5-57.43,2.5
	c38.7,98.63,119.86,88.64,119.86,88.64c-91.14,73.66-189.77,54.93-189.77,54.93c99.88,69.92,224.73,56.18,224.73,56.18
	c299.45-29.94,338.73-291.67,343.83-366.12c0.49-4.62,0.75-9.3,0.75-14.05c0-0.47-0.03-0.93-0.04-1.4c0.06-2.76,0.04-4.24,0.04-4.24
	C707.78,1014.09,729,975.43,729,975.43z"/>
<g>
	<circle class="st1" cx="402.57" cy="458.16" r="91.18"/>
	<g>
		<ellipse class="st7" cx="402.75" cy="456.87" rx="148.43" ry="150.76"/>
		<path class="st1" d="M626.51,152.85c-23.92-13.17-50.99-19.53-78.29-19.53H255.56C80.85,136.05,91.77,297.1,91.77,297.1v292.48
			c0,27.42,6.58,54.6,20.15,78.43c40.6,71.31,113.61,71.31,113.61,71.31H553.1c71.09-1.42,108.11-36.91,127.27-70.59
			c13.56-23.84,20.13-51.03,20.13-78.46V275.26C696.24,207.02,660.13,171.36,626.51,152.85z M645.73,566.08
			c0,22.44-5.29,44.69-16.22,64.19c-15.43,27.56-45.26,56.59-102.52,57.75H263.12c0,0-58.81,0-91.52-58.35
			c-10.93-19.5-16.23-41.73-16.23-64.17v-239.3c0,0-8.8-131.77,131.93-134h235.75c21.99,0,43.8,5.21,63.06,15.98
			c27.08,15.14,56.17,44.32,59.6,100.16V566.08z"/>
	</g>
	<g>
		<circle class="st108" cx="401.62" cy="457.21" r="128.23"/>
		<path class="st1" d="M560.04,245.7c-16.65-9.16-35.48-13.59-54.48-13.59H301.89C180.31,234,187.91,346.08,187.91,346.08v203.54
			c0,19.08,4.58,37.99,14.02,54.58c28.25,49.63,79.06,49.63,79.06,49.63h227.96c49.47-0.99,75.24-25.68,88.57-49.12
			c9.44-16.59,14.01-35.51,14.01-54.6V330.89C608.57,283.39,583.44,258.58,560.04,245.7z M401.62,585.44
			c-70.82,0-128.23-57.41-128.23-128.23s57.41-128.23,128.23-128.23s128.23,57.41,128.23,128.23S472.44,585.44,401.62,585.44z
			 M530.8,342.28c-16.26,0-29.45-13.18-29.45-29.45s13.18-29.45,29.45-29.45c16.26,0,29.45,13.18,29.45,29.45
			S547.06,342.28,530.8,342.28z"/>
	</g>
</g>
</svg>
