<svg id="Layer_1" data-name="Layer 1" xmlns="http://www.w3.org/2000/svg" viewBox="0 0 1543 1527"><defs><style>.cls-1,.cls-2{fill:none;}.cls-1{stroke:#f7bd1e;stroke-miterlimit:10;stroke-width:10px;}</style></defs><title>socialmedia</title><path class="cls-1" d="M1524,437.75C1524,253.42,1374.57,104,1190.25,104S856.5,253.42,856.5,437.75c0,162.49,116.13,297.83,269.91,327.63V533.09h-87.36v-99h87.36V355.4c0-56.23,26.88-87.71,26.88-87.71,26.88-36,80.64-40.49,80.64-40.49,51.52-4.5,96.32,6.75,96.32,6.75v83.22H1281c-49.28,2.25-49.28,51.73-49.28,51.73v65.22h94.08l-13.44,99h-80.64V768.94C1396.46,748.53,1524,608,1524,437.75Z"/><path class="cls-1" d="M1531.63,1080.12c-.37-5.93-.55-11.87-.68-17.81C1528.15,935.89,1423,944,1423,944c-172.14-16.87-437.11,0-437.11,0-96,0-108,59.07-111.23,87.33-.86,7.51-.76,4.76-1.85,12.25-15.09,103.81-1.69,254.84-1.69,254.84,8.44,102.95,91.14,101.26,91.14,101.26,308.85,20.26,467.49,0,467.49,0,79.34-9.91,92.08-62.64,94.12-79.32.41-3.32.79-6.65,1.4-9.94C1532.67,1269.71,1534.36,1124.57,1531.63,1080.12ZM1131,1271.4V1072.25l177.21,99.57Z"/><path class="cls-1" d="M729,975.43c-32.46,16.23-69.21,17.6-69.21,17.6,38.16-23.59,53-68.79,53-68.79-47.44,30-79.22,29.19-79.22,29.19l0,0a131.72,131.72,0,0,0-223.9,118C224.31,1062.35,142.2,936.72,142.2,936.72c-53.69,104.88,42.45,176,42.45,176C136,1111.51,124.72,1094,124.72,1094c3.75,116.12,103.63,128.6,103.63,128.6-36.21,11.24-57.43,2.5-57.43,2.5,38.7,98.63,119.85,88.64,119.85,88.64C199.63,1387.43,101,1368.71,101,1368.71c99.88,69.91,224.73,56.18,224.73,56.18,299.45-30,338.73-291.67,343.84-366.12a133.07,133.07,0,0,0,.75-14c0-.47,0-.93,0-1.4.06-2.76,0-4.24,0-4.24C707.78,1014.09,729,975.43,729,975.43Z"/><circle class="cls-1" cx="402.57" cy="458.16" r="91.18"/><ellipse class="cls-2" cx="402.75" cy="456.87" rx="148.43" ry="150.76"/><path class="cls-1" d="M626.51,152.85c-23.92-13.16-51-19.53-78.29-19.53H255.56C80.85,136.05,91.77,297.1,91.77,297.1V589.58c0,27.42,6.58,54.59,20.15,78.43,40.6,71.31,113.61,71.31,113.61,71.31H553.1c71.08-1.42,108.11-36.91,127.27-70.59,13.56-23.84,20.13-51,20.13-78.46v-315C696.24,207,660.13,171.36,626.51,152.85Zm19.22,413.23c0,22.45-5.29,44.69-16.22,64.2C614.08,657.83,584.25,686.86,527,688H263.12s-58.81,0-91.51-58.35c-10.93-19.5-16.23-41.73-16.23-64.17V326.21s-8.8-131.77,131.93-134H523.06a129.08,129.08,0,0,1,63.07,16c27.08,15.14,56.17,44.32,59.6,100.16Z"/><circle class="cls-1" cx="401.62" cy="457.21" r="128.23"/><path class="cls-1" d="M560,245.7a112.78,112.78,0,0,0-54.48-13.6H301.89c-121.58,1.9-114,114-114,114V549.63a110.19,110.19,0,0,0,14,54.57C230.18,653.83,281,653.83,281,653.83H509c49.48-1,75.24-25.68,88.58-49.12a110.29,110.29,0,0,0,14-54.6V330.89C608.57,283.39,583.44,258.58,560,245.7ZM401.62,585.44A128.23,128.23,0,1,1,529.85,457.21,128.23,128.23,0,0,1,401.62,585.44ZM530.8,342.28a29.45,29.45,0,1,1,29.45-29.44A29.44,29.44,0,0,1,530.8,342.28Z"/></svg>