<svg id="Layer_1" data-name="Layer 1" xmlns="http://www.w3.org/2000/svg" viewBox="0 0 1149 595"><defs><style>.cls-1{fill:none;stroke:#f7bd1e;stroke-miterlimit:10;stroke-width:10px;}</style></defs><title>tablet</title><path class="cls-1" d="M917,491s-25-24-36-26c0,0-30-4-55-58,0,0-10-18-23-65,0,0-3-16-25-54,0,0-20.62-29.35-24.43-56.26a31.6,31.6,0,0,1,4.81-22.12C762.5,203.5,769.5,197.5,781,198c0,0,17,0,31,26,0,0,16,24,38,64,0,0,11,21,21,23l1-180,40,23s11,7,17,25l58,193s4,21,15,32l15.16,17.84"/><path class="cls-1" d="M232,488s25-24,36-26c0,0,30-4,55-58,0,0,10-18,23-65,0,0,3-16,25-54,0,0,26-37,25-66,0,0,1-25-28-24,0,0-16,0-30.39,22.91-1.25,2-2.32,4.09-3.63,6.05a528.87,528.87,0,0,0-35,61s-11,21-21,23l-1-180-40,23s-11,7-17,25L162,369s-4,21-15,32l-15.16,17.84"/><path class="cls-1" d="M32,535l94-129s21,41,122,92l-30,42Z"/><path class="cls-1" d="M921,540l-25-41s66-20,129-85l93,126Z"/><path class="cls-1" d="M277,128V70s1-15,19-14H852s19-2,20,15v60"/><path class="cls-1" d="M871,461.31S875,484,846,484H297.6l-1,0c-2.9.12-22.71.09-23.48-23.85"/><polyline class="cls-1" points="299 285 299 84 848 84 848 283.29"/><polyline class="cls-1" points="848 442.3 848 460 299 460 299 441.56"/><path class="cls-1" d="M442,276s126-149,266,0C708,276,590,421,442,276Z"/><circle class="cls-1" cx="574.5" cy="273.5" r="63.5"/></svg>