<svg id="Layer_1" data-name="Layer 1" xmlns="http://www.w3.org/2000/svg" viewBox="0 0 705 685"><defs><style>.cls-1{fill:none;stroke:#f7bd1e;stroke-miterlimit:10;stroke-width:10px;}</style></defs><title>twitter2</title><path class="cls-1" d="M681,158.71c-34.17,17.08-72.85,18.53-72.85,18.53,40.17-24.83,55.77-72.41,55.77-72.41-49.94,31.54-83.38,30.73-83.38,30.73h0A138.67,138.67,0,0,0,344.83,259.83C149.79,250.2,63.37,118,63.37,118,6.86,228.35,108.05,303.26,108.05,303.26,56.8,301.94,45,283.55,45,283.55,48.91,405.76,154,418.9,154,418.9c-38.11,11.83-60.45,2.63-60.45,2.63,40.74,103.81,126.16,93.3,126.16,93.3C123.82,592.36,20,572.65,20,572.65c105.13,73.59,236.54,59.14,236.54,59.14,315.19-31.52,356.53-307,361.9-385.36a138.91,138.91,0,0,0,.8-14.79c0-.49,0-1,0-1.47.06-2.91,0-4.47,0-4.47C658.66,199.4,681,158.71,681,158.71Z"/></svg>