<svg id="Layer_1" data-name="Layer 1" xmlns="http://www.w3.org/2000/svg" viewBox="0 0 705 685"><defs><style>.cls-1{fill:#f7bd1e;}</style></defs><title>twitter</title><path class="cls-1" d="M703.46,160.94c-35.33,17.66-75.32,19.16-75.32,19.16,41.53-25.67,57.65-74.87,57.65-74.87C634.16,137.84,599.58,137,599.58,137l0,0A143.37,143.37,0,0,0,355.87,265.5c-201.67-10-291-146.68-291-146.68C6.41,233,111,310.4,111,310.4,58.05,309,45.82,290,45.82,290c4.07,126.37,112.77,140,112.77,140-39.4,12.23-62.5,2.72-62.5,2.72C138.21,540,226.53,529.16,226.53,529.16,127.34,609.33,20,589,20,589,128.7,665,264.58,650.09,264.58,650.09c325.89-32.59,368.64-317.42,374.2-398.45a145.56,145.56,0,0,0,.82-15.29c0-.51,0-1,0-1.52.06-3,0-4.62,0-4.62C680.36,203,703.46,160.94,703.46,160.94Z"/></svg>