<svg id="Layer_1" data-name="Layer 1" xmlns="http://www.w3.org/2000/svg" xmlns:xlink="http://www.w3.org/1999/xlink" viewBox="0 0 373 365"><defs><style>.cls-1,.cls-10,.cls-11,.cls-12,.cls-13,.cls-14,.cls-15,.cls-16,.cls-17,.cls-18,.cls-19,.cls-20,.cls-21,.cls-22,.cls-23,.cls-24,.cls-25,.cls-26,.cls-27,.cls-28,.cls-29,.cls-3,.cls-30,.cls-31,.cls-32,.cls-33,.cls-34,.cls-35,.cls-36,.cls-37,.cls-38,.cls-39,.cls-4,.cls-40,.cls-41,.cls-42,.cls-43,.cls-44,.cls-45,.cls-46,.cls-47,.cls-48,.cls-49,.cls-5,.cls-6,.cls-7,.cls-8,.cls-9{fill:none;}.cls-2{clip-path:url(#clip-path);}.cls-10,.cls-11,.cls-12,.cls-13,.cls-14,.cls-15,.cls-16,.cls-17,.cls-18,.cls-19,.cls-20,.cls-21,.cls-22,.cls-23,.cls-24,.cls-25,.cls-26,.cls-27,.cls-28,.cls-29,.cls-3,.cls-30,.cls-31,.cls-32,.cls-33,.cls-34,.cls-35,.cls-36,.cls-37,.cls-38,.cls-39,.cls-4,.cls-40,.cls-41,.cls-42,.cls-43,.cls-44,.cls-45,.cls-46,.cls-47,.cls-48,.cls-49,.cls-5,.cls-6,.cls-7,.cls-8,.cls-9{stroke:#fbc43b;}.cls-10,.cls-12,.cls-13,.cls-14,.cls-15,.cls-16,.cls-17,.cls-18,.cls-19,.cls-20,.cls-21,.cls-22,.cls-23,.cls-24,.cls-25,.cls-26,.cls-27,.cls-28,.cls-29,.cls-3,.cls-30,.cls-31,.cls-32,.cls-33,.cls-34,.cls-35,.cls-36,.cls-37,.cls-38,.cls-39,.cls-4,.cls-40,.cls-41,.cls-42,.cls-43,.cls-44,.cls-45,.cls-46,.cls-47,.cls-48,.cls-49,.cls-5,.cls-6,.cls-7,.cls-8{stroke-miterlimit:10;}.cls-3{stroke-width:2px;}.cls-4{stroke-width:1.98px;}.cls-5{stroke-width:1.96px;}.cls-6{stroke-width:1.93px;}.cls-7{stroke-width:1.91px;}.cls-8{stroke-width:1.89px;}.cls-9{stroke-miterlimit:10;stroke-width:1.87px;}.cls-10{stroke-width:1.85px;}.cls-11{stroke-miterlimit:10;stroke-width:1.83px;}.cls-12{stroke-width:1.8px;}.cls-13{stroke-width:1.78px;}.cls-14{stroke-width:1.76px;}.cls-15{stroke-width:1.74px;}.cls-16{stroke-width:1.72px;}.cls-17{stroke-width:1.7px;}.cls-18{stroke-width:1.67px;}.cls-19{stroke-width:1.65px;}.cls-20{stroke-width:1.63px;}.cls-21{stroke-width:1.61px;}.cls-22{stroke-width:1.59px;}.cls-23{stroke-width:1.57px;}.cls-24{stroke-width:1.54px;}.cls-25{stroke-width:1.52px;}.cls-26{stroke-width:1.5px;}.cls-27{stroke-width:1.48px;}.cls-28{stroke-width:1.46px;}.cls-29{stroke-width:1.43px;}.cls-30{stroke-width:1.41px;}.cls-31{stroke-width:1.39px;}.cls-32{stroke-width:1.37px;}.cls-33{stroke-width:1.35px;}.cls-34{stroke-width:1.33px;}.cls-35{stroke-width:1.3px;}.cls-36{stroke-width:1.28px;}.cls-37{stroke-width:1.26px;}.cls-38{stroke-width:1.24px;}.cls-39{stroke-width:1.22px;}.cls-40{stroke-width:1.2px;}.cls-41{stroke-width:1.17px;}.cls-42{stroke-width:1.15px;}.cls-43{stroke-width:1.13px;}.cls-44{stroke-width:1.11px;}.cls-45{stroke-width:1.09px;}.cls-46{stroke-width:1.07px;}.cls-47{stroke-width:1.04px;}.cls-48{stroke-width:1.02px;}</style><clipPath id="clip-path"><circle class="cls-1" cx="194" cy="180" r="156"/></clipPath></defs><title>wave2</title><g class="cls-2"><path class="cls-3" d="M131.53-62.88s44-21,53.12,11.89c0,0,11.4,34.54,52.76,16.26,0,0,59.36-14.79,64.59,36.17,0,0,9.87,43.24,50.91,28.59,0,0,56.31-6.94,63.8,36.12,0,0,12.42,50.75,75.06,44.26,0,0,49.51-20.63,53.9,21.48"/><path class="cls-4" d="M128.34-60.1s22.59-10.31,38.26-4.21c6.26,2.43,11.59,7.57,14.49,16.78.12,0,3.62,9.84,13.28,16.07,7.29,4.7,18.77,7.37,34.57,2,1.6-.55,3.24-1.18,5-1.86.06.23,20.1-4.53,38,1.2,12.51,4,21.37,13.87,26.85,34.72a53,53,0,0,0,6.05,14.32c6.59,10.84,20.17,23.76,44.87,14.51A77.62,77.62,0,0,1,363.33,33c16.8.8,45.37,6.39,49.92,36.43,0,0,9.12,39,54.09,43.53a94.49,94.49,0,0,0,21.24-.11c.95-.12,48.87-18.93,53.15,22.29"/><path class="cls-5" d="M125.15-57.32s22.71-9.88,37.9-3.56c6.07,2.52,11.28,7.8,14.47,16.82.24,0,3.89,9.5,13.5,15.57,7.18,4.53,19,7.22,34.5,2.26,1.58-.51,3.18-1.1,4.87-1.68.12.44,20-4,37.87,1.48,12.28,3.77,21.59,13.12,27.23,34.18a53.94,53.94,0,0,0,6,14.38c6.41,10.62,20,24,44.92,14.68a71,71,0,0,1,13.65-.58c16.44.7,45.71,5.78,49.71,36.47,0,0,8.73,39,54.33,42.84a103.82,103.82,0,0,0,21.27-.27c1.9-.23,48.23-17.22,52.4,23.11"/><path class="cls-6" d="M122-54.52s22.8-9.47,37.55-2.92c5.87,2.61,11,8,14.45,16.86.35,0,4.14,9.15,13.72,15.07,7,4.36,19.23,7.06,34.42,2.53,1.55-.47,3.11-1,4.79-1.51.17.67,19.78-3.51,37.73,1.77,12.05,3.54,21.81,12.36,27.62,33.64a54.07,54.07,0,0,0,6,14.44c6.23,10.4,19.87,24.28,45,14.86a64.22,64.22,0,0,1,13.65-.75c16.07.61,46,5.18,49.48,36.52,0,0,8.35,39.07,54.58,42.15a113.31,113.31,0,0,0,21.3-.43c2.85-.34,47.6-15.52,51.65,23.93"/><path class="cls-7" d="M118.77-51.72S141.64-60.78,156-54c5.66,2.69,10.65,8.26,14.42,16.9.47,0,4.41,8.8,14,14.57,6.93,4.19,19.43,6.92,34.33,2.79,1.53-.42,3.05-.93,4.71-1.32.23.88,19.61-3,37.61,2.05,11.8,3.32,22,11.6,28,33.1a55.26,55.26,0,0,0,5.95,14.5c6.05,10.18,19.72,24.54,45,15a60.3,60.3,0,0,1,13.65-.9c15.69.51,46.38,4.57,49.26,36.55,0,0,8,39.16,54.81,41.46a124.56,124.56,0,0,0,21.34-.58c3.8-.46,47-13.81,50.9,24.75"/><path class="cls-8" d="M115.58-48.91s22.9-8.67,36.84-1.62c5.47,2.77,10.34,8.49,14.41,16.94.58,0,4.65,8.45,14.16,14.07,6.81,4,19.62,6.78,34.26,3.06,1.5-.38,3-.85,4.63-1.15.28,1.11,19.42-2.5,37.47,2.34,11.56,3.1,22.23,10.84,28.38,32.55a55.33,55.33,0,0,0,5.91,14.57c5.87,9.95,19.58,24.79,45.07,15.2a57.19,57.19,0,0,1,13.65-1c15.32.41,46.71,4,49,36.58,0,0,7.56,39.25,55.05,40.77a138,138,0,0,0,21.38-.73c4.73-.57,46.31-12.11,50.14,25.57"/><path class="cls-9" d="M112.39-46.08s22.91-8.3,36.49-1c5.26,2.83,10,8.7,14.38,17,.7,0,4.91,8.1,14.39,13.56,6.68,3.86,19.78,6.65,34.18,3.34a45.32,45.32,0,0,1,4.54-1c.34,1.33,19.24-2,37.34,2.63,11.31,2.89,22.45,10.08,28.76,32a56.62,56.62,0,0,0,5.88,14.63c5.69,9.73,19.43,25,45.12,15.37a37.26,37.26,0,0,1,13.65-1.21c14.9,1.25,47.05,3.36,48.81,36.63,0,0,7.18,39.33,55.3,40.08a156,156,0,0,0,21.41-.89c5.68-.69,45.67-10.41,49.39,26.39"/><path class="cls-10" d="M109.2-43.25s22.89-7.93,36.14-.32c5,2.9,9.71,8.93,14.36,17,.82,0,5.15,7.74,14.6,13.06,6.56,3.69,19.93,6.52,34.11,3.61a33.05,33.05,0,0,1,4.46-.8c.39,1.55,19-1.5,37.2,2.91,11.06,2.68,22.66,9.32,29.15,31.47a57.19,57.19,0,0,0,5.84,14.69c5.51,9.51,19.28,25.31,45.17,15.54a34.66,34.66,0,0,1,13.65-1.36c14.52,1.3,47.38,2.75,48.59,36.67,0,0,6.79,38.75,55.54,39.38a158.45,158.45,0,0,0,21.44-1c6.63-.81,45-8.7,48.65,27.21"/><path class="cls-11" d="M106-39.87s24.68-10,35.78.33c5.34,1.94,9.4,9.16,14.34,17,.94,0,5.4,7.39,14.83,12.57,6.42,3.53,20,6.39,34,3.87a26.9,26.9,0,0,1,4.37-.62c.45,1.77,18.84-1,37.07,3.2C257.24-1,269.31,5.07,276,27.44a58.26,58.26,0,0,0,5.82,14.75c5.33,9.29,19.13,25.57,45.21,15.72a32.45,32.45,0,0,1,13.65-1.52c14.14,1.35,47.72,2.15,48.37,36.71,0,0,6.38,39.51,55.78,38.7a203.19,203.19,0,0,0,21.47-1.2c7.58-.93,44.39-7,47.9,28"/><path class="cls-12" d="M102.82-37s25-9.91,35.43,1c5.19,1.89,9.09,9.39,14.31,17.09,1.06,0,5.64,7,15.06,12.06,6.29,3.37,20,3.59,33.95,4.15a10.9,10.9,0,0,1,4.29-.45c.5,2,18.62-.5,36.93,3.48,10.56,2.3,23.09,7.79,29.92,30.39a59.07,59.07,0,0,0,5.78,14.8c5.16,9.07,19,25.84,45.26,15.9a30.35,30.35,0,0,1,13.64-1.67c13.77,1.38,48.06,1.53,48.15,36.74,0,0,6,39.6,56,38,6.88-.22,14-.43,21.51-1.35,8.53-1,43.75-5.29,47.15,28.85"/><path class="cls-13" d="M99.63-34s25.23-9.82,35.08,1.62c5,1.83,8.77,9.61,14.29,17.12,1.17.05,5.88,6.67,15.27,11.56C170.43-.53,184.42-.59,198.15.67a9.39,9.39,0,0,1,4.2-.27c.56,2.21,18.41,0,36.8,3.77,10.3,2.11,23.31,7,30.3,29.84a60.63,60.63,0,0,0,5.75,14.87C280.18,57.72,294,75,320.51,65a29.14,29.14,0,0,1,13.64-1.83c13.38,1.43,48.4.93,47.93,36.78,0,0,5.6,39.71,56.26,37.32,6.93-.33,14.09-.59,21.54-1.51,9.48-1.16,43.12-3.58,46.4,29.67"/><path class="cls-14" d="M96.44-31.12s25.51-9.73,34.72,2.26c4.92,1.79,8.47,9.85,14.27,17.16,1.29.06,6.12,6.31,15.5,11.07,6,3.05,20.31,2.71,33.8,4.68a8.08,8.08,0,0,1,4.11-.1c.62,2.43,18.19.49,36.67,4.05,10,1.94,23.52,6.26,30.69,29.31a61.57,61.57,0,0,0,5.71,14.93c4.81,8.61,18.68,26.35,45.36,16.24a27.69,27.69,0,0,1,13.64-2c13,1.47,48.73.33,47.7,36.82,0,0,5.21,39.81,56.51,36.63,7-.44,14.16-.75,21.58-1.66,10.42-1.28,42.47-1.88,45.64,30.48"/><path class="cls-15" d="M93.25-28.2s25.79-9.63,34.37,2.92c4.77,1.73,8.15,10.06,14.25,17.19,1.4.06,6.34,5.95,15.71,10.57,5.89,2.89,20.48,2.27,33.73,4.95a7.11,7.11,0,0,1,4,.07c.67,2.66,17.95,1,36.53,4.34,9.77,1.77,23.74,5.49,31.07,28.76a63.13,63.13,0,0,0,5.68,15C273.27,64,287.16,82.21,314,72a26.65,26.65,0,0,1,13.64-2.14c12.62,1.5,49.07-.28,47.48,36.86,0,0,4.8,39.91,56.75,35.93,7.05-.54,14.22-.9,21.61-1.81,11.37-1.4,41.83-.18,44.89,31.3"/><path class="cls-16" d="M90.06-25.27s26.06-9.54,34,3.56c4.63,1.69,7.83,10.3,14.22,17.24,1.52.06,6.57,5.58,15.94,10.06,5.74,2.75,20.64,1.83,33.65,5.22a6.4,6.4,0,0,1,3.94.25c.73,2.88,17.71,1.48,36.4,4.63,9.5,1.6,24,4.72,31.46,28.22A64.38,64.38,0,0,0,265.33,59c4.48,8.15,18.39,26.87,45.46,16.59a25.7,25.7,0,0,1,13.64-2.3c12.24,1.53,49.4-.89,47.26,36.9,0,0,4.4,40,57,35.24,7.1-.64,14.29-1.06,21.64-2,12.31-1.52,41.19,1.53,44.14,32.12"/><path class="cls-17" d="M86.87-22.34s26.34-9.45,33.67,4.21C125-16.49,128.06-7.6,134.74-.86c1.64.08,6.79,5.22,16.16,9.57,5.59,2.6,20.8,1.39,33.57,5.49a5.79,5.79,0,0,1,3.86.42c.78,3.1,19.44-4,36.27,4.92,8.25,4.37,24.15,3.95,31.83,27.67A66.13,66.13,0,0,0,262,62.33c4.31,7.92,18.24,27.13,45.51,16.76,1.28-.49,6.63-3.37,13.64-2.45,11.86,1.56,49.73-1.5,47,36.94,0,0,4,40.13,57.24,34.55,7.16-.75,14.36-1.22,21.67-2.13,13.26-1.64,40.55,3.23,43.39,32.94"/><path class="cls-18" d="M83.68-19.4S110.3-28.76,117-14.54C121.34-13,124.2-3.79,131.17,2.77c1.76.07,7,4.84,16.38,9.06,5.45,2.45,21,1,33.5,5.76,1.1-.4,2.32,0,3.77.6.84,3.32,17,5.84,36.14,5.2,8.58,2.86,24.37,3.18,32.22,27.13a67.93,67.93,0,0,0,5.57,15.18c4.15,7.69,18.1,27.39,45.56,16.93,1.38-.52,6.69-3.56,13.64-2.6,11.48,1.58,50.07-2.11,46.81,37,0,0,3.61,40.25,57.47,33.87,7.23-.86,14.44-1.38,21.71-2.28,14.21-1.77,39.91,4.93,42.64,33.75"/><path class="cls-19" d="M80.49-16.46s26.9-9.26,33,5.51c4.21,1.53,6.9,11,14.16,17.34,1.87.09,7.22,4.48,16.6,8.57,5.3,2.31,21.13.52,33.42,6,1.06-.38,2.25.07,3.69.78.89,3.55,16.79,6.57,36,5.49,8.31,2.77,24.58,2.41,32.6,26.59.54,1.62,1.81,8.24,5.55,15.24,4,7.45,17.94,27.64,45.6,17.1,1.47-.56,6.75-3.75,13.63-2.76,11.1,1.6,50.41-2.71,46.6,37,0,0,3.21,40.36,57.71,33.17,7.29-1,14.51-1.53,21.74-2.43,15.16-1.89,39.27,6.64,41.89,34.57"/><path class="cls-20" d="M77.3-13.51s27.17-9.17,32.61,6.15C114-5.88,116.49,3.84,124,10c2,.08,6.88,5.88,16.82,8.06,4.68,3.07,21.3.08,33.35,6.29,1-.37,2.18.15,3.6,1,.95,3.76,16.58,7.29,35.87,5.77,8,2.67,24.79,1.63,33,26.05.58,1.72,1.82,8.32,5.51,15.3,3.81,7.22,17.79,27.9,45.65,17.28,1.56-.6,6.81-3.95,13.63-2.92,10.72,1.62,50.75-3.32,46.37,37.05,0,0,2.82,40.48,58,32.48,7.34-1.06,14.57-1.68,21.77-2.58,16.11-2,38.63,8.34,41.14,35.39"/><path class="cls-21" d="M74.11-10.56s27.45-9.08,32.25,6.8c3.93,1.43,6.27,11.43,14.11,17.42,2.11.09,7.09,5.63,17.05,7.56,4.51,3,21.45-.36,33.27,6.57,1-.36,2.12.23,3.51,1.13,1,4,16.37,8,35.74,6,7.75,2.59,25,.86,33.37,25.51.62,1.82,1.84,8.4,5.48,15.36s17.64,28.17,45.7,17.45c1.65-.63,6.87-4.13,13.63-3.06,10.34,1.62,51.08-3.93,46.15,37.09,0,0,2.42,40.6,58.2,31.78,7.4-1.17,14.64-1.84,21.81-2.74,17-2.13,38,10,40.38,36.22"/><path class="cls-22" d="M70.92-7.61s27.73-9,31.9,7.45c3.79,1.38,6,11.66,14.09,17.46,2.22.1,7.29,5.37,17.27,7.06,4.35,2.86,21.61-.8,33.19,6.83.95-.34,2,.32,3.43,1.31,1.06,4.21,16.15,8.74,35.6,6.34,7.48,2.49,25.22.09,33.76,25,.66,1.92,1.85,8.48,5.44,15.42,3.5,6.75,17.5,28.42,45.75,17.62,1.74-.66,6.93-4.32,13.63-3.22,10,1.64,51.42-4.54,45.93,37.13,0,0,2,40.72,58.44,31.1,7.46-1.28,14.71-2,21.84-2.9,18-2.26,37.35,11.75,39.63,37"/><path class="cls-23" d="M67.73-4.65s28-8.9,31.55,8.09c3.64,1.33,5.64,11.89,14.06,17.5,2.34.1,7.5,5.12,17.49,6.56,4.19,2.76,21.78-1.23,33.11,7.11.93-.34,2,.39,3.35,1.48,1.12,4.42,15.94,9.46,35.47,6.62,7.2,2.4,25.43-.69,34.14,24.43.71,2,1.87,8.56,5.41,15.48,3.34,6.52,17.35,28.68,45.8,17.8,1.83-.71,7-4.52,13.63-3.38,9.58,1.64,51.75-5.14,45.7,37.17,0,0,1.63,40.85,58.69,30.4,7.51-1.37,14.78-2.15,21.87-3.05,18.94-2.38,36.71,13.46,38.89,37.85"/><path class="cls-24" d="M64.54-1.69S92.82-10.5,95.73,7.05c3.51,1.28,5.33,12.11,14,17.53,2.46.11,7.7,4.87,17.71,6.07,4,2.65,21.94-1.68,33,7.37.89-.32,1.93.48,3.27,1.65,1.17,4.65,15.72,10.19,35.33,6.92,6.93,2.3,25.64-1.47,34.53,23.88.74,2.12,1.87,8.64,5.37,15.54,3.19,6.28,17.2,28.95,45.85,18,1.92-.74,7.05-4.7,13.63-3.53,9.2,1.65,52.09-5.75,45.48,37.21,0,0,1.24,41,58.92,29.71,7.58-1.48,14.85-2.31,21.91-3.2,19.89-2.51,36.07,15.16,38.14,38.67"/><path class="cls-25" d="M61.35,1.27s28.56-8.71,30.84,9.39c3.37,1.23,5,12.34,14,17.57,2.58.11,7.91,4.61,17.94,5.56,3.86,2.55,22.1-2.11,32.95,7.64.85-.3,1.86.57,3.18,1.84,1.22,4.87,15.51,10.91,35.2,7.2,6.65,2.21,25.85-2.25,34.92,23.33.78,2.22,1.88,8.73,5.33,15.61,3,6,17.06,29.2,45.89,18.14,2-.77,7.11-4.9,13.64-3.68,8.82,1.64,52.42-6.36,45.26,37.24,0,0,.84,41.11,59.16,29,7.64-1.59,14.92-2.47,21.94-3.36,20.84-2.64,35.43,16.86,37.39,39.49"/><path class="cls-26" d="M58.16,4.23S87-4.39,88.65,14.27c3.22,1.18,4.7,12.57,14,17.61,2.69.12,8.11,4.36,18.15,5.06,3.71,2.44,22.27-2.55,32.88,7.91.82-.29,1.79.65,3.1,2,1.27,5.09,15.29,11.64,35.06,7.49,6.37,2.12,26.06-3,35.3,22.79.83,2.32,1.9,8.8,5.3,15.67,2.88,5.8,16.91,29.46,45.94,18.32,2.12-.81,7.17-5.1,13.63-3.85,8.45,1.64,52.77-7,45,37.29,0,0,.45,41.24,59.41,28.33,7.7-1.68,15-2.62,22-3.51,21.78-2.76,34.79,18.57,36.64,40.31"/><path class="cls-27" d="M55,7.2S84.09-1.33,85.1,17.89c3.09,1.12,4.4,12.79,14,17.65,2.81.12,8.32,4.1,18.38,4.55,3.54,2.34,22.43-3,32.8,8.19.78-.29,1.72.72,3,2.18,1.33,5.31,15.07,12.36,34.93,7.77,6.1,2,26.27-3.8,35.69,22.25.87,2.42,1.9,8.88,5.26,15.73,2.74,5.56,16.76,29.72,46,18.49,2.21-.85,7.22-5.28,13.63-4,8.07,1.62,53.1-7.57,44.82,37.33,0,0,.05,41.37,59.65,27.64a219.71,219.71,0,0,1,22-3.67c22.73-2.89,34.15,20.28,35.89,41.13"/><path class="cls-28" d="M51.78,10.17s29.4-8.43,29.78,11.34c3,1.07,4.08,13,14,17.68,2.92.13,8.52,3.85,18.59,4.06,3.39,2.23,22.6-3.43,32.73,8.45.75-.27,1.66.81,2.93,2.36,1.38,5.53,14.85,13.09,34.8,8.06,5.81,1.93,26.47-4.58,36.06,21.71.92,2.51,1.92,9,5.24,15.78,2.58,5.33,16.6,30,46,18.67,2.3-.88,7.28-5.48,13.63-4.15,7.69,1.6,53.44-8.18,44.59,37.36,0,0-.33,41.51,59.9,26.95a197.72,197.72,0,0,1,22-3.82c23.67-3,33.51,22,35.13,41.94"/><path class="cls-29" d="M48.59,13.14S78.26,4.8,78,25.13c2.8,1,3.76,13.24,13.93,17.72,3,.13,8.74,3.6,18.82,3.56,3.22,2.12,22.76-3.87,32.65,8.72.71-.26,1.59.89,2.84,2.53,1.44,5.76,14.64,13.82,34.67,8.34,5.54,1.85,26.68-5.36,36.45,21.17,1,2.61,1.93,9,5.2,15.85,2.44,5.08,16.46,30.24,46.08,18.84,2.39-.92,7.33-5.67,13.63-4.31,7.31,1.58,53.77-8.78,44.37,37.4,0,0-.73,41.65,60.13,26.26a183.13,183.13,0,0,1,22.08-4c24.62-3.15,32.87,23.68,34.38,42.76"/><path class="cls-30" d="M45.4,16.12S75.35,7.87,74.47,28.75c2.67,1,2.88,15.33,13.91,17.76,3.09.68,9,3.34,19.05,3.06,3.06,2,22.92-4.31,32.57,9,.67-.24,1.52,1,2.75,2.71,1.5,6,14.43,14.55,34.54,8.63,5.26,1.76,26.89-6.14,36.83,20.63,1,2.71,1.94,9.11,5.17,15.91,2.29,4.84,16.31,30.5,46.13,19,2.48-1,7.38-5.86,13.63-4.46,6.93,1.55,54.1-9.39,44.15,37.44,0,0-1.12,41.79,60.37,25.57a170.64,170.64,0,0,1,22.11-4.13c25.56-3.28,32.23,25.39,33.63,43.58"/><path class="cls-31" d="M42.22,19.09s30.22-8.15,28.71,13.29c2.53.91,2.62,15.46,13.89,17.79,3.21.67,9.15,3.09,19.26,2.56C107,54.64,127.17,48,136.58,62c.64-.23,1.78.88,2.67,2.88,2.58,5.85,14.21,15.27,34.4,8.92,5,1.66,27.1-6.93,37.22,20.08,1,2.8,1.95,9.19,5.13,16,2.15,4.59,16.16,30.76,46.18,19.19,2.57-1,7.55-2.75,13.63-4.62,6.72.35,54.44-10,43.92,37.48,0,0-1.5,41.93,60.62,24.88a158.63,158.63,0,0,1,22.14-4.29c26.51-3.41,31.59,27.09,32.88,44.4"/><path class="cls-32" d="M39,22.07S69.53,14,67.39,36c2.38.87,2.37,15.6,13.86,17.83,3.34.65,9.36,2.84,19.49,2.06,2.74,1.8,23.25-5.18,32.42,9.53.6-.22,1.7,1,2.58,3.06,2.59,6.09,14,16,34.27,9.2,4.71,1.57,27.31-7.7,37.6,19.54,1.1,2.9,2,9.27,5.1,16,2,4.35,16,31,46.23,19.36,2.66-1,7.61-2.82,13.63-4.77,6.34.34,54.77-10.61,43.7,37.52,0,0-1.9,42.07,60.86,24.19a147.91,147.91,0,0,1,22.17-4.44c27.46-3.55,30.95,28.79,32.13,45.22"/><path class="cls-33" d="M35.84,25.05s30.77-8,28,14.58c2.25.82,2.12,15.73,13.85,17.87,3.46.63,9.56,2.59,19.7,1.56,2.58,1.69,23.42-5.62,32.35,9.79.57-.2,1.62,1.08,2.5,3.24,2.59,6.34,13.78,16.72,34.13,9.49,4.43,1.47,27.52-8.49,38,19,1.14,3,2,9.34,5.06,16.09,1.88,4.1,15.87,31.28,46.28,19.53,2.76-1.06,7.68-2.89,13.62-4.93,6,.32,55.12-11.21,43.49,37.56,0,0-2.29,42.22,61.1,23.5a141.59,141.59,0,0,1,22.2-4.6c28.4-3.67,30.31,30.5,31.38,46"/><path class="cls-34" d="M32.65,28S63.7,20.16,60.3,43.26c2.11.77,1.85,15.86,13.82,17.91,3.58.61,9.77,2.33,19.93,1,2.42,1.59,23.58-6,32.27,10.07.53-.19,1.53,1.18,2.41,3.41,2.59,6.59,13.57,17.45,34,9.78,4.16,1.38,27.73-9.28,38.37,18.45,1.19,3.1,2,9.42,5,16.16,1.74,3.85,15.72,31.54,46.33,19.7,2.85-1.1,7.74-3,13.62-5.08,5.6.3,55.45-11.82,43.26,37.59,0,0-2.67,42.37,61.35,22.81a133.73,133.73,0,0,1,22.24-4.75c29.34-3.81,29.66,32.21,30.62,46.86"/><path class="cls-35" d="M29.46,31s31.33-7.79,27.3,15.87c2,.72,1.58,16,13.8,18a56.11,56.11,0,0,0,20.15.55C93,66.88,114.45,58.9,122.9,75.73c.49-.18,1.45,1.27,2.33,3.58,2.58,6.84,13.34,18.18,33.86,10.07C163,90.67,187,79.32,197.85,107.29c1.23,3.19,2,9.49,5,16.21,1.61,3.61,15.57,31.81,46.38,19.88,2.94-1.13,7.81-3,13.62-5.23,5.23.27,55.79-12.43,43,37.63,0,0-3.06,42.51,61.58,22.12A128.32,128.32,0,0,1,389.74,193c30.29-3.94,29,33.91,29.87,47.68"/><path class="cls-36" d="M26.27,34s31.61-7.7,27,16.52c1.82.66,1.31,16.12,13.77,18a56,56,0,0,0,20.37,0c2.1,1.38,23.91-6.93,32.12,10.61.46-.17,1.37,1.37,2.24,3.76,2.59,7.08,13.13,18.9,33.73,10.35,3.6,1.2,28.14-10.84,39.14,17.37,1.28,3.29,2,9.56,5,16.27C201,130.28,215,159,246,147c3-1.17,7.88-3.11,13.62-5.39,4.85.25,56.12-13,42.82,37.66,0,0-3.45,42.67,61.82,21.43a122,122,0,0,1,22.31-5.05c31.23-4.08,28.39,35.61,29.12,48.49"/><path class="cls-37" d="M23.08,37S55,29.39,49.67,54.16c1.69.62,1,16.25,13.76,18A55.7,55.7,0,0,0,84,71.74c1.93,1.27,24.07-7.37,32,10.87.42-.15,1.28,1.47,2.15,3.94,2.59,7.32,12.92,19.62,33.6,10.63,3.33,1.11,28.35-11.63,39.53,16.83,1.33,3.38,2,9.64,4.93,16.34,1.35,3.1,15.27,32.32,46.47,20.22,3.12-1.21,7.94-3.18,13.62-5.54,4.48.23,56.46-13.65,42.59,37.7,0,0-3.82,42.82,62.07,20.74a117.63,117.63,0,0,1,22.34-5.21c32.18-4.22,27.75,37.32,28.38,49.31"/><path class="cls-38" d="M19.82,40S52,32.47,46.07,57.8c1.54.56.76,16.38,13.73,18.06a55.5,55.5,0,0,0,20.81-1c1.77,1.17,24.23-7.81,32,11.14.39-.14,1.2,1.56,2.08,4.12,2.58,7.56,12.7,20.34,33.46,10.91,3,1,28.56-12.41,39.91,16.29,1.38,3.48,2,9.71,4.9,16.4,1.22,2.85,15.12,32.58,46.52,20.4,3.21-1.24,8-3.26,13.61-5.7,4.11.22,56.8-14.25,42.38,37.74,0,0-4.21,43,62.31,20a114.23,114.23,0,0,1,22.37-5.37c33.12-4.35,27.11,39,27.62,50.14"/><path class="cls-39" d="M16.47,43s32.44-7.43,25.89,18.46c1.4.51.48,16.51,13.71,18.09a54.7,54.7,0,0,0,21-1.44c1.61,1.06,24.4-8.25,31.89,11.41.35-.13,1.11,1.65,2,4.29,2.58,7.8,12.48,21.07,33.33,11.2,2.77.92,28.76-13.2,40.29,15.75,1.42,3.57,2,9.78,4.86,16.45,1.1,2.6,15,32.85,46.57,20.58,3.3-1.28,8.08-3.33,13.62-5.86,3.73.2,57.13-14.86,42.15,37.79,0,0-4.59,43.12,62.55,19.35a110,110,0,0,1,22.41-5.52c34.06-4.49,26.46,40.73,26.87,50.95"/><path class="cls-40" d="M13.07,46S45.79,38.64,38.6,65.08c1.27.46.2,16.63,13.69,18.13,4.31.48,11,.81,21.26-1.95,1.45,1,24.55-8.68,31.81,11.68.31-.11,1,1.75,1.9,4.47,2.58,8,12.27,21.8,33.2,11.49,2.49.83,29-14,40.67,15.2,1.48,3.67,2.05,9.86,4.83,16.52,1,2.34,14.83,33.1,46.62,20.75,3.39-1.32,8.15-3.41,13.62-6,3.36.17,57.46-15.47,41.92,37.82,0,0-5,43.27,62.8,18.66a106.55,106.55,0,0,1,22.44-5.67c35-4.63,25.82,42.43,26.12,51.77"/><path class="cls-41" d="M9.63,49s33-7.24,25.18,19.76c1.13.41-.09,16.76,13.67,18.17,4.43.45,11.21.56,21.48-2.45,1.29.85,24.72-9.12,31.73,12,.28-.1,1,1.84,1.82,4.64,2.57,8.28,12,22.52,33.06,11.78,2.22.73,29.18-14.77,41.06,14.66,1.52,3.76,2.06,9.93,4.8,16.58.85,2.08,14.67,33.36,46.66,20.92,3.49-1.36,8.21-3.48,13.62-6.17,3,.16,57.8-16.07,41.7,37.86,0,0-5.35,43.43,63,18a103.25,103.25,0,0,1,22.47-5.83c36-4.77,25.19,44.14,25.37,52.59"/><path class="cls-42" d="M6.16,52S39.44,44.81,31,72.36c1,.36-.38,16.89,13.64,18.21,4.55.43,11.43.3,21.71-2.95,1.12.74,24.88-9.56,31.65,12.22.25-.09.86,1.93,1.73,4.82,2.58,8.52,11.84,23.24,32.94,12.06,1.93.64,29.38-15.56,41.44,14.12,1.57,3.86,2.06,10,4.76,16.64.74,1.83,14.5,33.56,46.72,21.09a149.29,149.29,0,0,0,13.61-6.32c2.61.14,58.13-16.68,41.48,37.9,0,0-5.73,43.58,63.28,17.28a100.6,100.6,0,0,1,22.5-6c36.91-4.91,24.55,45.84,24.63,53.41"/><path class="cls-43" d="M2.67,55S36.22,47.9,27.15,76c.84.3-.68,17,13.61,18.24,4.67.4,11.63,0,21.93-3.45,1,.64,25-10,31.57,12.49.22-.08.78,2,1.65,5,2.57,8.76,11.63,24,32.8,12.35,1.66.55,29.59-16.35,41.83,13.58,1.62,3.95,2.07,10.07,4.73,16.7.62,1.57,14.36,33.83,46.76,21.27a128.18,128.18,0,0,0,13.61-6.48c2.24.12,58.48-17.29,41.26,37.94,0,0-6.11,43.74,63.52,16.59A98.2,98.2,0,0,1,363,214.09c37.85-5.05,23.91,47.55,23.87,54.23"/><path class="cls-44" d="M-.85,58S33,51,23.28,79.65c.7.26-1,17.14,13.59,18.28,4.79.38,11.84-.2,22.15-4,.8.53,25.21-10.44,31.5,12.76.17-.06.69,2.11,1.56,5.17,2.57,9,11.41,24.7,32.67,12.63,1.38.46,29.79-17.13,42.21,13,1.67,4,2.08,10.14,4.69,16.76.52,1.31,14.22,34.1,46.82,21.44a111.09,111.09,0,0,0,13.6-6.63c1.87.1,58.81-17.9,41,38,0,0-6.49,43.9,63.76,15.91a96,96,0,0,1,22.58-6.3c38.79-5.19,23.26,49.25,23.12,55"/><path class="cls-45" d="M-4.38,61S29.73,54.08,19.39,83.3c.56.2-1.28,17.27,13.57,18.32,4.91.34,12-.46,22.37-4.45.64.42,25.37-10.88,31.42,13,.14,0,.61,2.2,1.48,5.34,2.57,9.24,11.19,25.43,32.53,12.92,1.11.37,30-17.92,42.6,12.5A90.58,90.58,0,0,1,168,157.77c.59,1,14.07,34.37,46.86,21.62a98.24,98.24,0,0,0,13.61-6.79c1.49.08,59.14-18.5,40.82,38,0,0-6.82,44.19,64,15.22a93.6,93.6,0,0,1,22.6-6.45c39.73-5.4,22.63,50.95,22.37,55.86"/><path class="cls-46" d="M-7.93,64s34.38-6.78,23.41,23c.42.16-1.57,17.4,13.56,18.36,5,.32,12.24-.71,22.58-5,.49.32,25.54-11.32,31.35,13.3.11,0,.52,2.29,1.39,5.51,2.57,9.48,11,26.15,32.4,13.21.83.28,30.21-18.71,43,11.95a85,85,0,0,1,4.63,16.89c.44.72,13.92,34.63,46.91,21.78a88.31,88.31,0,0,0,13.61-6.94c1.12.06,59.48-19.11,40.59,38,0,0-7.2,44.32,64.24,14.52,8.91-3.68,16.38-5.76,22.64-6.6,40.67-5.53,22,52.66,21.62,56.68"/><path class="cls-47" d="M-11.5,67s34.66-6.69,23.06,23.64c.29.1-1.87,17.52,13.53,18.4,5.15.29,12.46-1,22.81-5.46.33.22,25.7-11.75,31.27,13.57.07,0,.44,2.38,1.31,5.69,2.56,9.72,10.76,26.88,32.27,13.49.55.19,30.41-19.5,43.36,11.41a79.7,79.7,0,0,1,4.59,16.95c.3.48,13.78,34.9,47,22a80.67,80.67,0,0,0,13.61-7.1c.74,0,59.82-19.71,40.37,38.1,0,0-7.59,44.44,64.49,13.83,9-3.79,16.44-5.92,22.67-6.76,41.62-5.66,21.34,54.36,20.87,57.5"/><path class="cls-48" d="M-15.08,70s34.94-6.6,22.71,24.29c.14.05-2.18,17.65,13.51,18.43,5.27.27,12.66-1.22,23-6,.16.11,25.86-12.19,31.19,13.83,0,0,.35,2.47,1.23,5.87,2.56,10,10.54,27.6,32.13,13.78.28.09,30.61-20.29,43.75,10.87a74.89,74.89,0,0,1,4.55,17c.15.24,13.64,35.18,47,22.14A73.21,73.21,0,0,0,217.64,183c.37,0,60.15-20.33,40.15,38.13,0,0-8,44.57,64.73,13.14,9-3.9,16.51-6.08,22.7-6.91,42.56-5.79,20.71,56.06,20.12,58.32"/><path class="cls-49" d="M-18.67,73s35.22-6.5,22.36,24.94c0,0-4.46,31.77,36.74,12,0,0,26-12.63,31.11,14.1,0,0,4,39.26,33.14,20.11,0,0,40.34-27.6,48.66,27.39,0,0,17.08,44.89,60.66,14.9,0,0,60.49-20.93,39.92,38.17,0,0-8.36,44.7,65,12.45S361.8,287.54,361,289.1"/><path class="cls-49" d="M-22.06,75.28S13.16,68.78.3,100.22c0,0-4.46,31.78,36.74,12,0,0,26-12.63,31.11,14.1,0,0,4,39.26,33.14,20.11,0,0,40.48-27.56,48.79,27.49,0,0,16.33,44.86,60.48,15.17,0,0,60.54-20.93,40.55,37.89,0,0-8.35,44.72,64.61,12.59,71.74-31.54,44.35,48.23,43.44,51.4"/><path class="cls-49" d="M-25.48,77.62s35.21-6.5,22.35,24.94c0,0-4.45,31.77,36.74,12,0,0,26-12.63,31.12,14.11,0,0,4,39.25,33.13,20.1,0,0,40.62-27.52,48.92,27.58,0,0,15.59,44.83,60.3,15.46,0,0,60.59-20.95,41.17,37.6,0,0-8.33,44.75,64.26,12.74,70.14-30.85,45.79,45.94,44.78,50.72"/><path class="cls-49" d="M-28.95,80s35.22-6.5,22.36,24.94c0,0-4.46,31.77,36.74,12,0,0,26-12.63,31.11,14.1,0,0,4.05,39.26,33.14,20.11,0,0,40.75-27.48,49,27.67,0,0,14.83,44.8,60.11,15.73,0,0,60.65-21,41.8,37.32,0,0-8.31,44.78,63.89,12.89,68.56-30.15,47.24,43.65,46.13,50"/><path class="cls-49" d="M-32.46,82.28s35.22-6.5,22.36,24.94c0,0-4.46,31.78,36.74,12,0,0,26-12.63,31.11,14.1,0,0,4,39.26,33.14,20.11,0,0,40.89-27.44,49.18,27.77,0,0,14.08,44.76,59.93,16,0,0,60.7-21,42.42,37,0,0-8.29,44.8,63.54,13,67-29.44,48.68,41.37,47.46,49.36"/><path class="cls-49" d="M-36,84.62s35.22-6.5,22.36,24.94c0,0-4.46,31.77,36.74,12,0,0,26-12.64,31.11,14.1,0,0,4.05,39.25,33.14,20.11,0,0,41-27.41,49.31,27.85,0,0,13.33,44.74,59.75,16.29,0,0,60.75-21,43,36.75,0,0-8.27,44.83,63.18,13.18,65.37-28.75,50.13,39.07,48.81,48.68"/><path class="cls-49" d="M-39.63,87s35.22-6.5,22.36,24.94c0,0-4.46,31.78,36.73,12,0,0,26-12.63,31.12,14.1,0,0,4.05,39.26,33.14,20.11,0,0,41.17-27.37,49.44,27.95,0,0,12.58,44.7,59.57,16.56,0,0,60.8-21,43.66,36.47,0,0-8.25,44.85,62.83,13.32,63.77-28,51.56,36.79,50.14,48"/><path class="cls-49" d="M-43.3,89.28s35.22-6.5,22.36,24.94c0,0-4.46,31.78,36.74,12,0,0,26-12.63,31.11,14.11,0,0,4.05,39.25,33.14,20.1,0,0,41.3-27.33,49.57,28.05,0,0,11.83,44.67,59.39,16.84,0,0,60.86-21,44.28,36.18,0,0-8.23,44.88,62.47,13.47,62.18-27.34,53,34.5,51.49,47.33"/><path class="cls-49" d="M-47,91.62s35.21-6.5,22.35,24.94c0,0-4.45,31.77,36.74,12,0,0,26-12.64,31.12,14.1,0,0,4,39.26,33.13,20.11,0,0,41.45-27.3,49.71,28.14,0,0,11.08,44.63,59.21,17.11,0,0,60.9-21,44.9,35.9,0,0-8.29,44.75,62.11,13.61,60.52-26.77,54.46,32.22,52.83,46.66"/><path class="cls-49" d="M-50.81,94s35.22-6.5,22.36,24.94c0,0-4.45,31.78,36.74,12,0,0,26-12.63,31.12,14.1,0,0,4,39.26,33.13,20.11,0,0,41.58-27.25,49.84,28.23,0,0,10.33,44.61,59,17.4,0,0,61-21,45.53,35.61,0,0-8.28,44.76,61.75,13.76,58.93-26.08,55.91,29.93,54.17,46"/><path class="cls-49" d="M-54.63,96.28s35.22-6.5,22.35,24.94c0,0-4.45,31.78,36.74,12,0,0,26-12.63,31.12,14.11,0,0,4.05,39.25,33.14,20.1,0,0,41.71-27.21,50,28.33,0,0,9.57,44.57,58.84,17.67,0,0,61-21,46.14,35.33,0,0-8.26,44.77,61.4,13.91,57.32-25.4,57.35,27.63,55.5,45.29"/><path class="cls-49" d="M-58.49,98.62s35.22-6.5,22.35,24.94c0,0-4.45,31.77,36.74,12,0,0,26-12.63,31.12,14.1,0,0,4.05,39.26,33.14,20.11,0,0,41.85-27.18,50.1,28.42,0,0,8.82,44.54,58.66,17.94,0,0,61.06-21,46.76,35,0,0-8.25,44.77,61,14.05,55.73-24.71,58.79,25.35,56.85,44.62"/><path class="cls-49" d="M-62.37,101s35.21-6.5,22.35,24.94c0,0-4.45,31.78,36.74,12,0,0,26-12.63,31.12,14.1,0,0,4,39.26,33.13,20.11,0,0,42-27.14,50.24,28.51,0,0,8.07,44.51,58.47,18.23,0,0,61.12-21,47.39,34.76,0,0-8.24,44.78,60.69,14.2,54.12-24,60.23,23.06,58.18,43.94"/><path class="cls-49" d="M-66.27,103.28s35.22-6.5,22.36,24.95c0,0-4.46,31.77,36.74,12,0,0,26-12.63,31.11,14.11,0,0,4,39.25,33.14,20.1,0,0,42.13-27.1,50.37,28.61,0,0,7.32,44.48,58.29,18.5,0,0,61.17-21,48,34.47,0,0-8.23,44.8,60.33,14.35,52.52-23.32,61.68,20.78,59.52,43.27"/><path class="cls-49" d="M-70.17,105.62s35.22-6.5,22.36,24.94c0,0-4.46,31.77,36.73,12,0,0,26-12.63,31.12,14.1,0,0,4.05,39.26,33.14,20.11,0,0,42.27-27.07,50.5,28.7,0,0,6.57,44.44,58.11,18.77,0,0,61.22-21,48.63,34.19,0,0-8.22,44.8,60,14.5,50.93-22.64,63.12,18.49,60.86,42.59"/><path class="cls-49" d="M-74.08,108s35.22-6.5,22.36,24.94c0,0-4.46,31.78,36.74,12,0,0,26-12.63,31.11,14.1,0,0,4.05,39.26,33.14,20.11,0,0,42.41-27,50.63,28.79,0,0,5.82,44.42,57.93,19.06,0,0,61.27-21,49.26,33.9,0,0-8.22,44.81,59.61,14.64,49.32-21.94,64.56,16.21,62.2,41.91"/><path class="cls-49" d="M-78,110.29s35.22-6.5,22.36,24.94c0,0-4.46,31.77,36.74,12,0,0,26-12.63,31.11,14.11,0,0,4,39.25,33.14,20.1,0,0,42.55-27,50.76,28.89,0,0,5.07,44.38,57.75,19.33,0,0,61.33-21,49.88,33.62,0,0-8.21,44.82,59.25,14.79,47.73-21.25,66,13.91,63.54,41.23"/><path class="cls-49" d="M-81.9,112.62s35.22-6.5,22.36,24.94c0,0-4.46,31.77,36.74,12,0,0,26-12.63,31.11,14.1,0,0,4,39.26,33.14,20.11,0,0,42.68-26.95,50.89,29,0,0,4.32,44.35,57.57,19.61,0,0,61.38-21.06,50.5,33.33,0,0-8.2,44.83,58.89,14.93,46.14-20.55,67.46,11.63,64.89,40.56"/><path class="cls-49" d="M-85.81,115s35.22-6.5,22.35,24.94c0,0-4.45,31.78,36.74,12,0,0,26-12.63,31.12,14.1,0,0,4,39.26,33.14,20.11,0,0,42.82-26.91,51,29.07,0,0,3.57,44.32,57.38,19.89,0,0,61.43-21.07,51.13,33,0,0-8.19,44.83,58.53,15.08,44.54-19.86,68.9,9.34,66.23,39.88"/><path class="cls-49" d="M-89.73,117.29s35.22-6.5,22.36,24.94c0,0-4.46,31.77,36.74,12,0,0,26-12.64,31.11,14.1,0,0,4.05,39.25,33.14,20.11,0,0,43-26.88,51.16,29.16,0,0,2.81,44.29,57.2,20.16,0,0,61.48-21.07,51.74,32.77,0,0-8.17,44.84,58.18,15.23,42.94-19.17,70.35,7.05,67.57,39.2"/><path class="cls-49" d="M-93.64,119.62s35.22-6.5,22.35,24.94c0,0-4.45,31.78,36.74,12,0,0,26-12.63,31.12,14.1,0,0,4.05,39.26,33.14,20.11,0,0,43.09-26.84,51.28,29.26,0,0,2.07,44.25,57,20.44,0,0,61.54-21.08,52.37,32.48,0,0-8.17,44.85,57.82,15.37,41.35-18.47,71.79,4.77,68.91,38.53"/><path class="cls-49" d="M-97.56,122s35.22-6.5,22.36,24.94c0,0-4.46,31.78,36.74,12,0,0,26-12.63,31.11,14.11,0,0,4.05,39.25,33.14,20.1,0,0,43.24-26.79,51.42,29.35,0,0,1.31,44.23,56.84,20.72,0,0,61.59-21.09,53,32.2,0,0-8.16,44.85,57.46,15.52,39.75-17.77,73.24,2.47,70.24,37.84"/><path class="cls-49" d="M-101.47,124.29s35.21-6.5,22.35,24.94c0,0-4.45,31.77,36.74,12,0,0,26-12.64,31.12,14.1,0,0,4,39.26,33.13,20.11,0,0,43.38-26.76,51.56,29.44,0,0,.56,44.19,56.65,21,0,0,61.64-21.09,53.61,31.92,0,0-8.14,44.86,57.11,15.66,38.15-17.07,74.68.19,71.58,37.17"/><path class="cls-49" d="M-105.39,126.62s35.22-6.5,22.36,24.94c0,0-4.46,31.78,36.74,12,0,0,26-12.63,31.11,14.1,0,0,4,39.26,33.14,20.11,0,0,43.51-26.72,51.68,29.54,0,0-.19,44.16,56.48,21.27,0,0,61.69-21.1,54.23,31.63,0,0-8.14,44.87,56.75,15.81,36.55-16.37,76.12-2.1,72.92,36.49"/><path class="cls-49" d="M-109.31,129s35.22-6.5,22.36,24.94c0,0-4.46,31.78,36.74,12,0,0,26-12.63,31.11,14.11,0,0,4.05,39.25,33.14,20.1,0,0,43.65-26.68,51.82,29.63,0,0-.94,44.13,56.29,21.55,0,0,61.74-21.11,54.85,31.35,0,0-8.13,44.88,56.39,16,35-15.67,77.57-4.38,74.27,35.82"/><path class="cls-49" d="M-113.22,131.29s35.21-6.5,22.35,24.94c0,0-4.45,31.77,36.74,12,0,0,26-12.63,31.12,14.1,0,0,4,39.26,33.13,20.11,0,0,43.79-26.65,52,29.72,0,0-1.69,44.1,56.11,21.83,0,0,61.8-21.12,55.48,31.06,0,0-8.12,44.88,56,16.1,33.37-15,79-6.67,75.6,35.14"/><path class="cls-49" d="M-117.14,133.62s35.22-6.5,22.36,24.94c0,0-4.46,31.78,36.73,12,0,0,26-12.63,31.12,14.1,0,0,4.05,39.26,33.14,20.11,0,0,43.92-26.6,52.08,29.82,0,0-2.45,44.06,55.92,22.1,0,0,61.85-21.12,56.1,30.78,0,0-8.11,44.89,55.68,16.25,31.77-14.27,80.45-9,76.94,34.45"/><path class="cls-49" d="M-121.06,136s35.22-6.5,22.36,25c0,0-4.46,31.77,36.74,12,0,0,26-12.63,31.11,14.11,0,0,4.05,39.25,33.14,20.1,0,0,44.06-26.56,52.21,29.92,0,0-3.19,44,55.75,22.37,0,0,61.9-21.13,56.71,30.5,0,0-8.09,44.9,55.32,16.39,30.19-13.57,81.91-11.25,78.29,33.78"/><path class="cls-49" d="M-125,138.29s35.22-6.5,22.36,24.94c0,0-4.45,31.77,36.74,12,0,0,26-12.63,31.12,14.1,0,0,4,39.26,33.13,20.11,0,0,44.2-26.53,52.34,30,0,0-3.94,44,55.57,22.66,0,0,61.95-21.14,57.34,30.21,0,0-8.09,44.9,55,16.54C247.17,296,301.93,295.33,298.2,342"/><path class="cls-49" d="M-128.89,140.62s35.22-6.5,22.35,24.94c0,0-4.45,31.78,36.74,12,0,0,26-12.63,31.12,14.1,0,0,4,39.26,33.14,20.11,0,0,44.33-26.49,52.47,30.1,0,0-4.7,44,55.38,22.93,0,0,62-21.15,58,29.93,0,0-8.08,44.91,54.61,16.68,27-12.16,84.79-15.82,81,32.43"/><path class="cls-49" d="M-132.81,143s35.22-6.5,22.36,24.94c0,0-4.46,31.77,36.73,12,0,0,26-12.63,31.12,14.11,0,0,4.05,39.25,33.14,20.1,0,0,44.47-26.45,52.6,30.2,0,0-5.44,43.93,55.2,23.2,0,0,62.06-21.15,58.59,29.65,0,0-8.07,44.92,54.24,16.83,25.41-11.45,86.24-18.11,82.31,31.75"/><path class="cls-49" d="M-136.73,145.29s35.22-6.5,22.36,24.94c0,0-4.46,31.77,36.74,12,0,0,26-12.63,31.11,14.1,0,0,4.05,39.26,33.14,20.11,0,0,44.61-26.42,52.74,30.28,0,0-6.2,43.91,55,23.49,0,0,62.11-21.16,59.21,29.36,0,0-8.06,44.93,53.89,17,23.81-10.74,87.68-20.39,83.64,31.08"/><path class="cls-49" d="M-140.65,147.62s35.22-6.5,22.36,24.94c0,0-4.46,31.78,36.74,12,0,0,26-12.63,31.11,14.11,0,0,4,39.25,33.14,20.1,0,0,44.75-26.37,52.87,30.38,0,0-6.95,43.87,54.84,23.76,0,0,62.16-21.17,59.82,29.08,0,0-8,44.93,53.54,17.12,22.22-10,89.12-22.69,85,30.39"/><path class="cls-49" d="M-144.56,150s35.21-6.5,22.35,24.94c0,0-4.45,31.77,36.74,12,0,0,26-12.64,31.12,14.1,0,0,4,39.25,33.13,20.11,0,0,44.89-26.34,53,30.47,0,0-7.7,43.84,54.66,24,0,0,62.21-21.18,60.45,28.79,0,0-8,44.94,53.17,17.26,20.63-9.32,90.57-25,86.33,29.72"/><path class="cls-49" d="M-148.48,152.29s35.22-6.5,22.35,24.94c0,0-4.45,31.78,36.74,12,0,0,26-12.63,31.12,14.1,0,0,4.05,39.26,33.14,20.11,0,0,45-26.3,53.13,30.56,0,0-8.45,43.82,54.47,24.32,0,0,62.27-21.18,61.07,28.5,0,0-8,45,52.82,17.42,19-8.62,92-27.26,87.66,29"/><path class="cls-49" d="M-152.4,154.62s35.22-6.5,22.36,24.94c0,0-4.46,31.78,36.74,12,0,0,26-12.63,31.11,14.11,0,0,4,39.25,33.14,20.1,0,0,45.16-26.26,53.26,30.66,0,0-9.2,43.78,54.29,24.59,0,0,62.32-21.19,61.69,28.22,0,0-8,45,52.47,17.57,17.45-7.91,93.45-29.55,89,28.36"/><path class="cls-49" d="M-156.32,157s35.22-6.5,22.36,24.94c0,0-4.46,31.77,36.74,12,0,0,26-12.64,31.11,14.1,0,0,4,39.26,33.14,20.11,0,0,45.3-26.23,53.4,30.75,0,0-10,43.75,54.1,24.87,0,0,62.37-21.2,62.32,27.93,0,0-8,45,52.1,17.71,15.86-7.19,94.9-31.83,90.34,27.69"/><path class="cls-49" d="M-160.24,159.29s35.22-6.5,22.36,24.94c0,0-4.45,31.78,36.74,12,0,0,26-12.63,31.11,14.1,0,0,4,39.26,33.14,20.11,0,0,45.44-26.19,53.53,30.84,0,0-10.7,43.72,53.92,25.15,0,0,62.43-21.2,62.94,27.65,0,0-8,45,51.75,17.86,14.27-6.48,96.34-34.13,91.68,27"/><path class="cls-49" d="M-164.15,161.62s35.21-6.5,22.35,24.94c0,0-4.45,31.78,36.74,12,0,0,26-12.63,31.12,14.11,0,0,4,39.25,33.13,20.1,0,0,45.58-26.14,53.66,30.94,0,0-11.45,43.69,53.75,25.42,0,0,62.47-21.21,63.56,27.37,0,0-8,45,51.38,18,12.69-5.76,97.79-36.41,93,26.33"/><path class="cls-49" d="M-168.07,164s35.22-6.5,22.35,24.94c0,0-4.45,31.77,36.74,12,0,0,26-12.63,31.12,14.1,0,0,4,39.26,33.14,20.11,0,0,45.71-26.11,53.79,31,0,0-12.21,43.65,53.56,25.7,0,0,62.53-21.22,64.18,27.08,0,0-8,45,51,18.15,11.1-5,99.23-38.7,94.36,25.65"/><path class="cls-49" d="M-172,166.29s35.22-6.5,22.36,24.94c0,0-4.46,31.78,36.73,12,0,0,26-12.63,31.12,14.1,0,0,4,39.26,33.14,20.11,0,0,45.85-26.07,53.92,31.12,0,0-13,43.63,53.38,26,0,0,62.58-21.23,64.8,26.8,0,0-8,45,50.68,18.29,9.51-4.33,100.67-41,95.7,25"/><path class="cls-49" d="M-175.91,168.62s35.22-6.5,22.36,24.95c0,0-4.46,31.77,36.74,12,0,0,26-12.63,31.11,14.11,0,0,4,39.25,33.14,20.1,0,0,46-26,54.05,31.22,0,0-13.7,43.59,53.2,26.26,0,0,62.63-21.24,65.43,26.51,0,0-8,45,50.31,18.44,7.93-3.61,102.12-43.27,97,24.3"/><path class="cls-49" d="M-179.83,171s35.22-6.5,22.36,24.94c0,0-4.46,31.77,36.74,12,0,0,26-12.63,31.11,14.1,0,0,4.05,39.26,33.14,20.11,0,0,46.13-26,54.19,31.31,0,0-14.46,43.56,53,26.53,0,0,62.69-21.24,66.05,26.23,0,0-8,45,50,18.59,6.34-2.9,103.56-45.56,98.38,23.62"/><path class="cls-49" d="M-183.75,173.29s35.22-6.5,22.36,24.94c0,0-4.45,31.78,36.74,12,0,0,26-12.63,31.12,14.1,0,0,4,39.26,33.13,20.11,0,0,46.27-26,54.32,31.4,0,0-15.21,43.53,52.83,26.81,0,0,62.74-21.25,66.67,25.95,0,0-7.94,45,49.6,18.73,4.76-2.17,105-47.85,99.72,22.94"/><path class="cls-49" d="M-187.66,175.63s35.22-6.5,22.35,24.94c0,0-4.45,31.77,36.74,12,0,0,26-12.63,31.12,14.11,0,0,4,39.25,33.14,20.1,0,0,46.4-25.91,54.44,31.5,0,0-16,43.5,52.65,27.09,0,0,62.79-21.26,67.3,25.66,0,0-7.94,45,49.24,18.88,3.17-1.45,106.45-50.14,101.06,22.26"/><path class="cls-49" d="M-191.58,178s35.22-6.5,22.36,24.94c0,0-4.46,31.77,36.73,12,0,0,26-12.63,31.12,14.1,0,0,4.05,39.26,33.14,20.11,0,0,46.54-25.88,54.58,31.59,0,0-16.72,43.46,52.47,27.36,0,0,62.84-21.26,67.91,25.38,0,0-7.93,45,48.89,19,1.58-.72,107.89-52.42,102.4,21.59"/><path class="cls-49" d="M-195.5,180.29s35.22-6.5,22.36,24.94c0,0-4.46,31.78,36.74,12,0,0,26-12.63,31.11,14.11,0,0,4.05,39.25,33.14,20.1,0,0,46.68-25.84,54.71,31.68,0,0-17.46,43.44,52.29,27.64,0,0,62.89-21.27,68.53,25.1,0,0-7.51,45.92,48.53,19.17,0,0,109.35-54.71,103.74,20.91"/></g></svg>