<?xml version="1.0" encoding="utf-8"?>
<!-- Generator: Adobe Illustrator 23.0.6, SVG Export Plug-In . SVG Version: 6.00 Build 0)  -->
<svg version="1.1" id="Layer_1" xmlns="http://www.w3.org/2000/svg" xmlns:xlink="http://www.w3.org/1999/xlink" x="0px" y="0px"
	 viewBox="0 0 734 451" style="enable-background:new 0 0 734 451;" xml:space="preserve">
<style type="text/css">
	.st0{fill:none;stroke:#FBC43B;stroke-miterlimit:10;}
	.st1{fill:#F7BD1E;}
	.st2{fill:none;stroke:#F7BD1E;stroke-width:3;stroke-miterlimit:10;}
	.st3{fill:#FFFFFF;stroke:#FBC43B;stroke-width:3.5;stroke-miterlimit:10;}
	.st4{fill:#F9E2AC;stroke:#FBC43B;stroke-width:3.5;stroke-miterlimit:10;}
	.st5{fill:#FBC43B;}
	.st6{fill:#FFBFA9;}
	.st7{fill:none;}
	.st8{fill:none;stroke:#FF05C1;stroke-width:1.75;stroke-miterlimit:10;}
	.st9{fill:#FF05C1;}
	.st10{fill:#F9E2AC;stroke:#F7BD1E;stroke-width:2;stroke-miterlimit:10;}
	.st11{fill:#FF457A;}
	.st12{fill:none;stroke:#ED6A29;stroke-width:2;stroke-miterlimit:10;}
	.st13{fill:none;stroke:#FBC43B;stroke-width:2;stroke-miterlimit:10;}
	.st14{fill:none;stroke:#FBC43B;stroke-width:1.9783;stroke-miterlimit:10;}
	.st15{fill:none;stroke:#FBC43B;stroke-width:1.9565;stroke-miterlimit:10;}
	.st16{fill:none;stroke:#FBC43B;stroke-width:1.9348;stroke-miterlimit:10;}
	.st17{fill:none;stroke:#FBC43B;stroke-width:1.913;stroke-miterlimit:10;}
	.st18{fill:none;stroke:#FBC43B;stroke-width:1.8913;stroke-miterlimit:10;}
	.st19{fill:none;stroke:#FBC43B;stroke-width:1.8696;stroke-miterlimit:10;}
	.st20{fill:none;stroke:#FBC43B;stroke-width:1.8478;stroke-miterlimit:10;}
	.st21{fill:none;stroke:#FBC43B;stroke-width:1.8261;stroke-miterlimit:10;}
	.st22{fill:none;stroke:#FBC43B;stroke-width:1.8043;stroke-miterlimit:10;}
	.st23{fill:none;stroke:#FBC43B;stroke-width:1.7826;stroke-miterlimit:10;}
	.st24{fill:none;stroke:#FBC43B;stroke-width:1.7609;stroke-miterlimit:10;}
	.st25{fill:none;stroke:#FBC43B;stroke-width:1.7391;stroke-miterlimit:10;}
	.st26{fill:none;stroke:#FBC43B;stroke-width:1.7174;stroke-miterlimit:10;}
	.st27{fill:none;stroke:#FBC43B;stroke-width:1.6957;stroke-miterlimit:10;}
	.st28{fill:none;stroke:#FBC43B;stroke-width:1.6739;stroke-miterlimit:10;}
	.st29{fill:none;stroke:#FBC43B;stroke-width:1.6522;stroke-miterlimit:10;}
	.st30{fill:none;stroke:#FBC43B;stroke-width:1.6304;stroke-miterlimit:10;}
	.st31{fill:none;stroke:#FBC43B;stroke-width:1.6087;stroke-miterlimit:10;}
	.st32{fill:none;stroke:#FBC43B;stroke-width:1.587;stroke-miterlimit:10;}
	.st33{fill:none;stroke:#FBC43B;stroke-width:1.5652;stroke-miterlimit:10;}
	.st34{fill:none;stroke:#FBC43B;stroke-width:1.5435;stroke-miterlimit:10;}
	.st35{fill:none;stroke:#FBC43B;stroke-width:1.5217;stroke-miterlimit:10;}
	.st36{fill:none;stroke:#FBC43B;stroke-width:1.5;stroke-miterlimit:10;}
	.st37{fill:none;stroke:#FBC43B;stroke-width:1.4783;stroke-miterlimit:10;}
	.st38{fill:none;stroke:#FBC43B;stroke-width:1.4565;stroke-miterlimit:10;}
	.st39{fill:none;stroke:#FBC43B;stroke-width:1.4348;stroke-miterlimit:10;}
	.st40{fill:none;stroke:#FBC43B;stroke-width:1.413;stroke-miterlimit:10;}
	.st41{fill:none;stroke:#FBC43B;stroke-width:1.3913;stroke-miterlimit:10;}
	.st42{fill:none;stroke:#FBC43B;stroke-width:1.3696;stroke-miterlimit:10;}
	.st43{fill:none;stroke:#FBC43B;stroke-width:1.3478;stroke-miterlimit:10;}
	.st44{fill:none;stroke:#FBC43B;stroke-width:1.3261;stroke-miterlimit:10;}
	.st45{fill:none;stroke:#FBC43B;stroke-width:1.3043;stroke-miterlimit:10;}
	.st46{fill:none;stroke:#FBC43B;stroke-width:1.2826;stroke-miterlimit:10;}
	.st47{fill:none;stroke:#FBC43B;stroke-width:1.2609;stroke-miterlimit:10;}
	.st48{fill:none;stroke:#FBC43B;stroke-width:1.2391;stroke-miterlimit:10;}
	.st49{fill:none;stroke:#FBC43B;stroke-width:1.2174;stroke-miterlimit:10;}
	.st50{fill:none;stroke:#FBC43B;stroke-width:1.1957;stroke-miterlimit:10;}
	.st51{fill:none;stroke:#FBC43B;stroke-width:1.1739;stroke-miterlimit:10;}
	.st52{fill:none;stroke:#FBC43B;stroke-width:1.1522;stroke-miterlimit:10;}
	.st53{fill:none;stroke:#FBC43B;stroke-width:1.1304;stroke-miterlimit:10;}
	.st54{fill:none;stroke:#FBC43B;stroke-width:1.1087;stroke-miterlimit:10;}
	.st55{fill:none;stroke:#FBC43B;stroke-width:1.087;stroke-miterlimit:10;}
	.st56{fill:none;stroke:#FBC43B;stroke-width:1.0652;stroke-miterlimit:10;}
	.st57{fill:none;stroke:#FBC43B;stroke-width:1.0435;stroke-miterlimit:10;}
	.st58{fill:none;stroke:#FBC43B;stroke-width:1.0217;stroke-miterlimit:10;}
	.st59{clip-path:url(#SVGID_2_);}
	.st60{fill:none;stroke:#FFD845;stroke-width:2;stroke-miterlimit:10;}
	.st61{fill:none;stroke:#FFD845;stroke-width:1.9783;stroke-miterlimit:10;}
	.st62{fill:none;stroke:#FFD845;stroke-width:1.9565;stroke-miterlimit:10;}
	.st63{fill:none;stroke:#FFD845;stroke-width:1.9348;stroke-miterlimit:10;}
	.st64{fill:none;stroke:#FFD845;stroke-width:1.913;stroke-miterlimit:10;}
	.st65{fill:none;stroke:#FFD845;stroke-width:1.8913;stroke-miterlimit:10;}
	.st66{fill:none;stroke:#FFD845;stroke-width:1.8696;stroke-miterlimit:10;}
	.st67{fill:none;stroke:#FFD845;stroke-width:1.8478;stroke-miterlimit:10;}
	.st68{fill:none;stroke:#FFD845;stroke-width:1.8261;stroke-miterlimit:10;}
	.st69{fill:none;stroke:#FFD845;stroke-width:1.8043;stroke-miterlimit:10;}
	.st70{fill:none;stroke:#FFD845;stroke-width:1.7826;stroke-miterlimit:10;}
	.st71{fill:none;stroke:#FFD845;stroke-width:1.7609;stroke-miterlimit:10;}
	.st72{fill:none;stroke:#FFD845;stroke-width:1.7391;stroke-miterlimit:10;}
	.st73{fill:none;stroke:#FFD845;stroke-width:1.7174;stroke-miterlimit:10;}
	.st74{fill:none;stroke:#FFD845;stroke-width:1.6957;stroke-miterlimit:10;}
	.st75{fill:none;stroke:#FFD845;stroke-width:1.6739;stroke-miterlimit:10;}
	.st76{fill:none;stroke:#FFD845;stroke-width:1.6522;stroke-miterlimit:10;}
	.st77{fill:none;stroke:#FFD845;stroke-width:1.6304;stroke-miterlimit:10;}
	.st78{fill:none;stroke:#FFD845;stroke-width:1.6087;stroke-miterlimit:10;}
	.st79{fill:none;stroke:#FFD845;stroke-width:1.587;stroke-miterlimit:10;}
	.st80{fill:none;stroke:#FFD845;stroke-width:1.5652;stroke-miterlimit:10;}
	.st81{fill:none;stroke:#FFD845;stroke-width:1.5435;stroke-miterlimit:10;}
	.st82{fill:none;stroke:#FFD845;stroke-width:1.5217;stroke-miterlimit:10;}
	.st83{fill:none;stroke:#FFD845;stroke-width:1.5;stroke-miterlimit:10;}
	.st84{fill:none;stroke:#FFD845;stroke-width:1.4783;stroke-miterlimit:10;}
	.st85{fill:none;stroke:#FFD845;stroke-width:1.4565;stroke-miterlimit:10;}
	.st86{fill:none;stroke:#FFD845;stroke-width:1.4348;stroke-miterlimit:10;}
	.st87{fill:none;stroke:#FFD845;stroke-width:1.413;stroke-miterlimit:10;}
	.st88{fill:none;stroke:#FFD845;stroke-width:1.3913;stroke-miterlimit:10;}
	.st89{fill:none;stroke:#FFD845;stroke-width:1.3696;stroke-miterlimit:10;}
	.st90{fill:none;stroke:#FFD845;stroke-width:1.3478;stroke-miterlimit:10;}
	.st91{fill:none;stroke:#FFD845;stroke-width:1.3261;stroke-miterlimit:10;}
	.st92{fill:none;stroke:#FFD845;stroke-width:1.3043;stroke-miterlimit:10;}
	.st93{fill:none;stroke:#FFD845;stroke-width:1.2826;stroke-miterlimit:10;}
	.st94{fill:none;stroke:#FFD845;stroke-width:1.2609;stroke-miterlimit:10;}
	.st95{fill:none;stroke:#FFD845;stroke-width:1.2391;stroke-miterlimit:10;}
	.st96{fill:none;stroke:#FFD845;stroke-width:1.2174;stroke-miterlimit:10;}
	.st97{fill:none;stroke:#FFD845;stroke-width:1.1957;stroke-miterlimit:10;}
	.st98{fill:none;stroke:#FFD845;stroke-width:1.1739;stroke-miterlimit:10;}
	.st99{fill:none;stroke:#FFD845;stroke-width:1.1522;stroke-miterlimit:10;}
	.st100{fill:none;stroke:#FFD845;stroke-width:1.1304;stroke-miterlimit:10;}
	.st101{fill:none;stroke:#FFD845;stroke-width:1.1087;stroke-miterlimit:10;}
	.st102{fill:none;stroke:#FFD845;stroke-width:1.087;stroke-miterlimit:10;}
	.st103{fill:none;stroke:#FFD845;stroke-width:1.0652;stroke-miterlimit:10;}
	.st104{fill:none;stroke:#FFD845;stroke-width:1.0435;stroke-miterlimit:10;}
	.st105{fill:none;stroke:#FFD845;stroke-width:1.0217;stroke-miterlimit:10;}
	.st106{fill:none;stroke:#FFD845;stroke-miterlimit:10;}
	.st107{fill:none;stroke:#F7BD1E;stroke-width:1.5;stroke-miterlimit:10;}
	.st108{fill:none;stroke:#F7BD1E;stroke-width:4;stroke-miterlimit:10;}
	.st109{fill:none;stroke:#F7BD1E;stroke-miterlimit:10;}
	.st110{fill:none;stroke:#F7BD1E;stroke-width:10;stroke-miterlimit:10;}
	.st111{fill:none;stroke:#F7BD1E;stroke-width:9;stroke-miterlimit:10;}
</style>
<g>
	<path class="st12" d="M230.47,16.02c0,0,44.38-8.89,28.17,34.12c0,0-5.61,43.47,46.29,16.44c0,0,32.79-17.28,39.21,19.29
		c0,0,5.1,53.7,41.75,27.51c0,0,50.83-37.76,61.31,37.48c0,0,21.53,61.42,76.43,20.38c0,0,76.22-28.63,50.31,52.22
		c0,0-10.54,61.15,81.86,17.03s54.06,69.11,53.05,71.24"/>
	<path class="st12" d="M221.9,21.66c0,0,44.38-8.89,28.17,34.12c0,0-5.61,43.47,46.29,16.44c0,0,32.79-17.28,39.21,19.29
		c0,0,5.1,53.7,41.75,27.51c0,0,51.14-37.66,61.6,37.7c0,0,19.85,61.34,76.03,21.06c0,0,76.34-28.65,51.7,51.53
		c0,0-10.5,61.21,81.07,17.38c88.85-42.42,57.28,63.57,56.04,69.6"/>
	<path class="st12" d="M213.33,27.31c0,0,44.38-8.89,28.17,34.12c0,0-5.61,43.47,46.29,16.44c0,0,32.79-17.28,39.21,19.29
		c0,0,5.1,53.7,41.75,27.51c0,0,51.44-37.57,61.89,37.93c0,0,18.18,61.26,75.62,21.73c0,0,76.45-28.67,53.08,50.84
		c0,0-10.46,61.28,80.27,17.74c85.3-40.72,60.5,58.03,59.03,67.96"/>
	<path class="st12" d="M204.76,32.96c0,0,44.38-8.89,28.17,34.12c0,0-5.61,43.47,46.29,16.44c0,0,32.79-17.28,39.21,19.29
		c0,0,5.1,53.7,41.75,27.51c0,0,51.75-37.48,62.19,38.15c0,0,16.51,61.19,75.22,22.4c0,0,76.57-28.69,54.47,50.15
		c0,0-10.42,61.34,79.47,18.09c81.74-39.03,63.72,52.5,62.02,66.32"/>
	<path class="st12" d="M196.19,38.61c0,0,44.38-8.89,28.17,34.12c0,0-5.61,43.47,46.29,16.44c0,0,32.79-17.28,39.21,19.29
		c0,0,5.1,53.7,41.75,27.51c0,0,52.06-37.39,62.48,38.38c0,0,14.83,61.11,74.81,23.07c0,0,76.68-28.71,55.86,49.47
		c0,0-10.46,61.22,78.68,18.44c78.11-37.49,66.94,46.96,65,64.68"/>
	<path class="st12" d="M187.62,44.26c0,0,44.38-8.89,28.17,34.12c0,0-5.61,43.47,46.29,16.44c0,0,32.79-17.28,39.21,19.29
		c0,0,5.1,53.7,41.75,27.51c0,0,52.37-37.29,62.77,38.6c0,0,13.16,61.03,74.41,23.74c0,0,76.8-28.72,57.24,48.78
		c0,0-10.44,61.24,77.88,18.8c74.54-35.82,70.16,41.42,67.99,63.04"/>
	<path class="st12" d="M179.05,49.91c0,0,44.38-8.89,28.17,34.12c0,0-5.61,43.47,46.29,16.44c0,0,32.79-17.28,39.21,19.29
		c0,0,5.1,53.7,41.75,27.51c0,0,52.67-37.2,63.07,38.83c0,0,11.48,60.96,74,24.41c0,0,76.92-28.74,58.63,48.09
		c0,0-10.42,61.26,77.08,19.15c70.98-34.16,73.38,35.89,70.98,61.4"/>
	<path class="st12" d="M170.48,55.55c0,0,44.38-8.89,28.17,34.12c0,0-5.61,43.47,46.29,16.44c0,0,32.79-17.28,39.21,19.29
		c0,0,5.1,53.7,41.75,27.51c0,0,52.98-37.11,63.36,39.06c0,0,9.81,60.88,73.59,25.08c0,0,77.03-28.76,60.01,47.4
		c0,0-10.4,61.28,76.29,19.51c67.41-32.49,76.6,30.35,73.96,59.76"/>
	<path class="st12" d="M161.91,61.2c0,0,44.38-8.89,28.17,34.12c0,0-5.61,43.47,46.29,16.44c0,0,32.79-17.28,39.21,19.29
		c0,0,5.1,53.7,41.75,27.51c0,0,53.29-37.02,63.65,39.28c0,0,8.13,60.8,73.19,25.75c0,0,77.15-28.78,61.4,46.71
		c0,0-10.38,61.3,75.49,19.86c63.84-30.81,79.82,24.81,76.95,58.12"/>
	<path class="st12" d="M153.34,66.85c0,0,44.38-8.89,28.17,34.12c0,0-5.61,43.47,46.29,16.44c0,0,32.79-17.28,39.21,19.29
		c0,0,5.1,53.7,41.75,27.51c0,0,53.6-36.92,63.95,39.51c0,0,6.46,60.72,72.78,26.42c0,0,77.27-28.8,62.79,46.03
		c0,0-10.36,61.32,74.69,20.21c60.28-29.13,83.04,19.28,79.94,56.48"/>
	<path class="st12" d="M144.77,72.5c0,0,44.38-8.89,28.17,34.12c0,0-5.61,43.47,46.29,16.44c0,0,32.79-17.28,39.21,19.29
		c0,0,5.1,53.71,41.75,27.51c0,0,53.9-36.83,64.24,39.73c0,0,4.79,60.65,72.38,27.09c0,0,77.38-28.81,64.17,45.34
		c0,0-10.35,61.34,73.9,20.57c56.72-27.45,86.26,13.74,82.93,54.84"/>
	<path class="st12" d="M136.2,78.15c0,0,44.38-8.89,28.17,34.12c0,0-5.61,43.47,46.29,16.44c0,0,32.79-17.28,39.21,19.29
		c0,0,5.1,53.7,41.75,27.51c0,0,54.21-36.74,64.54,39.96c0,0,3.11,60.57,71.97,27.76c0,0,77.5-28.83,65.56,44.65
		c0,0-10.33,61.36,73.1,20.92c53.16-25.77,89.48,8.2,85.91,53.2"/>
	<path class="st12" d="M127.63,83.8c0,0,44.38-8.89,28.17,34.12c0,0-5.61,43.47,46.29,16.44c0,0,32.79-17.28,39.21,19.29
		c0,0,5.1,53.7,41.75,27.51c0,0,54.52-36.65,64.83,40.18c0,0,1.44,60.49,71.57,28.43c0,0,77.62-28.85,66.95,43.96
		c0,0-10.31,61.38,72.3,21.27c49.6-24.08,92.7,2.67,88.9,51.56"/>
	<path class="st12" d="M119.06,89.44c0,0,44.38-8.89,28.17,34.12c0,0-5.61,43.47,46.29,16.44c0,0,32.79-17.28,39.21,19.29
		c0,0,5.1,53.71,41.75,27.51c0,0,54.82-36.55,65.12,40.41c0,0-0.24,60.42,71.16,29.1c0,0,77.73-28.87,68.33,43.28
		c0,0-10.29,61.4,71.51,21.63c46.04-22.39,95.92-2.87,91.89,49.92"/>
	<path class="st12" d="M110.49,95.09c0,0,44.38-8.89,28.17,34.12c0,0-5.61,43.47,46.29,16.44c0,0,32.79-17.28,39.21,19.29
		c0,0,5.1,53.7,41.75,27.51c0,0,55.13-36.46,65.42,40.64c0,0-1.91,60.34,70.75,29.77c0,0,77.85-28.89,69.72,42.59
		c0,0-10.27,61.42,70.71,21.98c42.49-20.69,99.14-8.41,94.87,48.28"/>
	<path class="st12" d="M101.92,100.74c0,0,44.38-8.89,28.17,34.12c0,0-5.61,43.47,46.29,16.44c0,0,32.79-17.28,39.21,19.29
		c0,0,5.1,53.7,41.75,27.51c0,0,55.44-36.37,65.71,40.86c0,0-3.59,60.26,70.35,30.44c0,0,77.97-28.9,71.11,41.9
		c0,0-10.25,61.44,69.91,22.33c38.94-18.99,102.36-13.94,97.86,46.64"/>
	<path class="st12" d="M93.35,106.39c0,0,44.38-8.89,28.17,34.12c0,0-5.61,43.47,46.29,16.44c0,0,32.79-17.28,39.21,19.29
		c0,0,5.1,53.71,41.75,27.51c0,0,55.75-36.28,66,41.09c0,0-5.26,60.19,69.94,31.11c0,0,78.08-28.92,72.49,41.21
		c0,0-10.23,61.46,69.12,22.69c35.39-17.29,105.58-19.48,100.85,45"/>
	<path class="st12" d="M84.78,112.04c0,0,44.38-8.89,28.17,34.12c0,0-5.61,43.47,46.29,16.44c0,0,32.79-17.28,39.21,19.29
		c0,0,5.1,53.7,41.75,27.51c0,0,56.05-36.18,66.3,41.31c0,0-6.93,60.11,69.54,31.78c0,0,78.2-28.94,73.88,40.52
		c0,0-10.21,61.48,68.32,23.04c31.84-15.58,108.8-25.02,103.83,43.36"/>
	<path class="st12" d="M76.21,117.69c0,0,44.38-8.89,28.17,34.12c0,0-5.61,43.47,46.29,16.44c0,0,32.79-17.28,39.21,19.29
		c0,0,5.1,53.7,41.75,27.51c0,0,56.36-36.09,66.59,41.54c0,0-8.61,60.03,69.13,32.45c0,0,78.32-28.96,75.26,39.84
		c0,0-10.19,61.5,67.52,23.4c28.29-13.87,112.02-30.55,106.82,41.72"/>
	<path class="st12" d="M67.64,123.33c0,0,44.38-8.89,28.17,34.12c0,0-5.61,43.47,46.29,16.44c0,0,32.79-17.28,39.21,19.29
		c0,0,5.1,53.71,41.75,27.51c0,0,56.67-36,66.88,41.76c0,0-10.28,59.95,68.72,33.12c0,0,78.43-28.98,76.65,39.15
		c0,0-10.18,61.52,66.73,23.75c24.74-12.15,115.24-36.09,109.81,40.08"/>
	<path class="st12" d="M59.07,128.98c0,0,44.38-8.89,28.17,34.12c0,0-5.61,43.47,46.29,16.44c0,0,32.79-17.28,39.21,19.29
		c0,0,5.1,53.7,41.75,27.51c0,0,56.98-35.91,67.18,41.99c0,0-11.96,59.88,68.32,33.79c0,0,78.55-28.99,78.04,38.46
		c0,0-10.16,61.54,65.93,24.1c21.2-10.43,118.46-41.63,112.8,38.45"/>
	<path class="st12" d="M50.5,134.63c0,0,44.38-8.89,28.17,34.12c0,0-5.61,43.47,46.29,16.44c0,0,32.79-17.28,39.21,19.29
		c0,0,5.1,53.7,41.75,27.51c0,0,57.28-35.82,67.47,42.22c0,0-13.63,59.8,67.91,34.46c0,0,78.67-29.01,79.42,37.77
		c0,0-10.14,61.56,65.13,24.46c17.66-8.71,121.68-47.16,115.78,36.81"/>
	<path class="st12" d="M41.93,140.28c0,0,44.38-8.89,28.17,34.12c0,0-5.61,43.47,46.29,16.44c0,0,32.79-17.28,39.21,19.29
		c0,0,5.1,53.7,41.75,27.51c0,0,57.59-35.72,67.76,42.44c0,0-15.31,59.72,67.51,35.13c0,0,78.78-29.03,80.81,37.08
		c0,0-10.12,61.58,64.34,24.81c14.12-6.98,124.9-52.7,118.77,35.17"/>
	<path class="st12" d="M33.36,145.93c0,0,44.38-8.89,28.17,34.12c0,0-5.61,43.47,46.29,16.44c0,0,32.79-17.28,39.21,19.29
		c0,0,5.1,53.7,41.75,27.51c0,0,57.9-35.63,68.06,42.67c0,0-16.98,59.65,67.1,35.8c0,0,78.9-29.05,82.2,36.4
		c0,0-10.1,61.6,63.54,25.16c10.59-5.24,128.12-58.24,121.76,33.53"/>
	<path class="st12" d="M24.79,151.57c0,0,44.38-8.89,28.17,34.12c0,0-5.61,43.47,46.29,16.44c0,0,32.79-17.28,39.21,19.29
		c0,0,5.1,53.71,41.75,27.51c0,0,58.2-35.54,68.35,42.89c0,0-18.66,59.57,66.7,36.47c0,0,79.01-29.07,83.58,35.71
		c0,0-10.09,61.62,62.74,25.52c7.06-3.5,131.34-63.77,124.74,31.89"/>
	<path class="st12" d="M16.22,157.22c0,0,44.38-8.89,28.17,34.12c0,0-5.61,43.47,46.29,16.44c0,0,32.79-17.28,39.21,19.29
		c0,0,5.1,53.71,41.75,27.51c0,0,58.51-35.45,68.64,43.12c0,0-20.33,59.49,66.29,37.14c0,0,79.13-29.08,84.97,35.02
		c0,0-10.07,61.64,61.95,25.87c3.53-1.75,134.56-69.31,127.73,30.25"/>
	<path class="st12" d="M7.65,162.87c0,0,44.38-8.89,28.17,34.12c0,0-5.61,43.47,46.29,16.44c0,0,32.79-17.28,39.21,19.29
		c0,0,5.1,53.7,41.75,27.51c0,0,58.82-35.35,68.94,43.34c0,0-22,59.42,65.88,37.81c0,0,79.25-29.1,86.36,34.33
		c0,0-9.46,62.83,61.15,26.22c0,0,137.78-74.85,130.72,28.61"/>
</g>
<g>
	<defs>
		<circle id="SVGID_1_" cx="-252" cy="248" r="156"/>
	</defs>
	<clipPath id="SVGID_2_">
		<use xlink:href="#SVGID_1_"  style="overflow:visible;"/>
	</clipPath>
	<g class="st59">
		<path class="st60" d="M-314.47,5.12c0,0,43.97-21.03,53.12,11.89c0,0,11.4,34.55,52.75,16.26c0,0,59.37-14.79,64.6,36.18
			c0,0,9.86,43.23,50.91,28.59c0,0,56.31-6.95,63.8,36.12c0,0,12.41,50.75,75.05,44.26c0,0,49.51-20.63,53.9,21.48"/>
		<path class="st61" d="M-317.66,7.9c0,0,22.59-10.3,38.25-4.21c6.26,2.44,11.59,7.58,14.49,16.78c0.12,0.01,3.63,9.84,13.28,16.07
			c7.29,4.7,18.77,7.37,34.57,1.99c1.61-0.55,3.25-1.18,4.96-1.85c0.06,0.22,20.1-4.53,38,1.2c12.51,4,21.37,13.87,26.84,34.72
			c0.03,0.1,1.59,6.99,6.05,14.32c6.59,10.83,20.17,23.76,44.87,14.51c0.09-0.03,5.74-0.81,13.66-0.43
			c16.8,0.8,45.37,6.39,49.93,36.44c0,0,9.11,38.98,54.09,43.53c6.39,0.66,13.46,0.82,21.24-0.12c0.95-0.11,48.87-18.93,53.15,22.29
			"/>
		<path class="st62" d="M-320.85,10.68c0,0,22.71-9.88,37.9-3.56c6.07,2.52,11.28,7.8,14.47,16.82c0.23,0.01,3.89,9.5,13.5,15.57
			c7.17,4.53,19.01,7.21,34.49,2.26c1.58-0.51,3.18-1.1,4.88-1.68c0.11,0.44,19.94-4.02,37.87,1.48
			c12.28,3.77,21.59,13.12,27.23,34.18c0.06,0.21,1.61,7.07,6.02,14.38c6.41,10.62,20.02,24.02,44.92,14.68
			c0.18-0.07,5.81-0.92,13.65-0.59c16.43,0.7,45.71,5.79,49.7,36.47c0,0,8.74,39,54.33,42.84c6.45,0.54,13.53,0.66,21.27-0.27
			c1.9-0.23,48.23-17.22,52.4,23.11"/>
		<path class="st63" d="M-324.04,13.48c0,0,22.8-9.46,37.55-2.91c5.87,2.61,10.96,8.03,14.45,16.86c0.35,0.02,4.15,9.15,13.72,15.07
			c7.05,4.36,19.23,7.06,34.42,2.53c1.55-0.46,3.11-1.01,4.79-1.5c0.17,0.66,19.78-3.51,37.74,1.77
			c12.04,3.54,21.8,12.36,27.61,33.64c0.08,0.31,1.62,7.16,5.98,14.44c6.23,10.4,19.87,24.27,44.97,14.85
			c0.28-0.1,5.88-1.04,13.65-0.74c16.06,0.61,46.04,5.18,49.48,36.51c0,0,8.35,39.08,54.57,42.15c6.52,0.43,13.6,0.5,21.31-0.42
			c2.84-0.34,47.59-15.52,51.65,23.93"/>
		<path class="st64" d="M-327.23,16.28c0,0,22.86-9.06,37.19-2.27c5.67,2.69,10.65,8.26,14.43,16.9c0.47,0.02,4.4,8.8,13.94,14.57
			c6.93,4.19,19.44,6.92,34.34,2.8c1.53-0.42,3.05-0.93,4.71-1.33c0.22,0.89,19.61-3,37.6,2.05c11.8,3.32,22.02,11.6,28,33.1
			c0.11,0.41,1.64,7.24,5.95,14.5c6.05,10.18,19.72,24.53,45.02,15.03c0.37-0.14,5.94-1.15,13.65-0.9
			c15.69,0.51,46.38,4.57,49.26,36.55c0,0,7.96,39.16,54.81,41.46c6.57,0.32,13.67,0.35,21.34-0.58
			c3.79-0.46,46.95-13.81,50.9,24.75"/>
		<path class="st65" d="M-330.42,19.09c0,0,22.9-8.67,36.84-1.62c5.46,2.76,10.34,8.48,14.4,16.93c0.59,0.03,4.66,8.45,14.16,14.07
			c6.81,4.02,19.62,6.78,34.26,3.07c1.5-0.38,2.98-0.85,4.62-1.15c0.28,1.11,19.43-2.5,37.47,2.34
			c11.56,3.1,22.24,10.84,28.38,32.55c0.15,0.51,1.65,7.33,5.92,14.56c5.87,9.96,19.57,24.79,45.07,15.2
			c0.46-0.17,6.01-1.26,13.65-1.05c15.32,0.42,46.71,3.96,49.04,36.59c0,0,7.57,39.24,55.06,40.77c6.63,0.21,13.74,0.19,21.37-0.73
			c4.74-0.57,46.31-12.11,50.15,25.57"/>
		<path class="st66" d="M-333.61,21.92c0,0,22.91-8.29,36.49-0.97c5.26,2.83,10.03,8.71,14.38,16.97c0.7,0.03,4.91,8.1,14.39,13.57
			c6.68,3.85,19.79,6.65,34.19,3.33c1.47-0.34,2.92-0.76,4.54-0.98c0.33,1.33,19.24-1.99,37.34,2.63
			c11.31,2.89,22.45,10.08,28.76,32.01c0.18,0.62,1.67,7.41,5.88,14.63c5.69,9.73,19.43,25.05,45.12,15.37
			c0.55-0.21,6.1-1.84,13.65-1.21c14.9,1.25,47.05,3.36,48.81,36.63c0,0,7.18,39.33,55.3,40.08c6.69,0.1,13.81,0.03,21.41-0.89
			c5.69-0.69,45.67-10.41,49.4,26.39"/>
		<path class="st67" d="M-336.8,24.75c0,0,22.89-7.93,36.13-0.32c5.05,2.9,9.71,8.94,14.36,17.01c0.82,0.04,5.15,7.75,14.61,13.07
			c6.55,3.69,19.93,6.52,34.11,3.6c1.44-0.3,2.85-0.68,4.45-0.8c0.39,1.55,19.04-1.49,37.2,2.91c11.06,2.68,22.67,9.32,29.15,31.47
			c0.21,0.72,1.68,7.5,5.85,14.69c5.51,9.51,19.28,25.31,45.16,15.55c0.64-0.24,6.17-2.03,13.65-1.36
			c14.52,1.3,47.39,2.75,48.59,36.67c0,0,6.79,38.76,55.54,39.39c6.75,0.09,13.88-0.12,21.44-1.04c6.63-0.81,45.03-8.7,48.65,27.21"
			/>
		<path class="st68" d="M-339.99,28.13c0,0,24.67-10,35.78,0.32c5.33,1.94,9.4,9.16,14.34,17.05c0.94,0.04,5.4,7.39,14.83,12.57
			c6.42,3.53,20.05,6.39,34.03,3.87c1.41-0.25,2.78-0.6,4.37-0.63c0.44,1.77,18.84-0.99,37.07,3.2
			c10.81,2.49,22.88,8.55,29.53,30.93c0.24,0.82,1.7,7.58,5.81,14.75c5.33,9.29,19.13,25.57,45.21,15.72
			c0.74-0.28,6.24-2.22,13.65-1.52c14.14,1.35,47.72,2.14,48.37,36.71c0,0,6.39,39.51,55.78,38.7c6.81-0.11,13.95-0.28,21.47-1.2
			c7.58-0.93,44.39-7,47.9,28.03"/>
		<path class="st69" d="M-343.18,31.04c0,0,24.95-9.91,35.43,0.97c5.19,1.89,9.09,9.39,14.31,17.08c1.05,0.05,5.64,7.03,15.05,12.07
			c6.29,3.37,19.98,3.59,33.96,4.14c1.31-0.47,2.72-0.52,4.28-0.45c0.5,1.99,18.63-0.5,36.94,3.48c10.55,2.3,23.09,7.79,29.92,30.39
			c0.28,0.92,1.71,7.67,5.78,14.81c5.16,9.06,18.98,25.83,45.26,15.89c0.83-0.31,6.3-2.41,13.65-1.67
			c13.76,1.39,48.06,1.54,48.15,36.74c0,0,5.99,39.6,56.02,38.01c6.87-0.22,14.02-0.43,21.51-1.35c8.53-1.04,43.75-5.29,47.14,28.84
			"/>
		<path class="st70" d="M-346.37,33.96c0,0,25.23-9.82,35.08,1.62c5.05,1.84,8.77,9.62,14.29,17.12c1.17,0.05,5.88,6.67,15.27,11.57
			c6.16,3.21,20.15,3.15,33.88,4.41c1.28-0.46,2.65-0.43,4.2-0.27c0.56,2.21,18.41,0,36.8,3.77c10.29,2.11,23.31,7.02,30.3,29.84
			c0.31,1.02,1.73,7.75,5.75,14.87c4.99,8.84,18.83,26.09,45.31,16.07c0.92-0.35,6.37-2.6,13.64-1.83
			c13.38,1.43,48.39,0.93,47.93,36.78c0,0,5.6,39.7,56.26,37.31c6.93-0.33,14.09-0.59,21.54-1.51c9.47-1.16,43.11-3.59,46.39,29.66"
			/>
		<path class="st71" d="M-349.56,36.88c0,0,25.51-9.72,34.72,2.27c4.91,1.79,8.46,9.84,14.27,17.16c1.29,0.06,6.11,6.31,15.49,11.07
			c6.02,3.05,20.31,2.71,33.8,4.68c1.24-0.45,2.58-0.35,4.11-0.1c0.61,2.44,18.18,0.49,36.67,4.06c10.03,1.93,23.52,6.26,30.69,29.3
			c0.35,1.12,1.74,7.83,5.71,14.93c4.81,8.61,18.69,26.35,45.36,16.24c1.01-0.38,6.44-2.79,13.64-1.98
			c13,1.46,48.73,0.32,47.7,36.82c0,0,5.2,39.81,56.51,36.62c6.99-0.43,14.16-0.75,21.57-1.66c10.42-1.28,42.47-1.88,45.64,30.48"/>
		<path class="st72" d="M-352.75,39.8c0,0,25.78-9.63,34.37,2.92c4.77,1.74,8.15,10.07,14.25,17.2c1.4,0.06,6.34,5.95,15.72,10.56
			c5.88,2.9,20.47,2.27,33.73,4.95c1.21-0.43,2.52-0.27,4.03,0.08c0.67,2.66,17.95,0.98,36.53,4.34
			c9.77,1.76,23.73,5.49,31.07,28.76c0.39,1.22,1.76,7.91,5.68,14.99c4.64,8.38,18.54,26.61,45.41,16.41
			c1.1-0.42,6.5-2.99,13.64-2.14c12.62,1.5,49.07-0.29,47.48,36.86c0,0,4.8,39.91,56.75,35.93c7.05-0.54,14.23-0.9,21.61-1.81
			c11.37-1.4,41.83-0.18,44.89,31.3"/>
		<path class="st73" d="M-355.94,42.73c0,0,26.06-9.54,34.02,3.56c4.63,1.68,7.84,10.3,14.22,17.23c1.52,0.07,6.57,5.58,15.94,10.06
			c5.74,2.75,20.64,1.83,33.65,5.22c1.17-0.42,2.45-0.18,3.94,0.25c0.72,2.88,17.71,1.48,36.4,4.63c9.5,1.6,23.95,4.72,31.45,28.22
			c0.42,1.32,1.77,8,5.64,15.05c4.48,8.15,18.39,26.87,45.46,16.59c1.2-0.45,6.57-3.18,13.64-2.29c12.24,1.53,49.4-0.89,47.26,36.9
			c0,0,4.41,40.02,56.99,35.24c7.11-0.65,14.29-1.06,21.64-1.97c12.32-1.52,41.19,1.53,44.14,32.12"/>
		<path class="st74" d="M-359.13,45.66c0,0,26.34-9.45,33.66,4.21c4.49,1.63,7.52,10.52,14.2,17.27c1.64,0.07,6.79,5.22,16.16,9.56
			c5.6,2.6,20.8,1.4,33.57,5.49c1.13-0.41,2.39-0.1,3.86,0.43c0.78,3.1,19.44-4,36.27,4.91c8.25,4.37,24.16,3.95,31.84,27.67
			c0.46,1.42,1.78,8.08,5.61,15.11c4.31,7.92,18.24,27.13,45.5,16.76c1.29-0.49,6.63-3.37,13.64-2.45
			c11.86,1.56,49.74-1.5,47.04,36.94c0,0,4.01,40.13,57.23,34.55c7.17-0.75,14.36-1.22,21.67-2.12
			c13.26-1.64,40.55,3.23,43.39,32.94"/>
		<path class="st75" d="M-362.32,48.6c0,0,26.62-9.36,33.31,4.86c4.35,1.58,7.21,10.75,14.18,17.31c1.76,0.08,7.01,4.85,16.38,9.06
			c5.45,2.45,20.96,0.96,33.49,5.76c1.1-0.4,2.32-0.02,3.77,0.6c0.83,3.32,17.01,5.84,36.13,5.2c8.59,2.86,24.37,3.18,32.22,27.13
			c0.5,1.52,1.8,8.16,5.58,15.18c4.14,7.69,18.09,27.39,45.55,16.93c1.38-0.53,6.69-3.56,13.64-2.6
			c11.48,1.58,50.07-2.11,46.81,36.97c0,0,3.61,40.24,57.47,33.86c7.22-0.86,14.43-1.37,21.71-2.28
			c14.21-1.77,39.91,4.93,42.64,33.76"/>
		<path class="st76" d="M-365.51,51.54c0,0,26.89-9.26,32.96,5.51c4.21,1.53,6.9,10.98,14.16,17.35c1.87,0.08,7.23,4.48,16.6,8.56
			c5.3,2.31,21.13,0.52,33.42,6.03c1.06-0.38,2.25,0.07,3.69,0.78c0.89,3.54,16.8,6.56,36,5.49c8.31,2.77,24.58,2.41,32.61,26.59
			c0.54,1.62,1.81,8.24,5.54,15.24c3.98,7.46,17.94,27.65,45.6,17.11c1.47-0.56,6.75-3.75,13.64-2.76
			c11.1,1.6,50.41-2.71,46.59,37.01c0,0,3.22,40.36,57.72,33.17c7.28-0.96,14.5-1.53,21.74-2.43c15.16-1.89,39.27,6.64,41.89,34.58"
			/>
		<path class="st77" d="M-368.7,54.49c0,0,27.17-9.17,32.6,6.15c4.07,1.48,6.58,11.2,14.13,17.38c1.99,0.09,6.88,5.88,16.83,8.06
			c4.67,3.07,21.29,0.08,33.34,6.3c1.03-0.37,2.19,0.15,3.6,0.95c0.94,3.76,16.58,7.29,35.87,5.77c8.03,2.67,24.79,1.63,32.99,26.05
			c0.58,1.72,1.82,8.32,5.51,15.3c3.82,7.23,17.79,27.91,45.65,17.28c1.56-0.6,6.82-3.94,13.64-2.91
			c10.72,1.62,50.75-3.32,46.37,37.05c0,0,2.82,40.48,57.96,32.48c7.34-1.07,14.57-1.69,21.77-2.59
			c16.1-2.01,38.63,8.34,41.14,35.39"/>
		<path class="st78" d="M-371.89,57.44c0,0,27.45-9.08,32.25,6.8c3.93,1.43,6.27,11.43,14.11,17.42c2.11,0.09,7.08,5.63,17.05,7.56
			c4.51,2.97,21.45-0.36,33.26,6.57c0.99-0.36,2.12,0.23,3.52,1.13c1,3.99,16.37,8.01,35.73,6.06c7.76,2.58,25.01,0.86,33.38,25.51
			c0.62,1.82,1.84,8.4,5.47,15.36c3.66,6.99,17.65,28.17,45.7,17.45c1.65-0.63,6.88-4.13,13.64-3.07
			c10.34,1.63,51.08-3.93,46.15,37.09c0,0,2.42,40.6,58.2,31.79c7.4-1.17,14.64-1.84,21.81-2.74c17.05-2.13,37.99,10.05,40.39,36.21
			"/>
		<path class="st79" d="M-375.08,60.39c0,0,27.73-8.99,31.9,7.45c3.79,1.38,5.96,11.66,14.09,17.46c2.22,0.1,7.29,5.37,17.27,7.06
			c4.35,2.86,21.62-0.8,33.19,6.83c0.96-0.34,2.05,0.31,3.43,1.31c1.06,4.21,16.15,8.74,35.6,6.34c7.48,2.49,25.22,0.08,33.76,24.96
			c0.66,1.92,1.85,8.48,5.44,15.42c3.5,6.76,17.5,28.43,45.75,17.63c1.75-0.67,6.94-4.32,13.63-3.22
			c9.96,1.64,51.42-4.54,45.93,37.13c0,0,2.03,40.72,58.44,31.1c7.46-1.27,14.71-2,21.84-2.9c18-2.26,37.35,11.75,39.64,37.03"/>
		<path class="st80" d="M-378.27,63.35c0,0,28-8.89,31.54,8.1c3.65,1.33,5.64,11.88,14.07,17.5c2.34,0.1,7.5,5.12,17.49,6.56
			c4.19,2.76,21.78-1.23,33.11,7.1c0.92-0.33,1.99,0.4,3.35,1.48c1.11,4.43,15.94,9.46,35.47,6.63c7.2,2.4,25.43-0.69,34.14,24.42
			c0.7,2.02,1.86,8.56,5.41,15.48c3.34,6.52,17.35,28.69,45.8,17.8c1.84-0.7,6.99-4.52,13.63-3.38c9.58,1.64,51.75-5.14,45.7,37.17
			c0,0,1.63,40.85,58.68,30.41c7.52-1.38,14.78-2.16,21.87-3.05c18.94-2.38,36.71,13.46,38.89,37.85"/>
		<path class="st81" d="M-381.46,66.31c0,0,28.28-8.8,31.19,8.75c3.51,1.28,5.33,12.11,14.04,17.53c2.46,0.11,7.7,4.87,17.71,6.06
			c4.03,2.65,21.94-1.67,33.03,7.37c0.89-0.32,1.92,0.48,3.26,1.66c1.17,4.65,15.72,10.19,35.33,6.92
			c6.92,2.31,25.64-1.47,34.53,23.88c0.74,2.12,1.87,8.64,5.37,15.54c3.19,6.28,17.2,28.95,45.84,17.97
			c1.93-0.74,7.05-4.71,13.63-3.53c9.2,1.64,52.09-5.75,45.48,37.21c0,0,1.24,40.98,58.92,29.72c7.58-1.48,14.85-2.31,21.91-3.2
			c19.89-2.51,36.07,15.16,38.14,38.67"/>
		<path class="st82" d="M-384.65,69.27c0,0,28.56-8.71,30.84,9.39c3.37,1.23,5.02,12.34,14.02,17.57c2.58,0.11,7.91,4.61,17.93,5.56
			c3.87,2.54,22.11-2.11,32.96,7.64c0.85-0.31,1.85,0.56,3.18,1.83c1.22,4.87,15.5,10.92,35.2,7.2c6.65,2.21,25.85-2.24,34.91,23.34
			c0.79,2.22,1.89,8.72,5.34,15.6c3.03,6.05,17.05,29.21,45.89,18.15c2.02-0.77,7.11-4.9,13.63-3.69
			c8.82,1.64,52.43-6.36,45.26,37.24c0,0,0.84,41.11,59.17,29.03c7.64-1.58,14.92-2.47,21.94-3.36
			c20.83-2.64,35.43,16.87,37.38,39.49"/>
		<path class="st83" d="M-387.84,72.23c0,0,28.84-8.62,30.48,10.04c3.23,1.17,4.71,12.56,14,17.61c2.69,0.12,8.12,4.36,18.16,5.06
			c3.7,2.44,22.27-2.55,32.88,7.91c0.82-0.29,1.79,0.65,3.09,2.01c1.28,5.09,15.29,11.64,35.07,7.49c6.37,2.12,26.06-3.02,35.3,22.8
			c0.83,2.31,1.9,8.8,5.3,15.66c2.88,5.81,16.9,29.47,45.94,18.32c2.11-0.81,7.16-5.09,13.63-3.84c8.44,1.63,52.76-6.96,45.04,37.28
			c0,0,0.45,41.24,59.41,28.33c7.7-1.68,14.99-2.63,21.97-3.51c21.78-2.76,34.79,18.57,36.63,40.31"/>
		<path class="st84" d="M-391.03,75.2c0,0,29.11-8.53,30.13,10.69c3.09,1.12,4.39,12.79,13.98,17.65c2.81,0.12,8.32,4.11,18.38,4.56
			c3.54,2.33,22.43-2.99,32.8,8.18c0.78-0.28,1.72,0.73,3.01,2.18c1.33,5.31,15.07,12.37,34.93,7.77
			c6.09,2.03,26.27-3.8,35.68,22.25c0.87,2.41,1.91,8.88,5.27,15.72c2.73,5.57,16.76,29.73,45.99,18.49c2.2-0.85,7.22-5.29,13.63-4
			c8.06,1.62,53.1-7.57,44.82,37.32c0,0,0.06,41.38,59.65,27.64c7.76-1.79,15.06-2.78,22.01-3.67
			c22.73-2.89,34.15,20.27,35.88,41.13"/>
		<path class="st85" d="M-394.22,78.17c0,0,29.39-8.43,29.78,11.34c2.95,1.07,4.08,13.01,13.95,17.68c2.93,0.13,8.53,3.85,18.6,4.06
			c3.38,2.23,22.6-3.43,32.73,8.45c0.74-0.27,1.66,0.81,2.92,2.36c1.39,5.54,14.86,13.09,34.8,8.06
			c5.82,1.94,26.48-4.58,36.06,21.71c0.92,2.51,1.92,8.96,5.24,15.79c2.58,5.32,16.61,29.99,46.04,18.67
			c2.3-0.88,7.27-5.48,13.63-4.15c7.68,1.6,53.43-8.18,44.59,37.36c0,0-0.34,41.51,59.89,26.95c7.82-1.89,15.13-2.94,22.04-3.82
			c23.67-3.02,33.51,21.98,35.13,41.94"/>
	</g>
</g>
</svg>
