<svg id="Layer_1" data-name="Layer 1" xmlns="http://www.w3.org/2000/svg" viewBox="0 0 759 498"><defs><style>.cls-1{fill:none;stroke:#fbc43b;stroke-miterlimit:10;}</style></defs><title>wave</title><path class="cls-1" d="M242.37,37.58s44.37-8.9,28.17,34.12c0,0-5.62,43.47,46.29,16.44,0,0,32.79-17.28,39.21,19.29,0,0,5.1,53.71,41.75,27.51,0,0,50.83-37.75,61.31,37.48,0,0,21.53,61.42,76.43,20.38,0,0,76.22-28.63,50.31,52.22,0,0-10.54,61.15,81.87,17s54.06,69.11,53,71.24"/><path class="cls-1" d="M237.52,40.77s44.38-8.89,28.17,34.12c0,0-5.61,43.47,46.3,16.44,0,0,32.79-17.28,39.2,19.3,0,0,5.1,53.7,41.76,27.5,0,0,51-37.7,61.47,37.61,0,0,20.58,61.37,76.21,20.76,0,0,76.28-28.64,51.09,51.83,0,0-10.52,61.18,81.41,17.23,90.4-43.16,55.88,66,54.75,70.31"/><path class="cls-1" d="M232.68,44s44.38-8.89,28.17,34.12c0,0-5.61,43.47,46.29,16.44,0,0,32.79-17.28,39.21,19.3,0,0,5.1,53.7,41.75,27.51,0,0,51.18-37.65,61.64,37.73,0,0,19.64,61.33,76,21.14,0,0,76.35-28.65,51.88,51.44,0,0-10.5,61.22,81,17.43,88.39-42.2,57.7,62.85,56.43,69.39"/><path class="cls-1" d="M227.84,47.15S272.21,38.26,256,81.27c0,0-5.62,43.48,46.29,16.45,0,0,32.79-17.28,39.21,19.29,0,0,5.1,53.71,41.75,27.51,0,0,51.35-37.6,61.8,37.86,0,0,18.69,61.29,75.75,21.52,0,0,76.42-28.67,52.66,51,0,0-10.47,61.26,80.51,17.63C740.36,231.34,713.5,332.3,712.1,341"/><path class="cls-1" d="M223,50.35s44.38-8.9,28.17,34.12c0,0-5.61,43.47,46.29,16.44,0,0,32.8-17.28,39.21,19.29,0,0,5.1,53.71,41.76,27.51,0,0,51.52-37.54,62,38,0,0,17.74,61.24,75.51,21.9,0,0,76.49-28.68,53.45,50.66,0,0-10.45,61.29,80.06,17.83,84.37-40.28,61.34,56.59,59.81,67.53"/><path class="cls-1" d="M218.15,53.54s44.38-8.89,28.17,34.12c0,0-5.61,43.47,46.29,16.44,0,0,32.79-17.28,39.21,19.3,0,0,5.1,53.7,41.75,27.5,0,0,51.7-37.49,62.14,38.12,0,0,16.8,61.2,75.29,22.28,0,0,76.54-28.69,54.22,50.27,0,0-10.42,61.33,79.62,18,82.36-39.32,63.16,53.46,61.49,66.61"/><path class="cls-1" d="M213.3,56.73s44.38-8.89,28.18,34.12c0,0-5.62,43.47,46.29,16.44,0,0,32.79-17.28,39.2,19.3,0,0,5.1,53.7,41.76,27.51,0,0,51.87-37.45,62.3,38.24,0,0,15.85,61.15,75.06,22.66,0,0,76.61-28.7,55,49.88,0,0-10.4,61.37,79.16,18.23,80.36-38.36,65,50.33,63.19,65.68"/><path class="cls-1" d="M208.46,59.92S252.84,51,236.63,94c0,0-5.61,43.48,46.29,16.45,0,0,32.8-17.28,39.21,19.29,0,0,5.1,53.71,41.75,27.51,0,0,52.05-37.39,62.47,38.37,0,0,14.91,61.11,74.83,23,0,0,76.68-28.7,55.8,49.5,0,0-10.47,61.23,78.71,18.43,78.27-37.56,66.8,47.2,64.87,64.75"/><path class="cls-1" d="M203.62,63.12s44.37-8.9,28.17,34.12c0,0-5.62,43.47,46.29,16.44,0,0,32.79-17.28,39.21,19.29,0,0,5.1,53.71,41.75,27.51,0,0,52.22-37.34,62.63,38.5,0,0,14,61.07,74.6,23.41,0,0,76.75-28.71,56.58,49.11,0,0-10.45,61.24,78.26,18.63,76.26-36.62,68.62,44.07,66.57,63.83"/><path class="cls-1" d="M198.77,66.31s44.38-8.89,28.17,34.12c0,0-5.61,43.47,46.3,16.44,0,0,32.79-17.28,39.2,19.3,0,0,5.1,53.7,41.76,27.5,0,0,52.39-37.28,62.8,38.63,0,0,13,61,74.37,23.79,0,0,76.81-28.72,57.36,48.72,0,0-10.44,61.25,77.81,18.83,74.23-35.68,70.44,40.94,68.25,62.9"/><path class="cls-1" d="M193.93,69.5s44.38-8.89,28.17,34.12c0,0-5.61,43.47,46.29,16.44,0,0,32.79-17.28,39.21,19.3,0,0,5.1,53.7,41.75,27.51,0,0,52.57-37.24,63,38.75,0,0,12.06,61,74.14,24.17,0,0,76.88-28.73,58.15,48.33,0,0-10.43,61.26,77.36,19,72.21-34.74,72.26,37.81,69.93,62"/><path class="cls-1" d="M189.09,72.69s44.37-8.89,28.17,34.12c0,0-5.62,43.48,46.29,16.45,0,0,32.79-17.28,39.2,19.29,0,0,5.11,53.71,41.76,27.51,0,0,52.74-37.18,63.13,38.88,0,0,11.12,60.94,73.91,24.55,0,0,76.95-28.75,58.93,47.94,0,0-10.42,61.27,76.91,19.23,70.2-33.79,74.08,34.68,71.63,61"/><path class="cls-1" d="M184.24,75.89S228.62,67,212.41,110c0,0-5.61,43.47,46.29,16.44,0,0,32.8-17.28,39.21,19.29,0,0,5.1,53.71,41.76,27.51,0,0,52.91-37.13,63.29,39,0,0,10.18,60.89,73.69,24.93,0,0,77-28.76,59.71,47.55,0,0-10.41,61.28,76.46,19.43,68.18-32.85,75.9,31.55,73.31,60.12"/><path class="cls-1" d="M179.4,79.08s44.38-8.89,28.17,34.12c0,0-5.62,43.47,46.29,16.44,0,0,32.79-17.28,39.21,19.3,0,0,5.1,53.7,41.75,27.5,0,0,53.09-37.07,63.47,39.14,0,0,9.22,60.85,73.45,25.31,0,0,77.07-28.77,60.49,47.16,0,0-10.39,61.29,76,19.63,66.17-31.9,77.72,28.43,75,59.19"/><path class="cls-1" d="M174.55,82.27s44.38-8.89,28.18,34.12c0,0-5.62,43.47,46.29,16.44,0,0,32.79-17.28,39.2,19.3,0,0,5.1,53.7,41.76,27.51,0,0,53.26-37,63.63,39.26,0,0,8.28,60.81,73.22,25.69,0,0,77.14-28.78,61.28,46.77,0,0-10.38,61.3,75.56,19.83,64.15-31,79.54,25.3,76.69,58.27"/><path class="cls-1" d="M169.71,85.46s44.38-8.89,28.17,34.12c0,0-5.61,43.48,46.29,16.45,0,0,32.8-17.28,39.21,19.29,0,0,5.1,53.71,41.75,27.51,0,0,53.44-37,63.8,39.39,0,0,7.33,60.76,73,26.07,0,0,77.21-28.79,62.07,46.38,0,0-10.38,61.31,75.11,20,62.14-30,81.36,22.17,78.38,57.34"/><path class="cls-1" d="M164.87,88.66s44.37-8.9,28.17,34.12c0,0-5.62,43.47,46.29,16.44,0,0,32.79-17.28,39.21,19.29,0,0,5.1,53.71,41.75,27.51,0,0,53.61-36.92,64,39.52,0,0,6.39,60.72,72.77,26.45,0,0,77.27-28.8,62.84,46,0,0-10.36,61.33,74.66,20.23,60.13-29.06,83.18,19,80.07,56.41"/><path class="cls-1" d="M160,91.85S204.4,83,188.19,126c0,0-5.61,43.47,46.3,16.44,0,0,32.79-17.28,39.2,19.3,0,0,5.1,53.7,41.76,27.5,0,0,53.78-36.86,64.12,39.65,0,0,5.44,60.68,72.54,26.82,0,0,77.34-28.8,63.63,45.61,0,0-10.35,61.34,74.21,20.43,58.11-28.11,85,15.91,81.75,55.48"/><path class="cls-1" d="M155.18,95s44.38-8.89,28.17,34.12c0,0-5.61,43.47,46.29,16.44,0,0,32.79-17.28,39.21,19.3,0,0,5.1,53.7,41.75,27.51,0,0,54-36.82,64.3,39.77,0,0,4.49,60.63,72.3,27.2,0,0,77.41-28.81,64.42,45.22,0,0-10.35,61.35,73.75,20.63,56.1-27.16,86.82,12.78,83.45,54.56"/><path class="cls-1" d="M150.34,98.23s44.37-8.89,28.17,34.12c0,0-5.62,43.48,46.29,16.45,0,0,32.79-17.28,39.2,19.29,0,0,5.1,53.71,41.76,27.51,0,0,54.13-36.76,64.46,39.9,0,0,3.55,60.59,72.07,27.58,0,0,77.47-28.83,65.2,44.83,0,0-10.33,61.36,73.31,20.83,54.09-26.21,88.64,9.65,85.13,53.63"/><path class="cls-1" d="M145.49,101.43s44.38-8.9,28.17,34.12c0,0-5.61,43.47,46.29,16.44,0,0,32.8-17.28,39.21,19.29,0,0,5.1,53.71,41.76,27.51,0,0,54.3-36.71,64.62,40,0,0,2.6,60.55,71.85,28,0,0,77.53-28.84,66,44.44,0,0-10.32,61.37,72.86,21,52.07-25.26,90.45,6.52,86.82,52.7"/><path class="cls-1" d="M140.65,104.62s44.37-8.89,28.17,34.12c0,0-5.62,43.47,46.29,16.44,0,0,32.79-17.28,39.21,19.3,0,0,5.1,53.7,41.75,27.5,0,0,54.48-36.65,64.79,40.16,0,0,1.66,60.5,71.62,28.34,0,0,77.6-28.85,66.77,44,0,0-10.31,61.38,72.4,21.23,50.07-24.3,92.28,3.39,88.51,51.78"/><path class="cls-1" d="M135.8,107.81s44.38-8.89,28.17,34.12c0,0-5.61,43.47,46.3,16.44,0,0,32.79-17.28,39.2,19.3,0,0,5.1,53.7,41.76,27.51,0,0,54.65-36.61,64.95,40.28,0,0,.71,60.46,71.39,28.72,0,0,77.67-28.86,67.55,43.66,0,0-10.3,61.39,72,21.43,48-23.35,94.1.26,90.2,50.85"/><path class="cls-1" d="M131,111s44.38-8.89,28.17,34.12c0,0-5.61,43.48,46.29,16.45,0,0,32.79-17.28,39.21,19.29,0,0,5.1,53.71,41.75,27.51,0,0,54.83-36.56,65.13,40.41,0,0-.24,60.42,71.16,29.1,0,0,77.73-28.87,68.33,43.27,0,0-10.29,61.4,71.5,21.63,46-22.39,95.92-2.87,91.89,49.92"/><path class="cls-1" d="M126.12,114.2s44.37-8.9,28.17,34.12c0,0-5.62,43.47,46.29,16.44,0,0,32.79-17.28,39.21,19.29,0,0,5.1,53.71,41.75,27.51,0,0,55-36.5,65.29,40.54,0,0-1.19,60.37,70.93,29.48,0,0,77.8-28.88,69.11,42.88,0,0-10.27,61.42,71.06,21.83,44-21.43,97.74-6,93.57,49"/><path class="cls-1" d="M121.27,117.39s44.38-8.89,28.17,34.12c0,0-5.61,43.47,46.29,16.44,0,0,32.8-17.28,39.21,19.3,0,0,5.1,53.7,41.76,27.5,0,0,55.17-36.45,65.45,40.67,0,0-2.13,60.33,70.7,29.86,0,0,77.87-28.89,69.9,42.49,0,0-10.27,61.43,70.61,22,42-20.47,99.55-9.13,95.26,48.07"/><path class="cls-1" d="M116.43,120.58s44.38-8.89,28.17,34.12c0,0-5.62,43.47,46.29,16.44,0,0,32.79-17.28,39.21,19.3,0,0,5.1,53.7,41.75,27.51,0,0,55.35-36.4,65.62,40.79,0,0-3.07,60.29,70.47,30.23,0,0,77.93-28.89,70.69,42.11,0,0-10.26,61.44,70.15,22.23,40-19.51,101.38-12.26,97,47.14"/><path class="cls-1" d="M111.58,123.77s44.38-8.89,28.18,34.12c0,0-5.62,43.48,46.29,16.45,0,0,32.79-17.28,39.2,19.29,0,0,5.1,53.71,41.76,27.51,0,0,55.52-36.35,65.78,40.92,0,0-4,60.24,70.25,30.61,0,0,78-28.9,71.46,41.72,0,0-10.24,61.45,69.71,22.43,38-18.55,103.2-15.39,98.64,46.22"/><path class="cls-1" d="M106.74,127s44.38-8.9,28.17,34.12c0,0-5.61,43.47,46.29,16.44,0,0,32.8-17.28,39.21,19.29,0,0,5.1,53.71,41.75,27.51,0,0,55.7-36.29,66,41,0,0-5,60.2,70,31,0,0,78.06-28.92,72.25,41.33,0,0-10.24,61.46,69.25,22.63,36-17.59,105-18.52,100.33,45.29"/><path class="cls-1" d="M101.9,130.16s44.37-8.89,28.17,34.12c0,0-5.62,43.47,46.29,16.44,0,0,32.79-17.28,39.21,19.3,0,0,5.1,53.7,41.75,27.5,0,0,55.87-36.24,66.12,41.18,0,0-5.92,60.16,69.78,31.37,0,0,78.13-28.93,73,40.94,0,0-10.23,61.47,68.8,22.83,34-16.62,106.84-21.65,102,44.36"/><path class="cls-1" d="M97.05,133.35s44.38-8.89,28.17,34.12c0,0-5.61,43.47,46.3,16.44,0,0,32.79-17.28,39.2,19.3,0,0,5.1,53.7,41.76,27.51,0,0,56-36.19,66.28,41.3,0,0-6.86,60.11,69.55,31.75,0,0,78.2-28.94,73.82,40.55,0,0-10.21,61.48,68.36,23,32-15.66,108.65-24.78,103.7,43.44"/><path class="cls-1" d="M92.21,136.54s44.38-8.89,28.17,34.12c0,0-5.61,43.48,46.29,16.45,0,0,32.79-17.28,39.21,19.29,0,0,5.1,53.71,41.75,27.51,0,0,56.22-36.14,66.45,41.43,0,0-7.81,60.07,69.33,32.13,0,0,78.26-29,74.6,40.16,0,0-10.2,61.49,67.9,23.23,30-14.69,110.48-27.91,105.39,42.51"/><path class="cls-1" d="M87.37,139.74s44.37-8.9,28.17,34.12c0,0-5.62,43.47,46.29,16.44,0,0,32.79-17.28,39.2,19.29,0,0,5.1,53.71,41.76,27.51,0,0,56.39-36.08,66.61,41.56,0,0-8.75,60,69.1,32.51,0,0,78.33-29,75.38,39.77,0,0-10.19,61.51,67.46,23.43,28-13.72,112.3-31,107.08,41.58"/><path class="cls-1" d="M82.52,142.93s44.38-8.89,28.17,34.12c0,0-5.61,43.47,46.29,16.44,0,0,32.8-17.28,39.21,19.3,0,0,5.1,53.7,41.76,27.5,0,0,56.56-36,66.78,41.69,0,0-9.7,60,68.86,32.89,0,0,78.39-29,76.17,39.38,0,0-10.18,61.52,67,23.63,26-12.75,114.12-34.16,108.77,40.66"/><path class="cls-1" d="M77.68,146.12s44.37-8.89,28.17,34.12c0,0-5.62,43.47,46.29,16.44,0,0,32.79-17.28,39.21,19.3,0,0,5.1,53.7,41.75,27.51,0,0,56.74-36,67,41.81,0,0-10.65,59.94,68.63,33.27,0,0,78.46-29,77,39,0,0-10.17,61.53,66.55,23.83,24-11.78,115.94-37.29,110.46,39.73"/><path class="cls-1" d="M72.83,149.31s44.38-8.89,28.18,34.12c0,0-5.62,43.48,46.29,16.45,0,0,32.79-17.28,39.2,19.29,0,0,5.1,53.71,41.76,27.51,0,0,56.91-35.93,67.11,41.94,0,0-11.59,59.89,68.41,33.65,0,0,78.52-29,77.73,38.6,0,0-10.16,61.54,66.11,24,22-10.81,117.75-40.42,112.14,38.8"/><path class="cls-1" d="M68,152.51s44.38-8.9,28.17,34.12c0,0-5.61,43.47,46.29,16.44,0,0,32.79-17.28,39.21,19.29,0,0,5.1,53.71,41.75,27.51,0,0,57.09-35.87,67.28,42.07,0,0-12.54,59.85,68.18,34,0,0,78.59-29,78.52,38.22,0,0-10.15,61.55,65.65,24.23,20-9.83,119.58-43.55,113.84,37.87"/><path class="cls-1" d="M63.15,155.7s44.37-8.89,28.17,34.12c0,0-5.62,43.47,46.29,16.44,0,0,32.79-17.28,39.21,19.3,0,0,5.1,53.7,41.75,27.5,0,0,57.26-35.82,67.44,42.2,0,0-13.48,59.81,67.95,34.4,0,0,78.66-29,79.31,37.83,0,0-10.14,61.56,65.2,24.43,18-8.86,121.4-46.68,115.52,36.95"/><path class="cls-1" d="M58.3,158.89S102.68,150,86.47,193c0,0-5.61,43.47,46.29,16.44,0,0,32.8-17.28,39.21,19.3,0,0,5.1,53.7,41.76,27.51,0,0,57.43-35.77,67.61,42.32,0,0-14.44,59.76,67.72,34.78,0,0,78.72-29,80.08,37.44,0,0-10.13,61.57,64.75,24.63,16-7.88,123.22-49.81,117.21,36"/><path class="cls-1" d="M53.46,162.08s44.38-8.89,28.17,34.12c0,0-5.61,43.48,46.29,16.45,0,0,32.79-17.28,39.21,19.29,0,0,5.1,53.71,41.75,27.51,0,0,57.61-35.72,67.78,42.45,0,0-15.38,59.72,67.49,35.16,0,0,78.79-29,80.87,37.05,0,0-10.12,61.59,64.3,24.83,14-6.9,125-52.94,118.9,35.09"/><path class="cls-1" d="M48.62,165.28S93,156.38,76.79,199.4c0,0-5.62,43.47,46.29,16.44,0,0,32.79-17.28,39.2,19.29,0,0,5.1,53.71,41.76,27.51,0,0,57.78-35.67,67.94,42.58,0,0-16.32,59.68,67.26,35.54,0,0,78.85-29,81.66,36.66,0,0-10.12,61.6,63.85,25,12-5.92,126.85-56.07,120.58,34.17"/><path class="cls-1" d="M43.77,168.47s44.38-8.89,28.17,34.12c0,0-5.61,43.47,46.29,16.44,0,0,32.8-17.28,39.21,19.3,0,0,5.1,53.7,41.76,27.5,0,0,57.95-35.61,68.1,42.71,0,0-17.27,59.63,67,35.92,0,0,78.92-29,82.44,36.27,0,0-10.1,61.61,63.4,25.23,10-4.94,128.68-59.2,122.28,33.24"/><path class="cls-1" d="M38.93,171.66s44.37-8.89,28.17,34.12c0,0-5.62,43.47,46.29,16.44,0,0,32.79-17.28,39.21,19.3,0,0,5.1,53.7,41.75,27.51,0,0,58.13-35.57,68.28,42.83,0,0-18.22,59.59,66.8,36.3,0,0,79-29.06,83.22,35.88,0,0-10.09,61.62,63,25.43,8-4,130.5-62.33,124,32.31"/><path class="cls-1" d="M34.08,174.85S78.46,166,62.25,209c0,0-5.61,43.48,46.3,16.45,0,0,32.79-17.28,39.2,19.29,0,0,5.1,53.71,41.76,27.51,0,0,58.3-35.51,68.44,43,0,0-19.17,59.55,66.57,36.68,0,0,79.05-29.07,84,35.49,0,0-10.08,61.63,62.5,25.63,6-3,132.32-65.46,125.66,31.39"/><path class="cls-1" d="M29.24,178.05s44.38-8.9,28.17,34.12c0,0-5.61,43.47,46.29,16.44,0,0,32.79-17.28,39.21,19.29,0,0,5.1,53.71,41.75,27.51,0,0,58.48-35.46,68.61,43.09,0,0-20.11,59.5,66.34,37.06,0,0,79.12-29.09,84.79,35.11,0,0-10.07,61.63,62.05,25.82,4-2,134.14-68.59,127.34,30.46"/><path class="cls-1" d="M24.4,181.24s44.37-8.89,28.17,34.12c0,0-5.62,43.47,46.29,16.44,0,0,32.79-17.28,39.2,19.3,0,0,5.11,53.7,41.76,27.5,0,0,58.65-35.4,68.77,43.22,0,0-21.06,59.46,66.11,37.44,0,0,79.19-29.1,85.58,34.72,0,0-10.06,61.65,61.6,26,2-1,136-71.72,129,29.53"/><path class="cls-1" d="M19.55,184.43s44.38-8.89,28.17,34.12c0,0-5.61,43.47,46.29,16.44,0,0,32.8-17.28,39.21,19.3,0,0,5.1,53.7,41.76,27.51,0,0,58.82-35.36,68.93,43.34,0,0-22,59.42,65.89,37.81,0,0,79.25-29.1,86.35,34.34,0,0-9.46,62.82,61.15,26.22,0,0,137.78-74.85,130.72,28.61"/></svg>