<svg id="Layer_1" data-name="Layer 1" xmlns="http://www.w3.org/2000/svg" viewBox="0 0 705 685"><defs><style>.cls-1{fill:none;stroke:#f7bd1e;stroke-miterlimit:10;stroke-width:10px;}</style></defs><title>youtube2</title><path class="cls-1" d="M684.77,258.12c-.36-5.93-.55-11.87-.68-17.81-2.8-126.42-108-118.33-108-118.33C404,105.11,139,122,139,122c-96,0-108,59.07-111.23,87.33-.86,7.51-.76,4.76-1.85,12.25C10.83,325.37,24.24,476.4,24.24,476.4c8.43,103,91.13,101.26,91.13,101.26,308.85,20.26,467.49,0,467.49,0C662.2,567.75,674.94,515,677,498.34c.41-3.32.8-6.65,1.4-9.94C685.81,447.71,687.5,302.57,684.77,258.12ZM284.14,449.4V250.25l177.21,99.57Z"/></svg>